<?xml version="1.0" encoding="UTF-8" standalone="no"?>
<!DOCTYPE svg PUBLIC "-//W3C//DTD SVG 1.1//EN" "http://www.w3.org/Graphics/SVG/1.1/DTD/svg11.dtd">
<svg width="100%" height="100%" viewBox="0 0 719 840" version="1.1" xmlns="http://www.w3.org/2000/svg" xmlns:xlink="http://www.w3.org/1999/xlink" xml:space="preserve" xmlns:serif="http://www.serif.com/" style="fill-rule:evenodd;clip-rule:evenodd;stroke-linejoin:round;stroke-miterlimit:2;">
    <g transform="matrix(1,0,0,1,-318.385,-1116.99)">
        <g transform="matrix(4.16667,0,0,4.16667,0,0)">
            <g transform="matrix(1,0,0,1,105.754,461.638)">
                <path d="M0,-172.447L113.764,-172.447C129.903,-172.447 143.106,-159.243 143.106,-143.105L143.106,-29.341C143.106,-13.203 129.903,0 113.764,0L0,0C-16.138,0 -29.342,-13.203 -29.342,-29.341L-29.342,-143.105C-29.342,-159.243 -16.138,-172.447 0,-172.447" style="fill:rgb(214,129,25);"/>
            </g>
        </g>
        <g transform="matrix(4.16667,0,0,4.16667,0,0)">
            <g transform="matrix(1,0,0,1,162.637,380.363)">
                <path d="M70.984,88.494L-70.984,88.494C-71.806,52.197 -43.878,31.125 -19.898,23.262C-17.953,13.135 -18.45,0 -18.45,0L18.45,0C18.45,0 17.953,13.135 19.898,23.262C43.878,31.125 71.805,52.197 70.984,88.494Z" style="fill:rgb(88,85,108);"/>
            </g>
        </g>
        <g transform="matrix(4.16667,0,0,4.16667,0,0)">
            <g transform="matrix(-0.999812,0.0194133,0.0194133,0.999812,119.734,365.606)">
                <path d="M-4.107,-14.277C-3.971,-16.178 3.748,-18.571 6.455,-12.413C9.162,-6.254 4.676,2.633 -4.107,3.494C-12.889,4.355 -10.332,2.752 -10.332,2.752L-4.107,-14.277Z" style="fill:rgb(228,174,124);"/>
            </g>
        </g>
        <g transform="matrix(4.16667,0,0,4.16667,0,0)">
            <g transform="matrix(-0.999812,-0.0194133,-0.0194133,0.999812,205.726,365.606)">
                <path d="M4.106,-14.277C3.97,-16.178 -3.748,-18.571 -6.455,-12.413C-9.163,-6.254 -4.677,2.633 4.106,3.494C12.889,4.355 10.332,2.752 10.332,2.752L4.106,-14.277Z" style="fill:rgb(228,174,124);"/>
            </g>
        </g>
        <g transform="matrix(4.16667,0,0,4.16667,0,0)">
            <g transform="matrix(0.21843,-0.975853,-0.975853,-0.21843,162.517,378.494)">
                <path d="M-10.429,-21.596C-27.083,-17.139 -33.133,2.589 -19.17,14.766C-15.87,15.267 -12.793,15.878 -10.429,16.393L-2.393,-19.508C-4.612,-20.017 -7.438,-20.721 -10.429,-21.596" style="fill:rgb(214,127,84);"/>
            </g>
        </g>
        <g transform="matrix(4.16667,0,0,4.16667,0,0)">
            <g transform="matrix(1,0,0,1,162.637,282.403)">
                <path d="M0,110.675C-45.773,111.776 -68.884,-1.101 0,1.79C68.884,-1.101 45.773,111.776 0,110.675" style="fill:rgb(228,174,124);"/>
            </g>
        </g>
        <g transform="matrix(4.16667,0,0,4.16667,0,0)">
            <g transform="matrix(-0.80981,-0.586692,-0.586692,0.80981,140.955,345.285)">
                <path d="M-2.406,-7.422C-4.672,-7.426 -6.509,-5.593 -6.509,-3.33C-6.508,-1.064 -4.672,0.775 -2.406,0.78C-0.139,0.784 1.697,-1.049 1.697,-3.313C1.697,-5.578 -0.14,-7.417 -2.406,-7.422" style="fill:rgb(32,32,30);"/>
            </g>
        </g>
        <g transform="matrix(4.16667,0,0,4.16667,0,0)">
            <g transform="matrix(-0.80981,0.586692,0.586692,0.80981,184.572,345.286)">
                <path d="M2.405,-7.422C4.671,-7.426 6.509,-5.594 6.508,-3.33C6.509,-1.065 4.672,0.774 2.405,0.78C0.14,0.783 -1.698,-1.048 -1.698,-3.313C-1.698,-5.578 0.14,-7.417 2.405,-7.422" style="fill:rgb(32,32,30);"/>
            </g>
        </g>
        <g transform="matrix(4.16667,0,0,4.16667,0,0)">
            <g transform="matrix(-0.547587,-0.836749,-0.836749,0.547587,133.817,356.274)">
                <path d="M-4.001,-7.402C-6.781,-8.374 -9.036,-7.022 -9.035,-4.381C-9.035,-1.74 -6.782,1.19 -4.001,2.163C-1.221,3.136 1.033,1.783 1.032,-0.858C1.032,-3.499 -1.221,-6.429 -4.001,-7.402" style="fill:rgb(218,144,119);"/>
            </g>
        </g>
        <g transform="matrix(4.16667,0,0,4.16667,0,0)">
            <g transform="matrix(-0.547539,0.83678,0.83678,0.547539,191.712,356.273)">
                <path d="M4.002,-7.403C6.782,-8.375 9.036,-7.022 9.036,-4.381C9.036,-1.74 6.783,1.19 4.002,2.163C1.223,3.136 -1.031,1.783 -1.031,-0.858C-1.031,-3.499 1.222,-6.429 4.002,-7.403" style="fill:rgb(218,144,119);"/>
            </g>
        </g>
        <g transform="matrix(4.16667,0,0,4.16667,0,0)">
            <g transform="matrix(1,0,0,1,149.05,333.483)">
                <path d="M0,-3.928C-0.152,-3.995 -0.305,-4.057 -0.461,-4.117C-2.25,-4.762 -3.767,-4.937 -5.699,-4.797C-7.591,-4.597 -9.004,-4.169 -10.59,-3.264C-11.331,-2.787 -14.221,-0.448 -13.401,0.416C-13.067,0.508 -10.188,-0.963 -9.342,-1.238C-8.027,-1.626 -6.96,-1.775 -5.567,-1.745C-4.268,-1.687 -3.29,-1.498 -2.106,-1.041C-2.074,-1.035 -1.86,-0.939 -1.814,-0.919C0.6,0.255 0.381,1.009 2.028,-0.12C4.564,-1.469 1.954,-2.913 0,-3.928" style="fill:rgb(63,39,22);"/>
            </g>
        </g>
        <g transform="matrix(4.16667,0,0,4.16667,0,0)">
            <g transform="matrix(1,0,0,1,176.223,333.483)">
                <path d="M0,-3.928C0.153,-3.995 0.305,-4.057 0.461,-4.117C2.25,-4.762 3.767,-4.937 5.7,-4.797C7.591,-4.597 9.004,-4.169 10.591,-3.264C11.331,-2.787 14.221,-0.448 13.401,0.416C13.067,0.508 10.188,-0.963 9.343,-1.238C8.027,-1.626 6.96,-1.775 5.567,-1.745C4.268,-1.687 3.291,-1.498 2.106,-1.041C2.074,-1.035 1.86,-0.939 1.814,-0.919C-0.6,0.255 -0.381,1.009 -2.028,-0.12C-4.563,-1.469 -1.954,-2.913 0,-3.928" style="fill:rgb(63,39,22);"/>
            </g>
        </g>
        <g transform="matrix(4.16667,0,0,4.16667,0,0)">
            <g transform="matrix(1,0,0,1,160.485,377.821)">
                <path d="M0,0.251C-0.235,0.113 -0.314,-0.189 -0.176,-0.425C-0.038,-0.66 0.265,-0.739 0.5,-0.602C1.183,-0.202 2.052,-0.002 2.922,-0.002C3.791,-0.002 4.645,-0.201 5.299,-0.598C5.532,-0.739 5.836,-0.664 5.978,-0.431C6.119,-0.198 6.044,0.106 5.811,0.248C4.995,0.743 3.958,0.99 2.922,0.99C1.888,0.99 0.841,0.744 0,0.251" style="fill:rgb(214,127,84);"/>
            </g>
        </g>
        <g transform="matrix(4.16667,0,0,4.16667,0,0)">
            <g transform="matrix(1,0,0,1,162.262,347.177)">
                <path d="M0,12.936C-0.273,12.936 -0.496,12.714 -0.496,12.44C-0.496,12.166 -0.273,11.944 0,11.944C1.191,11.944 2.615,11.933 3.713,11.747C4.618,11.593 5.282,11.348 5.282,10.937C5.282,9.509 3.835,0.634 3.831,0.609C3.789,0.339 3.973,0.085 4.243,0.042C4.512,0 4.766,0.183 4.809,0.454C4.812,0.48 6.274,9.448 6.274,10.937C6.274,11.982 5.258,12.489 3.876,12.723C2.692,12.924 1.226,12.936 0,12.936" style="fill:rgb(214,127,84);"/>
            </g>
        </g>
        <g transform="matrix(4.16667,0,0,4.16667,0,0)">
            <g transform="matrix(1,0,0,1,209.606,360.708)">
                <path d="M0,-2.484C0,-2.211 -0.222,-1.988 -0.496,-1.988C-0.771,-1.988 -0.993,-2.211 -0.993,-2.484C-0.993,-3.992 -1.253,-4.939 -1.672,-5.455C-1.924,-5.764 -2.243,-5.907 -2.595,-5.915C-3.001,-5.924 -3.465,-5.772 -3.947,-5.499C-5.25,-4.761 -6.597,-3.197 -7.342,-1.493C-7.701,-0.672 -8.01,0.171 -8.188,0.809C-7.426,0.279 -6.585,0.068 -5.876,0.139C-5.473,0.18 -5.105,0.31 -4.807,0.525C-4.493,0.751 -4.258,1.066 -4.14,1.46C-3.937,2.141 -4.094,3.055 -4.825,4.146C-4.977,4.372 -5.284,4.434 -5.511,4.282C-5.738,4.13 -5.799,3.823 -5.647,3.595C-5.101,2.781 -4.966,2.161 -5.09,1.744C-5.143,1.567 -5.246,1.427 -5.385,1.328C-5.54,1.216 -5.743,1.147 -5.973,1.123C-6.61,1.06 -7.417,1.338 -8.089,2.014C-8.269,2.195 -8.438,2.297 -8.594,2.33C-8.992,2.416 -9.224,2.242 -9.31,1.851L-9.315,1.825C-9.345,1.678 -9.338,1.48 -9.301,1.245C-9.189,0.539 -8.765,-0.709 -8.25,-1.888C-7.422,-3.779 -5.908,-5.526 -4.435,-6.36C-3.803,-6.717 -3.167,-6.918 -2.576,-6.904C-1.932,-6.888 -1.355,-6.634 -0.905,-6.079C-0.347,-5.393 0,-4.237 0,-2.484" style="fill:rgb(214,127,84);"/>
            </g>
        </g>
        <g transform="matrix(4.16667,0,0,4.16667,0,0)">
            <g transform="matrix(1,0,0,1,116.66,360.708)">
                <path d="M0,-2.484C0,-2.211 -0.222,-1.988 -0.496,-1.988C-0.77,-1.988 -0.992,-2.211 -0.992,-2.484C-0.992,-4.237 -0.646,-5.393 -0.088,-6.079C0.364,-6.634 0.94,-6.888 1.583,-6.904C2.175,-6.918 2.811,-6.717 3.443,-6.36C4.916,-5.526 6.43,-3.779 7.257,-1.888C7.772,-0.709 8.197,0.539 8.309,1.245C8.346,1.48 8.353,1.678 8.323,1.825L8.317,1.851C8.231,2.241 8,2.416 7.601,2.33C7.446,2.297 7.277,2.195 7.097,2.014C6.425,1.338 5.619,1.06 4.981,1.123C4.75,1.147 4.547,1.216 4.392,1.328C4.253,1.427 4.15,1.567 4.098,1.744C3.973,2.161 4.108,2.781 4.654,3.595C4.807,3.823 4.746,4.13 4.519,4.282C4.292,4.434 3.985,4.372 3.832,4.146C3.102,3.055 2.944,2.141 3.148,1.46C3.266,1.066 3.5,0.751 3.814,0.525C4.113,0.31 4.48,0.18 4.884,0.139C5.593,0.068 6.434,0.279 7.195,0.809C7.018,0.171 6.708,-0.672 6.35,-1.493C5.605,-3.197 4.257,-4.761 2.954,-5.499C2.473,-5.772 2.009,-5.924 1.603,-5.915C1.25,-5.907 0.932,-5.764 0.68,-5.455C0.261,-4.939 0,-3.992 0,-2.484" style="fill:rgb(214,127,84);"/>
            </g>
        </g>
        <g transform="matrix(4.16667,0,0,4.16667,0,0)">
            <g transform="matrix(1,0,0,1,213.289,322.76)">
                <path d="M0,-29.174C1.907,-28.809 1.658,-27.242 -3.906,-23.315C1.236,-16.835 2.026,-6.541 0.27,3.116C-0.105,5.178 -5.908,19.792 -11.375,29.366C-11.883,30.255 -11.544,10.383 -17.284,2.445C-20.197,-1.582 -22.598,-6.356 -28.53,-10.334C-28.59,-9.204 -25.065,-6.12 -26.381,-5.5C-31.412,-3.129 -45.579,-5.578 -52.123,-7.237C-50.24,-5.298 -48.318,-3.892 -49.039,-3.184C-51.292,-0.972 -65.535,-4.425 -74.333,-10.33C-76.465,-3.295 -79.476,4.175 -82.857,6.165C-91.909,11.491 -87.963,33.983 -90.339,30.678C-101.237,15.519 -98.489,-4.109 -98.489,-4.109C-99.545,-2.434 -100.747,-0.992 -101.579,0.739C-103.082,3.867 -104.111,-24.903 -90.436,-28.634C-90.436,-28.634 -92.593,-29.379 -98.142,-28.339C-100.178,-27.956 -94.139,-33.57 -87.625,-34.299C-87.438,-37.132 -86.173,-48.503 -77.858,-52.172C-74.001,-53.874 -67.682,-55.03 -68.484,-54.544C-72.448,-52.143 -73.587,-48.804 -73.587,-48.804C-43.16,-63.157 -29.319,-47.899 -17.394,-38.334C-13.788,-35.442 -6.155,-29.655 0,-29.174" style="fill:rgb(53,37,61);"/>
            </g>
        </g>
        <g transform="matrix(4.16667,0,0,4.16667,0,0)">
            <g transform="matrix(1,0,0,1,152.441,354.485)">
                <path d="M0,-17.235C-2.206,-19.441 -5.253,-20.805 -8.618,-20.805C-11.983,-20.805 -15.031,-19.441 -17.237,-17.235C-19.441,-15.03 -20.807,-11.982 -20.807,-8.617C-20.807,-5.252 -19.441,-2.205 -17.237,0.001C-15.031,2.206 -11.983,3.571 -8.618,3.571C-5.253,3.571 -2.206,2.206 0,0.001C2.206,-2.205 3.57,-5.252 3.57,-8.617C3.57,-11.982 2.206,-15.03 0,-17.235M-8.618,-23.287C-4.567,-23.287 -0.9,-21.644 1.754,-18.989C4.409,-16.336 6.052,-12.668 6.052,-8.617C6.052,-4.567 4.409,-0.899 1.754,1.755C-0.9,4.41 -4.567,6.052 -8.618,6.052C-12.668,6.052 -16.336,4.41 -18.991,1.755C-21.645,-0.899 -23.288,-4.567 -23.288,-8.617C-23.288,-12.668 -21.645,-16.336 -18.991,-18.989C-16.336,-21.644 -12.668,-23.287 -8.618,-23.287" style="fill:rgb(46,30,17);"/>
            </g>
        </g>
        <g transform="matrix(4.16667,0,0,4.16667,0,0)">
            <g transform="matrix(1,0,0,1,190.068,354.485)">
                <path d="M0,-17.235C-2.206,-19.441 -5.253,-20.805 -8.618,-20.805C-11.984,-20.805 -15.031,-19.441 -17.236,-17.235C-19.442,-15.03 -20.806,-11.982 -20.806,-8.617C-20.806,-5.252 -19.442,-2.205 -17.236,0.001C-15.031,2.206 -11.984,3.571 -8.618,3.571C-5.253,3.571 -2.206,2.206 0,0.001C2.205,-2.205 3.57,-5.252 3.57,-8.617C3.57,-11.982 2.205,-15.03 0,-17.235M-8.618,-23.287C-4.568,-23.287 -0.9,-21.644 1.754,-18.989C4.409,-16.336 6.051,-12.668 6.051,-8.617C6.051,-4.567 4.409,-0.899 1.754,1.755C-0.9,4.41 -4.568,6.052 -8.618,6.052C-12.669,6.052 -16.336,4.41 -18.991,1.755C-21.646,-0.899 -23.288,-4.567 -23.288,-8.617C-23.288,-12.668 -21.646,-16.336 -18.991,-18.989C-16.336,-21.644 -12.669,-23.287 -8.618,-23.287" style="fill:rgb(46,30,17);"/>
            </g>
        </g>
        <g transform="matrix(4.16667,0,0,4.16667,0,0)">
            <g transform="matrix(1,0,0,1,129.956,349.675)">
                <path d="M0,-5.007C0.513,-5.192 1.08,-4.924 1.264,-4.409C1.448,-3.897 1.181,-3.33 0.667,-3.146L-8.07,0.002C-8.584,0.185 -9.149,-0.082 -9.334,-0.597C-9.518,-1.11 -9.251,-1.676 -8.737,-1.861L0,-5.007Z" style="fill:rgb(46,30,17);"/>
            </g>
        </g>
        <g transform="matrix(4.16667,0,0,4.16667,0,0)">
            <g transform="matrix(1,0,0,1,194.688,347.814)">
                <path d="M0,-1.285C-0.514,-1.47 -0.781,-2.036 -0.597,-2.549C-0.413,-3.063 0.153,-3.331 0.667,-3.146L9.404,-0C9.918,0.185 10.185,0.751 10.001,1.264C9.817,1.778 9.25,2.046 8.737,1.862L0,-1.285Z" style="fill:rgb(46,30,17);"/>
            </g>
        </g>
        <g transform="matrix(4.16667,0,0,4.16667,0,0)">
            <g transform="matrix(1,0,0,1,157.467,341.454)">
                <path d="M0,3.273C-0.285,3.74 -0.895,3.887 -1.361,3.602C-1.828,3.317 -1.975,2.709 -1.69,2.242C-1.686,2.234 -0.008,-0.614 5.169,-0.614C10.347,-0.614 12.024,2.234 12.029,2.242C12.313,2.709 12.167,3.317 11.699,3.602C11.233,3.887 10.624,3.74 10.338,3.273C10.336,3.267 9.225,1.372 5.169,1.372C1.114,1.372 0.002,3.267 0,3.273" style="fill:rgb(46,30,17);"/>
            </g>
        </g>
        <g transform="matrix(4.16667,0,0,4.16667,0,0)">
            <g transform="matrix(1,0,0,1,178.162,376.93)">
                <path d="M0,-12.117C-6.232,-9.804 -25.171,-9.85 -31.051,-11.838C-27.802,0 -3.159,-0.187 0,-12.117" style="fill:white;"/>
            </g>
        </g>
        <g transform="matrix(4.16667,0,0,4.16667,0,0)">
            <g transform="matrix(1,0,0,1,143.526,408.125)">
                <path d="M0,-16.816C-0.507,-17.034 -1.809,-17.015 -1.808,-16.098C-1.806,-15.106 -0.878,-11.692 -1.543,-9.17C-2.245,-6.507 -3.424,-4.319 -2.065,-3.791C4.188,-1.361 11,-0.076 17.845,0.062C25.52,0.218 33.234,-1.066 40.247,-3.791C41.606,-4.319 40.426,-6.507 39.725,-9.17C39.06,-11.692 39.988,-15.106 39.99,-16.098C39.991,-17.015 38.689,-17.034 38.182,-16.816C25.979,-11.587 12.203,-11.587 0,-16.816" style="fill:rgb(103,98,126);"/>
            </g>
        </g>
        <g transform="matrix(4.16667,0,0,4.16667,0,0)">
            <g transform="matrix(1,0,0,1,110.873,468.863)">
                <path d="M0,-20.55C0.003,-20.96 0.338,-21.289 0.748,-21.286C1.157,-21.282 1.486,-20.948 1.483,-20.538L1.301,0C1.297,0.41 0.963,0.739 0.553,0.736C0.144,0.733 -0.185,0.398 -0.183,-0.011L0,-20.55Z" style="fill:rgb(56,53,70);"/>
            </g>
        </g>
        <g transform="matrix(4.16667,0,0,4.16667,0,0)">
            <g transform="matrix(1,0,0,1,213.1,468.863)">
                <path d="M0,-20.55C0.003,-20.96 0.338,-21.289 0.747,-21.286C1.157,-21.282 1.486,-20.948 1.483,-20.538L1.3,0C1.297,0.41 0.962,0.739 0.553,0.736C0.144,0.733 -0.186,0.398 -0.183,-0.011L0,-20.55Z" style="fill:rgb(56,53,70);"/>
            </g>
        </g>
        <g transform="matrix(4.16667,0,0,4.16667,0,0)">
            <g transform="matrix(1,0,0,1,145.09,404.192)">
                <path d="M0,-10.563C0.009,-10.835 0.237,-11.05 0.509,-11.042C0.783,-11.033 0.997,-10.805 0.988,-10.532C0.966,-9.856 0.959,-9.221 0.952,-8.581C0.937,-7.269 0.922,-5.936 0.791,-4.37C0.584,-1.886 -0.749,0.183 -0.753,0.188C-0.899,0.418 -1.205,0.487 -1.436,0.339C-1.665,0.193 -1.733,-0.113 -1.586,-0.343C-1.583,-0.348 -0.384,-2.208 -0.197,-4.451C-0.065,-6.03 -0.051,-7.319 -0.036,-8.588C-0.029,-9.247 -0.021,-9.9 0,-10.563" style="fill:rgb(88,85,108);"/>
            </g>
        </g>
        <g transform="matrix(4.16667,0,0,4.16667,0,0)">
            <g transform="matrix(1,0,0,1,149.16,405.636)">
                <path d="M0,-10.563C0.009,-10.835 0.237,-11.05 0.51,-11.042C0.783,-11.033 0.997,-10.805 0.988,-10.532C0.966,-9.856 0.959,-9.221 0.952,-8.581C0.937,-7.269 0.922,-5.936 0.792,-4.37C0.585,-1.886 -0.749,0.182 -0.753,0.188C-0.899,0.418 -1.205,0.487 -1.436,0.339C-1.665,0.192 -1.733,-0.113 -1.586,-0.343C-1.583,-0.348 -0.384,-2.209 -0.197,-4.451C-0.065,-6.03 -0.051,-7.319 -0.036,-8.588C-0.029,-9.247 -0.021,-9.9 0,-10.563" style="fill:rgb(88,85,108);"/>
            </g>
        </g>
        <g transform="matrix(4.16667,0,0,4.16667,0,0)">
            <g transform="matrix(1,0,0,1,153.428,406.423)">
                <path d="M0,-10.562C0.009,-10.835 0.236,-11.049 0.509,-11.041C0.783,-11.032 0.997,-10.803 0.988,-10.532C0.966,-9.856 0.959,-9.22 0.952,-8.581C0.937,-7.269 0.922,-5.936 0.791,-4.369C0.584,-1.885 -0.749,0.183 -0.753,0.189C-0.899,0.418 -1.205,0.487 -1.436,0.34C-1.666,0.193 -1.733,-0.112 -1.586,-0.341C-1.583,-0.347 -0.384,-2.208 -0.197,-4.451C-0.066,-6.029 -0.051,-7.319 -0.037,-8.587C-0.03,-9.246 -0.021,-9.899 0,-10.562" style="fill:rgb(88,85,108);"/>
            </g>
        </g>
        <g transform="matrix(4.16667,0,0,4.16667,0,0)">
            <g transform="matrix(1,0,0,1,157.826,407.21)">
                <path d="M0,-10.561C0.009,-10.834 0.237,-11.049 0.509,-11.04C0.783,-11.031 0.997,-10.803 0.988,-10.531C0.966,-9.855 0.959,-9.219 0.952,-8.58C0.937,-7.268 0.922,-5.935 0.791,-4.369C0.585,-1.884 -0.749,0.183 -0.753,0.19C-0.899,0.419 -1.205,0.488 -1.436,0.34C-1.665,0.194 -1.733,-0.111 -1.586,-0.341C-1.583,-0.346 -0.384,-2.207 -0.197,-4.45C-0.065,-6.028 -0.051,-7.318 -0.036,-8.587C-0.029,-9.245 -0.021,-9.898 0,-10.561" style="fill:rgb(88,85,108);"/>
            </g>
        </g>
        <g transform="matrix(4.16667,0,0,4.16667,0,0)">
            <g transform="matrix(1,0,0,1,178.681,404.16)">
                <path d="M0,-10.5C-0.008,-10.773 0.206,-11.001 0.479,-11.01C0.752,-11.019 0.98,-10.804 0.989,-10.531C1.011,-9.868 1.018,-9.215 1.025,-8.557C1.04,-7.287 1.055,-5.998 1.186,-4.419C1.373,-2.176 2.571,-0.316 2.575,-0.312C2.722,-0.081 2.653,0.225 2.424,0.371C2.194,0.519 1.888,0.45 1.741,0.22C1.738,0.215 0.403,-1.854 0.197,-4.338C0.067,-5.904 0.051,-7.237 0.037,-8.549C0.029,-9.189 0.022,-9.824 0,-10.5" style="fill:rgb(88,85,108);"/>
            </g>
        </g>
        <g transform="matrix(4.16667,0,0,4.16667,0,0)">
            <g transform="matrix(1,0,0,1,174.61,405.605)">
                <path d="M0,-10.5C-0.008,-10.773 0.206,-11.001 0.479,-11.01C0.752,-11.019 0.98,-10.804 0.989,-10.531C1.011,-9.868 1.018,-9.215 1.025,-8.557C1.04,-7.287 1.055,-5.998 1.186,-4.419C1.373,-2.177 2.571,-0.316 2.575,-0.312C2.722,-0.081 2.653,0.224 2.424,0.371C2.194,0.519 1.887,0.45 1.741,0.22C1.738,0.214 0.403,-1.854 0.197,-4.338C0.066,-5.904 0.051,-7.237 0.037,-8.549C0.029,-9.189 0.022,-9.824 0,-10.5" style="fill:rgb(88,85,108);"/>
            </g>
        </g>
        <g transform="matrix(4.16667,0,0,4.16667,0,0)">
            <g transform="matrix(1,0,0,1,170.343,406.393)">
                <path d="M0,-10.501C-0.008,-10.772 0.206,-11.001 0.479,-11.01C0.752,-11.019 0.98,-10.805 0.989,-10.531C1.011,-9.868 1.018,-9.215 1.025,-8.557C1.04,-7.288 1.055,-5.998 1.186,-4.42C1.373,-2.177 2.572,-0.316 2.575,-0.311C2.722,-0.081 2.654,0.224 2.424,0.371C2.194,0.518 1.888,0.449 1.741,0.22C1.738,0.214 0.404,-1.855 0.197,-4.338C0.067,-5.905 0.052,-7.238 0.037,-8.55C0.03,-9.189 0.022,-9.825 0,-10.501" style="fill:rgb(88,85,108);"/>
            </g>
        </g>
        <g transform="matrix(4.16667,0,0,4.16667,0,0)">
            <g transform="matrix(1,0,0,1,165.944,407.18)">
                <path d="M0,-10.5C-0.008,-10.772 0.206,-11 0.479,-11.01C0.752,-11.019 0.98,-10.804 0.989,-10.53C1.011,-9.867 1.018,-9.214 1.025,-8.557C1.04,-7.287 1.055,-5.997 1.186,-4.419C1.373,-2.176 2.571,-0.315 2.575,-0.311C2.722,-0.08 2.653,0.225 2.424,0.371C2.194,0.519 1.888,0.45 1.741,0.221C1.738,0.214 0.403,-1.854 0.197,-4.338C0.067,-5.904 0.051,-7.237 0.037,-8.549C0.029,-9.188 0.022,-9.824 0,-10.5" style="fill:rgb(88,85,108);"/>
            </g>
        </g>
        <g transform="matrix(4.16667,0,0,4.16667,0,0)">
            <g transform="matrix(1,0,0,1,161.939,407.134)">
                <path d="M0,-10.469C0,-10.742 0.222,-10.964 0.495,-10.964C0.768,-10.964 0.989,-10.742 0.989,-10.469L1.011,0.001C1.011,0.273 0.79,0.495 0.517,0.495C0.244,0.495 0.023,0.273 0.023,0.001L0,-10.469Z" style="fill:rgb(88,85,108);"/>
            </g>
        </g>
        <g transform="matrix(4.16667,0,0,4.16667,0,0)">
            <g transform="matrix(1,0,0,1,135.529,311.043)">
                <path d="M0,-21.288C-0.129,-21.529 -0.039,-21.829 0.202,-21.959C0.442,-22.089 0.744,-21.998 0.873,-21.758C3.599,-16.702 9.263,-12.255 15.792,-8.712C24.122,-4.193 33.832,-1.165 40.683,-0.217C40.954,-0.18 41.143,0.07 41.105,0.341C41.068,0.611 40.818,0.801 40.547,0.764C33.594,-0.198 23.75,-3.266 15.319,-7.84C8.639,-11.463 2.829,-16.042 0,-21.288" style="fill:rgb(67,45,76);"/>
            </g>
        </g>
        <g transform="matrix(4.16667,0,0,4.16667,0,0)">
            <g transform="matrix(1,0,0,1,141.086,335.654)">
                <path d="M0,-50.234C-0.274,-50.234 -0.496,-50.456 -0.496,-50.729C-0.496,-51.004 -0.274,-51.225 0,-51.225C7.978,-51.225 15.407,-49.842 22.177,-47.592C30.152,-44.943 37.203,-41.093 43.153,-36.89C49.423,-32.461 54.483,-27.459 58.125,-21.394C61.768,-15.328 63.986,-8.211 64.57,0.446C64.588,0.718 64.381,0.955 64.108,0.973C63.835,0.991 63.599,0.785 63.581,0.512C63.008,-7.98 60.839,-14.954 57.276,-20.886C53.711,-26.821 48.746,-31.727 42.583,-36.08C36.7,-40.236 29.734,-44.04 21.867,-46.654C15.198,-48.87 7.874,-50.234 0,-50.234" style="fill:rgb(67,45,76);"/>
            </g>
        </g>
        <g transform="matrix(4.16667,0,0,4.16667,0,0)">
            <g transform="matrix(1,0,0,1,144.707,284.145)">
                <path d="M0,-3.236C-0.248,-3.121 -0.543,-3.229 -0.657,-3.478C-0.771,-3.725 -0.663,-4.02 -0.415,-4.134C19.94,-13.51 33.193,-4.179 44.623,3.868C47.447,5.857 50.159,7.766 52.82,9.278C53.059,9.412 53.142,9.714 53.006,9.952C52.872,10.19 52.57,10.274 52.332,10.138C49.62,8.599 46.893,6.678 44.052,4.678C32.839,-3.216 19.836,-12.372 0,-3.236" style="fill:rgb(67,45,76);"/>
            </g>
        </g>
        <g transform="matrix(4.16667,0,0,4.16667,0,0)">
            <g transform="matrix(1,0,0,1,131.449,328.745)">
                <path d="M0,-30.665C-0.014,-30.938 0.196,-31.171 0.469,-31.185C0.742,-31.198 0.975,-30.988 0.989,-30.716C1.132,-28.054 0.375,-24.269 -0.929,-20.529C-2.191,-16.91 -3.968,-13.319 -5.937,-10.82C-9.767,-5.961 -9.826,0.024 -9.826,0.042C-9.83,0.315 -10.056,0.533 -10.328,0.528C-10.601,0.524 -10.819,0.3 -10.814,0.026C-10.814,0.009 -10.752,-6.312 -6.717,-11.433C-4.814,-13.847 -3.091,-17.333 -1.863,-20.855C-0.599,-24.481 0.137,-28.128 0,-30.665" style="fill:rgb(67,45,76);"/>
            </g>
        </g>
    </g>
</svg>
