<?xml version="1.0" encoding="UTF-8" standalone="no"?>
<!DOCTYPE svg PUBLIC "-//W3C//DTD SVG 1.1//EN" "http://www.w3.org/Graphics/SVG/1.1/DTD/svg11.dtd">
<svg width="100%" height="100%" viewBox="0 0 719 845" version="1.1" xmlns="http://www.w3.org/2000/svg" xmlns:xlink="http://www.w3.org/1999/xlink" xml:space="preserve" xmlns:serif="http://www.serif.com/" style="fill-rule:evenodd;clip-rule:evenodd;stroke-linejoin:round;stroke-miterlimit:2;">
    <g transform="matrix(1,0,0,1,-318.385,-126.672)">
        <g transform="matrix(4.16667,0,0,4.16667,0,0)">
            <g transform="matrix(1,0,0,1,105.754,225.945)">
                <path d="M0,-172.448L113.764,-172.448C129.903,-172.448 143.106,-159.244 143.106,-143.106L143.106,-29.342C143.106,-13.204 129.903,0 113.764,0L0,0C-16.138,0 -29.342,-13.204 -29.342,-29.342L-29.342,-143.106C-29.342,-159.244 -16.138,-172.448 0,-172.448" style="fill:rgb(153,118,174);"/>
            </g>
        </g>
        <g transform="matrix(4.16667,0,0,4.16667,0,0)">
            <g transform="matrix(1,0,0,1,163.512,69.9936)">
                <path d="M0,104.65C6.499,125.447 19.142,137.151 41.374,142.754C35.685,134.422 37.689,122.061 47.292,116.763C56.893,111.466 67.445,106.26 67.422,95.587C67.385,78.941 54.74,80.839 62.05,70.057C69.361,59.274 69.891,41.027 56.651,32.227C56.463,32.103 56.287,31.978 56.104,31.853C53.615,29.46 51.841,28.849 54.67,24.078C73.319,-7.371 16.827,-38.104 0.417,-12.657C-3.181,-17.725 -9.703,-23.04 -20.954,-21.759C-27.95,-20.963 -45.841,-13.671 -53.79,-0.607C-67.002,21.106 -47.327,20.724 -56.846,31.986C-57.822,32.781 -58.817,33.665 -59.605,34.741C-59.72,34.837 -59.835,34.933 -59.951,35.025C-72.409,44.822 -69.36,59.274 -62.049,70.057C-54.739,80.839 -68.918,80.998 -69.168,95.028C-69.426,109.434 -54.369,112.212 -44.767,117.509C-35.164,122.806 -35.684,134.422 -41.373,142.754C-19.142,137.151 -6.499,125.447 0,104.65" style="fill:rgb(57,39,31);"/>
            </g>
        </g>
        <g transform="matrix(4.16667,0,0,4.16667,0,0)">
            <g transform="matrix(1,0,0,1,162.637,146.24)">
                <path d="M-71.448,86.923L71.448,86.923C71.448,19.727 18.153,55.981 18.153,0L-18.416,0C-18.416,55.981 -71.448,19.727 -71.448,86.923Z" style="fill:rgb(228,174,124);"/>
            </g>
        </g>
        <g transform="matrix(4.16667,0,0,4.16667,0,0)">
            <g transform="matrix(-0.999812,0.0194122,0.0194122,0.999812,119.734,126.55)">
                <path d="M-4.107,-14.278C-3.971,-16.178 3.748,-18.571 6.455,-12.413C9.162,-6.254 4.676,2.633 -4.107,3.494C-12.889,4.354 -10.332,2.751 -10.332,2.751L-4.107,-14.278Z" style="fill:rgb(228,174,124);"/>
            </g>
        </g>
        <g transform="matrix(4.16667,0,0,4.16667,0,0)">
            <g transform="matrix(-0.999812,-0.0194122,-0.0194122,0.999812,205.726,126.55)">
                <path d="M4.106,-14.278C3.97,-16.178 -3.748,-18.571 -6.455,-12.413C-9.163,-6.254 -4.677,2.633 4.106,3.494C12.889,4.354 10.332,2.751 10.332,2.751L4.106,-14.278Z" style="fill:rgb(228,174,124);"/>
            </g>
        </g>
        <g transform="matrix(4.16667,0,0,4.16667,0,0)">
            <g transform="matrix(-0.189548,-0.981872,-0.981872,0.189548,146.388,142.002)">
                <path d="M-9.195,-33.564C-9.195,-33.564 -11.733,-32.974 -15.458,-32.318C-31.418,-22.1 -29.239,-0.36 -9.195,3.994C-5.112,3.115 -2.201,2.666 -2.201,2.666L-9.195,-33.564Z" style="fill:rgb(214,127,84);"/>
            </g>
        </g>
        <g transform="matrix(4.16667,0,0,4.16667,0,0)">
            <g transform="matrix(1,0,0,1,162.637,43.346)">
                <path d="M0,110.676C-45.773,111.776 -68.884,-1.1 0,1.791C68.884,-1.1 45.773,111.776 0,110.676" style="fill:rgb(228,174,124);"/>
            </g>
        </g>
        <g transform="matrix(4.16667,0,0,4.16667,0,0)">
            <g transform="matrix(1,0,0,1,141.998,100.112)">
                <path d="M0,4.351C0.066,5.031 -0.431,5.636 -1.11,5.703C-1.791,5.77 -2.396,5.273 -2.462,4.594C-2.527,3.953 -2.477,3.303 -2.309,2.678C-2.143,2.068 -1.868,1.477 -1.477,0.936C-0.613,-0.255 0.656,-0.985 2.009,-1.203C3.356,-1.419 4.787,-1.122 5.982,-0.26C6.744,0.29 7.319,1.005 7.692,1.801C8.079,2.625 8.249,3.534 8.187,4.433C8.141,5.115 7.551,5.632 6.869,5.586C6.187,5.54 5.669,4.951 5.715,4.268C5.749,3.777 5.659,3.286 5.453,2.847C5.254,2.423 4.947,2.041 4.538,1.747C3.896,1.283 3.124,1.123 2.396,1.24C1.674,1.356 0.994,1.749 0.53,2.391C0.32,2.68 0.173,2.994 0.086,3.318C-0.007,3.661 -0.034,4.011 0,4.351" style="fill:rgb(57,39,31);"/>
            </g>
        </g>
        <g transform="matrix(4.16667,0,0,4.16667,0,0)">
            <g transform="matrix(-0.547661,-0.836701,-0.836701,0.547661,133.817,115.13)">
                <path d="M-4.001,-7.402C-6.781,-8.375 -9.034,-7.023 -9.036,-4.381C-9.035,-1.74 -6.781,1.191 -4.001,2.164C-1.221,3.136 1.033,1.783 1.033,-0.858C1.032,-3.499 -1.221,-6.43 -4.001,-7.402" style="fill:rgb(218,144,119);"/>
            </g>
        </g>
        <g transform="matrix(4.16667,0,0,4.16667,0,0)">
            <g transform="matrix(-0.547613,0.836732,0.836732,0.547613,191.712,115.129)">
                <path d="M4.003,-7.403C6.782,-8.376 9.035,-7.023 9.036,-4.381C9.036,-1.74 6.783,1.19 4.003,2.164C1.222,3.136 -1.032,1.783 -1.031,-0.858C-1.031,-3.499 1.222,-6.43 4.003,-7.403" style="fill:rgb(218,144,119);"/>
            </g>
        </g>
        <g transform="matrix(4.16667,0,0,4.16667,0,0)">
            <g transform="matrix(1,0,0,1,149.05,92.3387)">
                <path d="M0,-3.929C-0.152,-3.995 -0.305,-4.058 -0.461,-4.117C-2.25,-4.762 -3.767,-4.937 -5.699,-4.797C-7.591,-4.597 -9.004,-4.17 -10.59,-3.265C-11.331,-2.787 -14.221,-0.447 -13.401,0.414C-13.067,0.508 -10.188,-0.963 -9.342,-1.238C-8.027,-1.626 -6.96,-1.775 -5.567,-1.746C-4.268,-1.688 -3.29,-1.498 -2.106,-1.042C-2.074,-1.035 -1.86,-0.94 -1.814,-0.919C0.6,0.255 0.381,1.008 2.028,-0.12C4.564,-1.471 1.954,-2.913 0,-3.929" style="fill:rgb(63,39,22);"/>
            </g>
        </g>
        <g transform="matrix(4.16667,0,0,4.16667,0,0)">
            <g transform="matrix(1,0,0,1,176.223,92.3387)">
                <path d="M0,-3.929C0.153,-3.995 0.305,-4.058 0.461,-4.117C2.25,-4.762 3.767,-4.937 5.7,-4.797C7.591,-4.597 9.004,-4.17 10.591,-3.265C11.331,-2.787 14.221,-0.447 13.401,0.414C13.067,0.508 10.188,-0.963 9.343,-1.238C8.027,-1.626 6.96,-1.775 5.567,-1.746C4.268,-1.688 3.291,-1.498 2.106,-1.042C2.074,-1.035 1.86,-0.94 1.814,-0.919C-0.6,0.255 -0.381,1.008 -2.028,-0.12C-4.563,-1.471 -1.954,-2.913 0,-3.929" style="fill:rgb(63,39,22);"/>
            </g>
        </g>
        <g transform="matrix(4.16667,0,0,4.16667,0,0)">
            <g transform="matrix(1,0,0,1,150.763,132.906)">
                <path d="M0,-8.904C4.219,-8.956 8.422,-8.983 12.624,-8.983C16.827,-8.983 21.03,-8.956 25.249,-8.904C25.249,-2.285 18.721,0.079 12.647,0.079L12.602,0.079C6.527,0.079 0,-2.285 0,-8.904" style="fill:white;"/>
            </g>
        </g>
        <g transform="matrix(4.16667,0,0,4.16667,0,0)">
            <g transform="matrix(1,0,0,1,160.485,136.676)">
                <path d="M0,0.252C-0.235,0.114 -0.314,-0.189 -0.176,-0.425C-0.038,-0.661 0.265,-0.739 0.5,-0.602C1.183,-0.202 2.052,-0.001 2.922,-0.001C3.791,-0.001 4.645,-0.2 5.299,-0.598C5.532,-0.738 5.836,-0.664 5.978,-0.431C6.119,-0.197 6.044,0.107 5.811,0.248C4.995,0.744 3.958,0.991 2.922,0.991C1.888,0.991 0.841,0.744 0,0.252" style="fill:rgb(214,127,84);"/>
            </g>
        </g>
        <g transform="matrix(4.16667,0,0,4.16667,0,0)">
            <g transform="matrix(1,0,0,1,162.262,101.982)">
                <path d="M0,12.937C-0.273,12.937 -0.496,12.714 -0.496,12.44C-0.496,12.167 -0.273,11.944 0,11.944C1.191,11.944 2.615,11.933 3.713,11.747C4.618,11.594 5.282,11.349 5.282,10.937C5.282,9.51 3.835,0.634 3.831,0.61C3.789,0.34 3.973,0.086 4.243,0.043C4.512,0 4.766,0.185 4.809,0.454C4.812,0.48 6.274,9.448 6.274,10.937C6.274,11.982 5.258,12.49 3.876,12.724C2.692,12.925 1.226,12.937 0,12.937" style="fill:rgb(214,127,84);"/>
            </g>
        </g>
        <g transform="matrix(4.16667,0,0,4.16667,0,0)">
            <g transform="matrix(1,0,0,1,209.606,121.654)">
                <path d="M0,-2.487C0,-2.213 -0.222,-1.99 -0.496,-1.99C-0.771,-1.99 -0.993,-2.213 -0.993,-2.487C-0.993,-3.993 -1.253,-4.941 -1.672,-5.456C-1.924,-5.767 -2.243,-5.909 -2.595,-5.917C-3.001,-5.926 -3.465,-5.774 -3.947,-5.501C-5.25,-4.763 -6.597,-3.198 -7.342,-1.495C-7.701,-0.674 -8.01,0.169 -8.188,0.807C-7.426,0.277 -6.585,0.065 -5.876,0.137C-5.473,0.178 -5.105,0.309 -4.807,0.524C-4.493,0.749 -4.258,1.064 -4.14,1.458C-3.937,2.139 -4.094,3.053 -4.825,4.144C-4.977,4.371 -5.284,4.431 -5.511,4.28C-5.738,4.128 -5.799,3.821 -5.647,3.594C-5.101,2.779 -4.966,2.159 -5.09,1.741C-5.143,1.564 -5.246,1.425 -5.385,1.326C-5.54,1.214 -5.743,1.144 -5.973,1.121C-6.61,1.058 -7.417,1.336 -8.089,2.012C-8.269,2.193 -8.438,2.295 -8.594,2.329C-8.992,2.414 -9.224,2.239 -9.31,1.849L-9.315,1.823C-9.345,1.675 -9.338,1.478 -9.301,1.244C-9.189,0.539 -8.765,-0.71 -8.25,-1.89C-7.422,-3.78 -5.908,-5.527 -4.435,-6.362C-3.803,-6.72 -3.167,-6.918 -2.576,-6.905C-1.932,-6.891 -1.355,-6.635 -0.905,-6.081C-0.347,-5.395 0,-4.239 0,-2.487" style="fill:rgb(214,127,84);"/>
            </g>
        </g>
        <g transform="matrix(4.16667,0,0,4.16667,0,0)">
            <g transform="matrix(1,0,0,1,116.66,121.654)">
                <path d="M0,-2.487C0,-2.213 -0.222,-1.99 -0.496,-1.99C-0.77,-1.99 -0.992,-2.213 -0.992,-2.487C-0.992,-4.239 -0.646,-5.395 -0.088,-6.081C0.364,-6.635 0.94,-6.891 1.583,-6.905C2.175,-6.918 2.811,-6.72 3.443,-6.362C4.916,-5.527 6.43,-3.78 7.257,-1.89C7.772,-0.71 8.197,0.539 8.309,1.244C8.346,1.478 8.353,1.675 8.323,1.823L8.317,1.849C8.231,2.239 8,2.414 7.601,2.329C7.446,2.295 7.277,2.193 7.097,2.012C6.425,1.336 5.619,1.058 4.981,1.121C4.75,1.144 4.547,1.214 4.392,1.326C4.253,1.425 4.15,1.564 4.098,1.741C3.973,2.159 4.108,2.779 4.654,3.594C4.807,3.821 4.746,4.128 4.519,4.28C4.292,4.431 3.985,4.371 3.832,4.144C3.102,3.053 2.944,2.139 3.148,1.458C3.266,1.064 3.5,0.749 3.814,0.524C4.113,0.309 4.48,0.178 4.884,0.137C5.593,0.065 6.434,0.277 7.195,0.807C7.018,0.169 6.708,-0.674 6.35,-1.495C5.605,-3.198 4.257,-4.763 2.954,-5.501C2.473,-5.774 2.009,-5.926 1.603,-5.917C1.25,-5.909 0.932,-5.767 0.68,-5.456C0.261,-4.941 0,-3.993 0,-2.487" style="fill:rgb(214,127,84);"/>
            </g>
        </g>
        <g transform="matrix(4.16667,0,0,4.16667,0,0)">
            <g transform="matrix(1,0,0,1,124.211,40.3865)">
                <path d="M0,78.843C-4.615,69.837 -4.545,59.778 -4.979,55.913C-9.235,18.007 14.373,0 37.695,0.666C37.94,0.659 38.183,0.655 38.426,0.653L38.426,15.509C34.148,14.106 30.501,13.256 28.57,13.256C28.332,13.256 28.096,13.252 27.86,13.243C27.626,13.252 27.39,13.256 27.152,13.256C21.778,13.256 19.108,22.217 12.921,24.643C9.375,26.032 12.769,42.427 9.102,50.677C8.204,52.697 3.515,57.426 2.431,57.903C-0.741,61.133 -1.073,64.757 0,78.843" style="fill:rgb(70,41,23);"/>
            </g>
        </g>
        <g transform="matrix(4.16667,0,0,4.16667,0,0)">
            <g transform="matrix(1,0,0,1,201.062,40.3865)">
                <path d="M0,78.843C4.614,69.837 4.545,59.778 4.979,55.913C9.235,18.007 -14.373,0 -37.695,0.666C-37.94,0.659 -38.183,0.655 -38.425,0.653L-38.425,15.509C-34.148,14.106 -30.502,13.256 -28.57,13.256C-28.332,13.256 -28.096,13.252 -27.861,13.243C-27.626,13.252 -27.391,13.256 -27.152,13.256C-21.779,13.256 -19.107,24.712 -12.921,27.137C-9.376,28.527 -12.77,42.427 -9.103,50.677C-8.204,52.697 -3.515,57.426 -2.431,57.903C0.741,61.133 1.073,64.757 0,78.843" style="fill:rgb(70,41,23);"/>
            </g>
        </g>
        <g transform="matrix(4.16667,0,0,4.16667,0,0)">
            <g transform="matrix(1,0,0,1,162.637,214.487)">
                <path d="M-54.47,18.676L54.469,18.676L51.446,0L-51.447,0L-54.47,18.676Z" style="fill:rgb(46,30,17);"/>
            </g>
        </g>
        <g transform="matrix(4.16667,0,0,4.16667,0,0)">
            <g transform="matrix(1,0,0,1,115.158,185.326)">
                <path d="M0,30.766C-0.036,31.929 -1.009,32.843 -2.172,32.806C-3.336,32.77 -4.25,31.797 -4.213,30.634L-0.016,-0.001C0.02,-1.163 0.993,-2.077 2.156,-2.041C3.32,-2.004 4.232,-1.032 4.197,0.132L0,30.766Z" style="fill:rgb(46,30,17);"/>
            </g>
        </g>
        <g transform="matrix(4.16667,0,0,4.16667,0,0)">
            <g transform="matrix(1,0,0,1,210.115,185.326)">
                <path d="M0,30.766C0.036,31.929 1.009,32.843 2.172,32.806C3.336,32.77 4.25,31.797 4.213,30.634L0.017,-0.001C-0.021,-1.163 -0.993,-2.077 -2.156,-2.041C-3.319,-2.004 -4.233,-1.032 -4.197,0.132L0,30.766Z" style="fill:rgb(46,30,17);"/>
            </g>
        </g>
        <g transform="matrix(4.16667,0,0,4.16667,0,0)">
            <g transform="matrix(1,0,0,1,177.821,100.112)">
                <path d="M0,4.351C0.067,5.031 -0.43,5.636 -1.11,5.703C-1.79,5.77 -2.395,5.273 -2.461,4.594C-2.526,3.953 -2.477,3.303 -2.308,2.678C-2.143,2.068 -1.868,1.477 -1.476,0.936C-0.612,-0.255 0.656,-0.985 2.009,-1.203C3.357,-1.419 4.788,-1.122 5.983,-0.26C6.745,0.29 7.319,1.005 7.692,1.801C8.079,2.625 8.249,3.534 8.187,4.433C8.141,5.115 7.551,5.632 6.869,5.586C6.187,5.54 5.67,4.951 5.715,4.268C5.749,3.777 5.659,3.286 5.454,2.847C5.254,2.423 4.947,2.041 4.539,1.747C3.896,1.283 3.125,1.123 2.396,1.24C1.675,1.356 0.995,1.749 0.53,2.391C0.32,2.68 0.173,2.994 0.086,3.318C-0.006,3.661 -0.034,4.011 0,4.351" style="fill:rgb(57,39,31);"/>
            </g>
        </g>
        <g transform="matrix(4.16667,0,0,4.16667,0,0)">
            <g transform="matrix(1,0,0,1,135.443,98.4068)">
                <path d="M0,-31.024C20.701,-45.449 11.785,-19.867 29.27,-19.799C37.973,-19.765 45.943,-16.25 45.8,-8.867C45.658,-1.484 45.605,1.787 53.588,5.621C69.06,13.049 39.534,38.651 78.286,40.077C74.234,21.369 93.459,15.32 86.956,-0.913C80.453,-17.146 67.878,-12.413 70.617,-22.493C72.772,-30.426 73.676,-39.007 67.979,-45.109C59.75,-53.923 51.612,-44.942 46.342,-53.425C41.921,-60.544 39.335,-71.101 20.653,-67.144C-3.134,-62.106 -4.14,-43.097 0,-31.024" style="fill:rgb(98,58,28);"/>
            </g>
        </g>
        <g transform="matrix(4.16667,0,0,4.16667,0,0)">
            <g transform="matrix(1,0,0,1,138.112,127.212)">
                <path d="M0,-68.69C-0.157,-68.468 -0.466,-68.414 -0.689,-68.571C-0.911,-68.729 -0.964,-69.037 -0.807,-69.259C-0.02,-70.372 1.851,-71.59 4.113,-72.377C5.709,-72.932 7.515,-73.282 9.286,-73.237C11.084,-73.192 12.849,-72.74 14.333,-71.689C15.637,-70.765 16.715,-69.388 17.396,-67.431C18.935,-63.005 20.36,-60.548 22.333,-59.171C24.3,-57.796 26.89,-57.451 30.738,-57.258C34.735,-57.058 39.505,-56.422 43.348,-54.291C47.247,-52.128 50.176,-48.455 50.379,-42.204C50.574,-36.262 51.271,-32.957 52.55,-30.949C53.792,-29.003 55.652,-28.25 58.18,-27.429C58.366,-27.369 58.537,-27.31 58.69,-27.252C61.164,-26.335 63.002,-24.777 63.917,-22.482C64.817,-20.225 64.802,-17.274 63.59,-13.544C63.472,-13.18 63.348,-12.823 63.219,-12.473C61.777,-8.587 61.434,-5.081 61.983,-2.294C62.543,0.55 64.035,2.633 66.229,3.574C66.48,3.681 66.598,3.972 66.492,4.224C66.384,4.475 66.093,4.592 65.842,4.484C63.333,3.41 61.635,1.071 61.01,-2.105C60.428,-5.062 60.78,-8.755 62.288,-12.818C62.423,-13.184 62.543,-13.527 62.648,-13.85C63.785,-17.347 63.815,-20.072 62.999,-22.118C62.198,-24.127 60.561,-25.5 58.345,-26.322C58.176,-26.384 58.019,-26.44 57.874,-26.486C55.148,-27.373 53.134,-28.196 51.717,-30.418C50.338,-32.58 49.591,-36.036 49.391,-42.173C49.201,-48.002 46.484,-51.42 42.867,-53.427C39.192,-55.464 34.573,-56.075 30.692,-56.27C26.663,-56.471 23.935,-56.847 21.767,-58.361C19.603,-59.871 18.074,-62.47 16.461,-67.106C15.853,-68.854 14.905,-70.074 13.763,-70.882C12.455,-71.809 10.878,-72.208 9.262,-72.248C7.618,-72.29 5.934,-71.962 4.439,-71.442C2.362,-70.72 0.676,-69.645 0,-68.69" style="fill:rgb(119,77,48);"/>
            </g>
        </g>
        <g transform="matrix(4.16667,0,0,4.16667,0,0)">
            <g transform="matrix(1,0,0,1,143.178,120.457)">
                <path d="M0,-76.217C-0.246,-76.097 -0.543,-76.199 -0.663,-76.446C-0.783,-76.692 -0.681,-76.988 -0.434,-77.109C0.5,-77.564 1.613,-77.982 2.831,-78.32C5.561,-79.075 8.815,-79.42 11.738,-78.868C14.726,-78.305 17.37,-76.815 18.795,-73.895C19.046,-73.379 19.26,-72.814 19.429,-72.199C20.495,-68.353 22.572,-65.725 25.164,-64.121C28.143,-62.276 31.815,-61.771 35.424,-62.316C36.198,-62.433 37.022,-62.492 37.875,-62.492C41.166,-62.492 44.931,-61.618 48.012,-59.842C51.139,-58.04 53.568,-55.313 54.125,-51.627C54.203,-51.104 54.244,-50.565 54.244,-50.009C54.244,-48.366 54.201,-46.771 54.162,-45.316C54.003,-39.37 53.909,-35.875 57.281,-33.891C57.554,-33.73 57.806,-33.585 58.077,-33.427L58.08,-33.427C63.345,-30.388 76.298,-22.908 71.675,-10.836C66.922,1.573 65.831,2.94 65.828,2.945C65.662,3.161 65.351,3.203 65.133,3.037C64.916,2.871 64.875,2.56 65.041,2.344C65.043,2.339 66.046,1.089 70.748,-11.188C75.07,-22.474 62.637,-29.654 57.583,-32.571C57.271,-32.752 56.986,-32.917 56.781,-33.038C52.905,-35.318 53.004,-39.029 53.174,-45.339C53.211,-46.723 53.252,-48.241 53.252,-50.009C53.252,-50.517 53.215,-51.009 53.144,-51.479C52.638,-54.83 50.402,-57.325 47.52,-58.985C44.596,-60.67 41.012,-61.499 37.875,-61.499C37.068,-61.499 36.293,-61.444 35.571,-61.335C31.747,-60.758 27.837,-61.303 24.645,-63.28C21.85,-65.01 19.614,-67.827 18.476,-71.935C18.324,-72.483 18.131,-72.991 17.903,-73.46C16.636,-76.056 14.255,-77.386 11.555,-77.895C8.792,-78.417 5.697,-78.086 3.094,-77.365C1.943,-77.047 0.888,-76.651 0,-76.217" style="fill:rgb(119,77,48);"/>
            </g>
        </g>
    </g>
</svg>
