<?xml version="1.0" encoding="UTF-8" standalone="no"?>
<!DOCTYPE svg PUBLIC "-//W3C//DTD SVG 1.1//EN" "http://www.w3.org/Graphics/SVG/1.1/DTD/svg11.dtd">
<svg width="100%" height="100%" viewBox="0 0 719 829" version="1.1" xmlns="http://www.w3.org/2000/svg" xmlns:xlink="http://www.w3.org/1999/xlink" xml:space="preserve" xmlns:serif="http://www.serif.com/" style="fill-rule:evenodd;clip-rule:evenodd;stroke-linejoin:round;stroke-miterlimit:2;">
    <g transform="matrix(1,0,0,1,-2088.08,-142.961)">
        <g transform="matrix(4.16667,0,0,4.16667,0,0)">
            <g transform="matrix(1,0,0,1,530.481,225.203)">
                <path d="M0,-172.448L113.765,-172.448C129.903,-172.448 143.107,-159.244 143.107,-143.106L143.107,-29.342C143.107,-13.204 129.903,0 113.765,0L0,0C-16.138,0 -29.341,-13.204 -29.341,-29.342L-29.341,-143.106C-29.341,-159.244 -16.138,-172.448 0,-172.448" style="fill:rgb(153,118,174);"/>
            </g>
        </g>
        <g transform="matrix(4.16667,0,0,4.16667,0,0)">
            <g transform="matrix(1,0,0,1,587.363,145.498)">
                <path d="M-71.447,86.924L71.448,86.924C71.448,19.727 18.153,55.982 18.153,0L-18.416,0C-18.416,55.982 -71.447,19.727 -71.447,86.924Z" style="fill:rgb(228,174,124);"/>
            </g>
        </g>
        <g transform="matrix(4.16667,0,0,4.16667,0,0)">
            <g transform="matrix(-0.999812,0.0194133,0.0194133,0.999812,544.461,125.809)">
                <path d="M-4.106,-14.278C-3.969,-16.179 3.749,-18.571 6.455,-12.413C9.163,-6.254 4.677,2.633 -4.106,3.493C-12.889,4.354 -10.332,2.751 -10.332,2.751L-4.106,-14.278Z" style="fill:rgb(228,174,124);"/>
            </g>
        </g>
        <g transform="matrix(4.16667,0,0,4.16667,0,0)">
            <g transform="matrix(-0.99981,-0.0194695,-0.0194695,0.99981,630.451,125.809)">
                <path d="M4.105,-14.278C3.97,-16.179 -3.748,-18.572 -6.455,-12.413C-9.163,-6.255 -4.678,2.632 4.105,3.493C12.887,4.354 10.331,2.751 10.331,2.751L4.105,-14.278Z" style="fill:rgb(228,174,124);"/>
            </g>
        </g>
        <g transform="matrix(4.16667,0,0,4.16667,0,0)">
            <g transform="matrix(-0.189527,-0.981876,-0.981876,0.189527,572.53,139.546)">
                <path d="M-10.609,-31.849C-10.609,-31.849 -13.147,-31.259 -16.872,-30.604C-31.476,-21.254 -27.59,2.019 -10.609,5.708C-6.527,4.829 -3.616,4.38 -3.616,4.38L-10.609,-31.849Z" style="fill:rgb(214,127,84);"/>
            </g>
        </g>
        <g transform="matrix(4.16667,0,0,4.16667,0,0)">
            <g transform="matrix(1,0,0,1,587.363,42.6038)">
                <path d="M0,110.677C-45.773,111.777 -68.884,-1.1 0,1.792C68.884,-1.1 45.774,111.777 0,110.677" style="fill:rgb(228,174,124);"/>
            </g>
        </g>
        <g transform="matrix(4.16667,0,0,4.16667,0,0)">
            <g transform="matrix(1,0,0,1,566.725,99.3717)">
                <path d="M0,4.349C0.066,5.029 -0.431,5.635 -1.11,5.702C-1.79,5.769 -2.396,5.272 -2.462,4.592C-2.526,3.951 -2.478,3.302 -2.309,2.677C-2.144,2.066 -1.867,1.475 -1.476,0.935C-0.613,-0.256 0.656,-0.987 2.009,-1.204C3.356,-1.42 4.787,-1.123 5.982,-0.261C6.745,0.289 7.319,1.004 7.692,1.8C8.079,2.624 8.249,3.533 8.188,4.432C8.142,5.114 7.551,5.63 6.868,5.584C6.187,5.539 5.67,4.949 5.716,4.266C5.749,3.775 5.659,3.285 5.453,2.846C5.255,2.422 4.947,2.04 4.538,1.745C3.896,1.282 3.124,1.121 2.396,1.239C1.675,1.354 0.995,1.747 0.53,2.389C0.32,2.678 0.174,2.993 0.086,3.316C-0.007,3.659 -0.034,4.01 0,4.349" style="fill:rgb(57,39,31);"/>
            </g>
        </g>
        <g transform="matrix(4.16667,0,0,4.16667,0,0)">
            <g transform="matrix(-0.547613,-0.836732,-0.836732,0.547613,558.542,114.388)">
                <path d="M-4.002,-7.404C-6.782,-8.376 -9.036,-7.023 -9.037,-4.381C-9.037,-1.74 -6.783,1.19 -4.002,2.163C-1.222,3.135 1.031,1.783 1.031,-0.86C1.03,-3.502 -1.223,-6.431 -4.002,-7.404" style="fill:rgb(218,144,119);"/>
            </g>
        </g>
        <g transform="matrix(4.16667,0,0,4.16667,0,0)">
            <g transform="matrix(-0.547661,0.836701,0.836701,0.547661,616.439,114.389)">
                <path d="M4.001,-7.403C6.782,-8.376 9.035,-7.023 9.036,-4.381C9.035,-1.739 6.781,1.191 4.001,2.163C1.22,3.135 -1.033,1.782 -1.032,-0.86C-1.032,-3.501 1.221,-6.43 4.001,-7.403" style="fill:rgb(218,144,119);"/>
            </g>
        </g>
        <g transform="matrix(4.16667,0,0,4.16667,0,0)">
            <g transform="matrix(1,0,0,1,573.777,91.598)">
                <path d="M0,-3.93C-0.152,-3.996 -0.306,-4.059 -0.461,-4.118C-2.25,-4.763 -3.767,-4.938 -5.699,-4.799C-7.591,-4.597 -9.004,-4.171 -10.591,-3.265C-11.33,-2.788 -14.221,-0.449 -13.401,0.414C-13.066,0.506 -10.188,-0.964 -9.343,-1.239C-8.027,-1.627 -6.961,-1.776 -5.567,-1.747C-4.269,-1.688 -3.29,-1.499 -2.105,-1.042C-2.073,-1.037 -1.859,-0.94 -1.814,-0.92C0.601,0.254 0.382,1.008 2.028,-0.121C4.563,-1.471 1.954,-2.914 0,-3.93" style="fill:rgb(63,39,22);"/>
            </g>
        </g>
        <g transform="matrix(4.16667,0,0,4.16667,0,0)">
            <g transform="matrix(1,0,0,1,600.95,91.598)">
                <path d="M0,-3.93C0.152,-3.996 0.305,-4.059 0.461,-4.118C2.25,-4.763 3.767,-4.938 5.698,-4.799C7.591,-4.597 9.004,-4.171 10.59,-3.265C11.33,-2.788 14.22,-0.449 13.4,0.414C13.066,0.506 10.188,-0.964 9.343,-1.239C8.027,-1.627 6.96,-1.776 5.566,-1.747C4.268,-1.688 3.29,-1.499 2.105,-1.042C2.073,-1.037 1.859,-0.94 1.814,-0.92C-0.601,0.254 -0.382,1.008 -2.028,-0.121C-4.563,-1.471 -1.954,-2.914 0,-3.93" style="fill:rgb(63,39,22);"/>
            </g>
        </g>
        <g transform="matrix(4.16667,0,0,4.16667,0,0)">
            <g transform="matrix(1,0,0,1,575.49,132.164)">
                <path d="M0,-8.904C4.219,-8.957 8.421,-8.983 12.624,-8.983C16.827,-8.983 21.029,-8.957 25.248,-8.904C25.248,-2.285 18.721,0.079 12.646,0.079L12.624,0.078L12.602,0.079C6.527,0.079 0,-2.285 0,-8.904" style="fill:white;"/>
            </g>
        </g>
        <g transform="matrix(4.16667,0,0,4.16667,0,0)">
            <g transform="matrix(1,0,0,1,585.212,135.934)">
                <path d="M0,0.253C-0.235,0.115 -0.314,-0.189 -0.176,-0.424C-0.038,-0.66 0.265,-0.739 0.5,-0.601C1.183,-0.201 2.052,-0 2.922,-0C3.79,-0 4.645,-0.199 5.299,-0.597C5.532,-0.737 5.836,-0.664 5.978,-0.43C6.119,-0.197 6.044,0.108 5.811,0.249C4.994,0.744 3.958,0.992 2.922,0.992C1.889,0.992 0.841,0.745 0,0.253" style="fill:rgb(214,127,84);"/>
            </g>
        </g>
        <g transform="matrix(4.16667,0,0,4.16667,0,0)">
            <g transform="matrix(1,0,0,1,586.99,101.24)">
                <path d="M0,12.937C-0.274,12.937 -0.497,12.714 -0.497,12.441C-0.497,12.167 -0.274,11.944 0,11.944C1.19,11.944 2.613,11.934 3.713,11.748C4.616,11.594 5.28,11.35 5.28,10.937C5.28,9.51 3.834,0.635 3.83,0.609C3.788,0.339 3.972,0.086 4.241,0.043C4.512,0 4.765,0.185 4.808,0.454C4.812,0.48 6.273,9.448 6.273,10.937C6.273,11.983 5.257,12.49 3.875,12.724C2.69,12.925 1.224,12.937 0,12.937" style="fill:rgb(214,127,84);"/>
            </g>
        </g>
        <g transform="matrix(4.16667,0,0,4.16667,0,0)">
            <g transform="matrix(1,0,0,1,634.333,120.911)">
                <path d="M0,-2.486C0,-2.212 -0.223,-1.989 -0.497,-1.989C-0.771,-1.989 -0.993,-2.212 -0.993,-2.486C-0.993,-3.992 -1.254,-4.941 -1.672,-5.456C-1.925,-5.766 -2.242,-5.908 -2.596,-5.916C-3.002,-5.926 -3.466,-5.773 -3.947,-5.5C-5.25,-4.763 -6.598,-3.198 -7.342,-1.494C-7.701,-0.674 -8.011,0.17 -8.188,0.807C-7.426,0.278 -6.586,0.066 -5.877,0.138C-5.473,0.179 -5.105,0.309 -4.807,0.524C-4.492,0.75 -4.258,1.064 -4.141,1.459C-3.938,2.139 -4.094,3.054 -4.825,4.145C-4.978,4.372 -5.284,4.432 -5.512,4.28C-5.738,4.128 -5.8,3.821 -5.647,3.594C-5.102,2.78 -4.966,2.159 -5.09,1.742C-5.143,1.565 -5.247,1.426 -5.385,1.326C-5.54,1.215 -5.742,1.145 -5.973,1.122C-6.61,1.058 -7.417,1.337 -8.089,2.013C-8.27,2.193 -8.438,2.296 -8.594,2.329C-8.991,2.415 -9.224,2.24 -9.31,1.85L-9.315,1.823C-9.346,1.676 -9.338,1.479 -9.302,1.244C-9.189,0.539 -8.766,-0.71 -8.25,-1.889C-7.423,-3.78 -5.909,-5.527 -4.436,-6.361C-3.804,-6.719 -3.168,-6.918 -2.576,-6.905C-1.933,-6.89 -1.355,-6.635 -0.905,-6.08C-0.347,-5.394 0,-4.238 0,-2.486" style="fill:rgb(214,127,84);"/>
            </g>
        </g>
        <g transform="matrix(4.16667,0,0,4.16667,0,0)">
            <g transform="matrix(1,0,0,1,541.387,120.911)">
                <path d="M0,-2.486C0,-2.212 -0.222,-1.989 -0.496,-1.989C-0.771,-1.989 -0.992,-2.212 -0.992,-2.486C-0.992,-4.238 -0.646,-5.394 -0.088,-6.08C0.363,-6.635 0.94,-6.89 1.584,-6.905C2.175,-6.918 2.812,-6.719 3.443,-6.361C4.916,-5.527 6.431,-3.78 7.256,-1.889C7.772,-0.71 8.196,0.539 8.309,1.244C8.346,1.479 8.353,1.676 8.323,1.823L8.317,1.85C8.23,2.24 8,2.415 7.601,2.329C7.445,2.296 7.276,2.193 7.097,2.013C6.425,1.337 5.618,1.058 4.98,1.122C4.75,1.145 4.547,1.215 4.393,1.326C4.253,1.426 4.15,1.565 4.098,1.742C3.973,2.159 4.108,2.78 4.654,3.594C4.807,3.821 4.746,4.128 4.519,4.28C4.292,4.432 3.984,4.372 3.833,4.145C3.101,3.054 2.945,2.139 3.147,1.459C3.266,1.064 3.5,0.75 3.814,0.524C4.113,0.309 4.48,0.179 4.883,0.138C5.593,0.066 6.434,0.278 7.196,0.807C7.019,0.17 6.708,-0.674 6.35,-1.494C5.604,-3.198 4.257,-4.763 2.955,-5.5C2.473,-5.773 2.009,-5.926 1.604,-5.916C1.25,-5.908 0.932,-5.766 0.68,-5.456C0.261,-4.941 0,-3.992 0,-2.486" style="fill:rgb(214,127,84);"/>
            </g>
        </g>
        <g transform="matrix(4.16667,0,0,4.16667,0,0)">
            <g transform="matrix(1,0,0,1,602.548,99.3717)">
                <path d="M0,4.349C0.067,5.029 -0.43,5.635 -1.109,5.702C-1.789,5.769 -2.395,5.272 -2.462,4.592C-2.526,3.951 -2.477,3.302 -2.308,2.677C-2.143,2.066 -1.867,1.475 -1.476,0.935C-0.612,-0.256 0.656,-0.987 2.01,-1.204C3.356,-1.42 4.788,-1.123 5.982,-0.261C6.745,0.289 7.319,1.004 7.692,1.8C8.079,2.624 8.249,3.533 8.188,4.432C8.142,5.114 7.552,5.63 6.869,5.584C6.187,5.539 5.67,4.949 5.716,4.266C5.75,3.775 5.659,3.285 5.453,2.846C5.255,2.422 4.947,2.04 4.538,1.745C3.896,1.282 3.124,1.121 2.397,1.239C1.675,1.354 0.995,1.747 0.531,2.389C0.321,2.678 0.174,2.993 0.086,3.316C-0.006,3.659 -0.034,4.01 0,4.349" style="fill:rgb(57,39,31);"/>
            </g>
        </g>
        <g transform="matrix(4.16667,0,0,4.16667,0,0)">
            <g transform="matrix(0.986371,-0.164538,-0.164538,-0.986371,625.717,70.7338)">
                <path d="M-2.922,0.889C-10.5,5.772 -11.46,10.035 -12.889,15.01C-15.68,24.717 -11.784,34.234 -2.922,36C14.253,39.425 25.191,21.619 20.989,9.415C18.017,0.783 6.995,-5.501 -2.922,0.889" style="fill:rgb(46,30,17);"/>
            </g>
        </g>
        <g transform="matrix(4.16667,0,0,4.16667,0,0)">
            <g transform="matrix(0.986371,0.164538,0.164538,-0.986371,549.212,70.7339)">
                <path d="M2.922,0.889C10.499,5.772 11.46,10.035 12.889,15.01C15.679,24.717 11.784,34.234 2.922,36C-14.253,39.425 -25.191,21.619 -20.99,9.415C-18.017,0.783 -6.996,-5.502 2.922,0.889" style="fill:rgb(46,30,17);"/>
            </g>
        </g>
        <g transform="matrix(4.16667,0,0,4.16667,0,0)">
            <g transform="matrix(1,0,0,1,548.373,42.394)">
                <path d="M0,77.983C1.808,76.132 -1.433,66.812 1.072,53.913C3.576,41.015 34.032,25.387 39.004,18.346C43.976,25.387 74.43,41.015 76.935,53.913C79.438,66.812 78.036,69.829 79.846,71.681C81.233,73.101 99.219,-0.201 39.004,0.325C-26.062,0.325 -0.196,78.184 0,77.983" style="fill:rgb(78,56,50);"/>
            </g>
        </g>
        <g transform="matrix(4.16667,0,0,4.16667,0,0)">
            <g transform="matrix(1,0,0,1,587.25,169.227)">
                <path d="M0,-109.867C1.992,-97.768 -22.884,-91.236 -27.964,-58.951C-32.498,-30.136 -24.469,-1.595 -24.469,-1.595C-24.077,0 -25.925,-0.784 -27.655,-4.392C-30.278,-9.856 -45.929,-39.339 -40.327,-66.284C-34.724,-93.228 -13.198,-105.618 0,-109.867" style="fill:rgb(241,211,164);"/>
            </g>
        </g>
        <g transform="matrix(4.16667,0,0,4.16667,0,0)">
            <g transform="matrix(1,0,0,1,587.477,169.227)">
                <path d="M0,-109.867C-1.992,-97.768 22.883,-91.236 27.964,-58.951C32.497,-30.136 24.469,-1.595 24.469,-1.595C24.077,0 25.924,-0.784 27.655,-4.392C30.277,-9.856 45.929,-39.339 40.326,-66.284C34.724,-93.228 13.197,-105.618 0,-109.867" style="fill:rgb(241,211,164);"/>
            </g>
        </g>
        <g transform="matrix(4.16667,0,0,4.16667,0,0)">
            <g transform="matrix(-0.173962,-0.984752,-0.984752,0.173962,576.543,148.491)">
                <path d="M-15.679,-28.012C-20.583,-16.726 -17.917,2.203 -8.601,10.528C-11.349,11.656 -13.677,12.941 -15.679,14.348C-25.45,3.632 -28.349,-15.659 -23.483,-29.21C-21.161,-28.571 -18.585,-28.152 -15.679,-28.012" style="fill:rgb(53,37,61);"/>
            </g>
        </g>
        <g transform="matrix(4.16667,0,0,4.16667,0,0)">
            <g transform="matrix(1,0,0,1,515.916,188.295)">
                <path d="M0,44.127L142.896,44.127C142.896,17.273 134.383,6.946 124.163,0.646C95.353,35.565 48.296,35.349 19.71,0C9.071,6.245 0,16.337 0,44.127" style="fill:rgb(53,37,61);"/>
            </g>
        </g>
        <g transform="matrix(4.16667,0,0,4.16667,0,0)">
            <g transform="matrix(1,0,0,1,535.601,232.427)">
                <path d="M0,-20.55C0.003,-20.959 0.338,-21.289 0.747,-21.286C1.157,-21.283 1.485,-20.948 1.483,-20.539L1.301,0C1.297,0.41 0.963,0.739 0.553,0.736C0.144,0.733 -0.187,0.398 -0.183,-0.011L0,-20.55Z" style="fill:rgb(35,20,43);"/>
            </g>
        </g>
        <g transform="matrix(4.16667,0,0,4.16667,0,0)">
            <g transform="matrix(1,0,0,1,637.826,232.427)">
                <path d="M0,-20.55C0.003,-20.959 0.338,-21.289 0.747,-21.286C1.157,-21.283 1.486,-20.948 1.483,-20.539L1.301,0C1.297,0.41 0.963,0.739 0.553,0.736C0.144,0.733 -0.186,0.398 -0.183,-0.011L0,-20.55Z" style="fill:rgb(35,20,43);"/>
            </g>
        </g>
        <g transform="matrix(4.16667,0,0,4.16667,0,0)">
            <g transform="matrix(1,0,0,1,559.926,67.5578)">
                <path d="M0,88.765C0.118,89.011 0.016,89.307 -0.23,89.426C-0.477,89.544 -0.772,89.442 -0.892,89.196C-8.513,73.478 -10.356,55.391 -6.402,38.872C-2.641,23.159 6.366,8.863 20.632,-0.628C20.859,-0.779 21.167,-0.716 21.317,-0.488C21.469,-0.261 21.407,0.047 21.179,0.198C7.133,9.541 -1.735,23.622 -5.44,39.102C-9.342,55.402 -7.522,73.252 0,88.765" style="fill:rgb(221,186,138);"/>
            </g>
        </g>
        <g transform="matrix(4.16667,0,0,4.16667,0,0)">
            <g transform="matrix(1,0,0,1,615.692,67.1274)">
                <path d="M0,89.626C-0.118,89.872 -0.414,89.975 -0.66,89.856C-0.906,89.737 -1.01,89.441 -0.892,89.195C6.632,73.682 8.451,55.832 4.55,39.532C0.844,24.053 -8.024,9.972 -22.069,0.628C-22.298,0.477 -22.36,0.169 -22.209,-0.058C-22.059,-0.286 -21.751,-0.349 -21.523,-0.198C-7.257,9.293 1.75,23.589 5.511,39.303C9.465,55.821 7.622,73.909 0,89.626" style="fill:rgb(221,186,138);"/>
            </g>
        </g>
    </g>
</svg>
