<?xml version="1.0" encoding="UTF-8" standalone="no"?>
<!DOCTYPE svg PUBLIC "-//W3C//DTD SVG 1.1//EN" "http://www.w3.org/Graphics/SVG/1.1/DTD/svg11.dtd">
<svg width="100%" height="100%" viewBox="0 0 719 832" version="1.1" xmlns="http://www.w3.org/2000/svg" xmlns:xlink="http://www.w3.org/1999/xlink" xml:space="preserve" xmlns:serif="http://www.serif.com/" style="fill-rule:evenodd;clip-rule:evenodd;stroke-linejoin:round;stroke-miterlimit:2;">
    <g transform="matrix(1,0,0,1,-1203.24,-139.869)">
        <g transform="matrix(4.16667,0,0,4.16667,0,0)">
            <g transform="matrix(1,0,0,1,318.118,225.203)">
                <path d="M0,-172.448L113.764,-172.448C129.903,-172.448 143.107,-159.244 143.107,-143.106L143.107,-29.342C143.107,-13.204 129.903,0 113.764,0L0,0C-16.139,0 -29.341,-13.204 -29.341,-29.342L-29.341,-143.106C-29.341,-159.244 -16.139,-172.448 0,-172.448" style="fill:rgb(225,162,31);"/>
            </g>
        </g>
        <g transform="matrix(4.16667,0,0,4.16667,0,0)">
            <g transform="matrix(1,0,0,1,381.886,160.615)">
                <path d="M0,-56.15L7.322,6.234C27.632,7.091 23.882,-4.328 31.561,-5.075C39.238,-5.82 51.005,-3.96 56.591,-20.734C52.013,-22.759 42.544,-29.054 42.855,-35.438C43.151,-41.505 45.634,-46.251 47.829,-56.085L35.851,-60.958L0,-56.15ZM-61.849,-57.726C-59.752,-46.711 -56.908,-41.505 -56.613,-35.438C-56.301,-29.054 -65.77,-22.759 -70.348,-20.734C-64.762,-3.96 -52.996,-5.82 -45.318,-5.075C-37.64,-4.328 -41.389,7.091 -21.079,6.234L-11.395,-63.241L-61.849,-57.726Z" style="fill:rgb(46,30,17);"/>
            </g>
        </g>
        <g transform="matrix(4.16667,0,0,4.16667,0,0)">
            <g transform="matrix(-0.999812,0.0194133,0.0194133,0.999812,332.097,125.809)">
                <path d="M-4.107,-14.278C-3.971,-16.179 3.747,-18.571 6.455,-12.413C9.163,-6.254 4.676,2.633 -4.107,3.493C-12.89,4.354 -10.332,2.751 -10.332,2.751L-4.107,-14.278Z" style="fill:rgb(228,174,124);"/>
            </g>
        </g>
        <g transform="matrix(4.16667,0,0,4.16667,0,0)">
            <g transform="matrix(-0.99981,-0.0194695,-0.0194695,0.99981,418.087,125.809)">
                <path d="M4.104,-14.278C3.968,-16.179 -3.749,-18.572 -6.456,-12.413C-9.164,-6.255 -4.679,2.632 4.104,3.493C12.887,4.354 10.33,2.751 10.33,2.751L4.104,-14.278Z" style="fill:rgb(228,174,124);"/>
            </g>
        </g>
        <g transform="matrix(4.16667,0,0,4.16667,0,0)">
            <g transform="matrix(1,0,0,1,374.999,143.926)">
                <path d="M70.984,88.496L-70.984,88.496C-71.805,52.198 -43.878,31.126 -19.897,23.264C-17.953,13.136 -18.449,0 -18.449,0L18.45,0C18.45,0 17.953,13.136 19.898,23.264C43.878,31.126 71.806,52.198 70.984,88.496Z" style="fill:rgb(228,174,124);"/>
            </g>
        </g>
        <g transform="matrix(4.16667,0,0,4.16667,0,0)">
            <g transform="matrix(-0.189522,-0.981877,-0.981877,0.189522,358.752,141.259)">
                <path d="M-9.195,-33.564C-9.195,-33.564 -11.733,-32.973 -15.458,-32.317C-31.418,-22.099 -29.239,-0.359 -9.195,3.994C-5.113,3.116 -2.202,2.667 -2.202,2.667L-9.195,-33.564Z" style="fill:rgb(214,127,84);"/>
            </g>
        </g>
        <g transform="matrix(4.16667,0,0,4.16667,0,0)">
            <g transform="matrix(0.565826,-0.824525,-0.824525,-0.565826,443.329,157.788)">
                <path d="M-58.666,-46.415C-28.634,-26.824 -27.255,8.268 -34.495,33.116C-46.284,30.996 -64.927,58.251 -58.666,68.452C-79.235,84.211 -112.574,95.663 -141.734,74.633L-58.666,-46.415Z" style="fill:rgb(175,42,58);"/>
            </g>
        </g>
        <g transform="matrix(4.16667,0,0,4.16667,0,0)">
            <g transform="matrix(0.136635,-0.990621,-0.990621,-0.136635,394.356,140.278)">
                <path d="M-72.075,-63.631C-65.266,-61.475 -59.303,-58.237 -54.122,-54.241L-72.075,75.915C-78.143,78.358 -84.76,79.861 -91.898,80.093L-72.075,-63.631Z" style="fill:rgb(57,39,31);"/>
            </g>
        </g>
        <g transform="matrix(4.16667,0,0,4.16667,0,0)">
            <g transform="matrix(0.205914,-0.97857,-0.97857,-0.205914,392.35,128.338)">
                <path d="M-46.212,-42.139C-41.299,-32.383 -38.535,-21.819 -37.459,-12.128C-49.158,-9.56 -55.91,22.764 -46.212,29.78C-51.109,38.274 -57.933,46.9 -66.42,53.898L-46.212,-42.139Z" style="fill:rgb(57,39,31);"/>
            </g>
        </g>
        <g transform="matrix(4.16667,0,0,4.16667,0,0)">
            <g transform="matrix(1,0,0,1,374.999,42.6038)">
                <path d="M0,110.677C-45.773,111.777 -68.883,-1.1 0,1.792C68.884,-1.1 45.774,111.777 0,110.677" style="fill:rgb(228,174,124);"/>
            </g>
        </g>
        <g transform="matrix(4.16667,0,0,4.16667,0,0)">
            <g transform="matrix(-0.809726,-0.586808,-0.586808,0.809726,353.319,103.398)">
                <path d="M-2.406,-7.42C-4.671,-7.425 -6.509,-5.593 -6.508,-3.329C-6.509,-1.065 -4.672,0.775 -2.406,0.78C-0.141,0.785 1.697,-1.047 1.697,-3.312C1.698,-5.576 -0.14,-7.416 -2.406,-7.42" style="fill:rgb(32,32,30);"/>
            </g>
        </g>
        <g transform="matrix(4.16667,0,0,4.16667,0,0)">
            <g transform="matrix(-0.809784,0.586728,0.586728,0.809784,396.935,103.398)">
                <path d="M2.405,-7.42C4.671,-7.425 6.509,-5.593 6.508,-3.329C6.509,-1.065 4.671,0.776 2.405,0.78C0.14,0.785 -1.698,-1.047 -1.697,-3.313C-1.698,-5.577 0.14,-7.416 2.405,-7.42" style="fill:rgb(32,32,30);"/>
            </g>
        </g>
        <g transform="matrix(4.16667,0,0,4.16667,0,0)">
            <g transform="matrix(-0.547613,-0.836732,-0.836732,0.547613,346.179,114.388)">
                <path d="M-4.002,-7.404C-6.782,-8.376 -9.036,-7.023 -9.037,-4.381C-9.036,-1.739 -6.782,1.191 -4.002,2.163C-1.221,3.136 1.031,1.783 1.032,-0.859C1.031,-3.501 -1.222,-6.43 -4.002,-7.404" style="fill:rgb(218,144,119);"/>
            </g>
        </g>
        <g transform="matrix(4.16667,0,0,4.16667,0,0)">
            <g transform="matrix(-0.547613,0.836732,0.836732,0.547613,404.076,114.388)">
                <path d="M4.002,-7.404C6.782,-8.376 9.036,-7.023 9.037,-4.381C9.037,-1.74 6.782,1.191 4.002,2.163C1.221,3.136 -1.031,1.783 -1.032,-0.859C-1.031,-3.501 1.222,-6.43 4.002,-7.404" style="fill:rgb(218,144,119);"/>
            </g>
        </g>
        <g transform="matrix(4.16667,0,0,4.16667,0,0)">
            <g transform="matrix(1,0,0,1,361.414,91.598)">
                <path d="M0,-3.93C-0.152,-3.996 -0.305,-4.059 -0.462,-4.118C-2.25,-4.763 -3.767,-4.938 -5.699,-4.799C-7.592,-4.597 -9.004,-4.171 -10.59,-3.265C-11.331,-2.788 -14.22,-0.449 -13.401,0.414C-13.067,0.506 -10.188,-0.964 -9.343,-1.239C-8.027,-1.627 -6.96,-1.776 -5.567,-1.747C-4.268,-1.688 -3.29,-1.499 -2.106,-1.042C-2.074,-1.037 -1.86,-0.94 -1.815,-0.92C0.601,0.254 0.381,1.008 2.027,-0.121C4.563,-1.471 1.954,-2.914 0,-3.93" style="fill:rgb(63,39,22);"/>
            </g>
        </g>
        <g transform="matrix(4.16667,0,0,4.16667,0,0)">
            <g transform="matrix(1,0,0,1,388.587,91.598)">
                <path d="M0,-3.93C0.151,-3.996 0.305,-4.059 0.461,-4.118C2.249,-4.763 3.767,-4.938 5.698,-4.799C7.591,-4.597 9.004,-4.171 10.59,-3.265C11.33,-2.788 14.22,-0.449 13.4,0.414C13.066,0.506 10.188,-0.964 9.342,-1.239C8.026,-1.627 6.96,-1.776 5.566,-1.747C4.268,-1.688 3.289,-1.499 2.104,-1.042C2.073,-1.037 1.859,-0.94 1.813,-0.92C-0.601,0.254 -0.383,1.008 -2.028,-0.121C-4.564,-1.471 -1.955,-2.914 0,-3.93" style="fill:rgb(63,39,22);"/>
            </g>
        </g>
        <g transform="matrix(4.16667,0,0,4.16667,0,0)">
            <g transform="matrix(1,0,0,1,363.126,132.164)">
                <path d="M0,-8.904C4.219,-8.957 8.422,-8.983 12.624,-8.983C16.828,-8.983 21.03,-8.957 25.249,-8.904C25.249,-2.285 18.721,0.079 12.647,0.079L12.624,0.078L12.602,0.079C6.528,0.079 0,-2.285 0,-8.904" style="fill:white;"/>
            </g>
        </g>
        <g transform="matrix(4.16667,0,0,4.16667,0,0)">
            <g transform="matrix(1,0,0,1,372.848,135.934)">
                <path d="M0,0.253C-0.235,0.115 -0.314,-0.189 -0.176,-0.424C-0.038,-0.66 0.266,-0.739 0.5,-0.601C1.183,-0.201 2.052,-0 2.923,-0C3.791,-0 4.645,-0.199 5.299,-0.597C5.533,-0.737 5.836,-0.664 5.978,-0.43C6.12,-0.197 6.044,0.108 5.811,0.249C4.995,0.744 3.958,0.992 2.923,0.992C1.889,0.992 0.841,0.745 0,0.253" style="fill:rgb(214,127,84);"/>
            </g>
        </g>
        <g transform="matrix(4.16667,0,0,4.16667,0,0)">
            <g transform="matrix(1,0,0,1,374.626,101.24)">
                <path d="M0,12.937C-0.274,12.937 -0.497,12.714 -0.497,12.441C-0.497,12.167 -0.274,11.944 0,11.944C1.191,11.944 2.614,11.934 3.713,11.748C4.616,11.594 5.281,11.35 5.281,10.937C5.281,9.51 3.834,0.635 3.831,0.609C3.788,0.339 3.972,0.086 4.242,0.043C4.512,0 4.765,0.185 4.807,0.454C4.811,0.48 6.274,9.448 6.274,10.937C6.274,11.983 5.257,12.49 3.876,12.724C2.69,12.925 1.225,12.937 0,12.937" style="fill:rgb(214,127,84);"/>
            </g>
        </g>
        <g transform="matrix(4.16667,0,0,4.16667,0,0)">
            <g transform="matrix(1,0,0,1,421.969,120.911)">
                <path d="M0,-2.486C0,-2.212 -0.222,-1.989 -0.496,-1.989C-0.77,-1.989 -0.992,-2.212 -0.992,-2.486C-0.992,-3.992 -1.253,-4.941 -1.672,-5.456C-1.924,-5.766 -2.241,-5.908 -2.595,-5.916C-3.001,-5.926 -3.465,-5.773 -3.946,-5.5C-5.249,-4.763 -6.597,-3.198 -7.342,-1.494C-7.7,-0.674 -8.011,0.17 -8.188,0.807C-7.426,0.278 -6.585,0.066 -5.876,0.138C-5.472,0.179 -5.104,0.309 -4.807,0.524C-4.491,0.75 -4.258,1.064 -4.14,1.459C-3.937,2.139 -4.094,3.054 -4.824,4.145C-4.977,4.372 -5.283,4.432 -5.511,4.28C-5.737,4.128 -5.799,3.821 -5.646,3.594C-5.101,2.78 -4.965,2.159 -5.089,1.742C-5.143,1.565 -5.246,1.426 -5.385,1.326C-5.539,1.215 -5.741,1.145 -5.973,1.122C-6.61,1.058 -7.417,1.337 -8.089,2.013C-8.269,2.193 -8.438,2.296 -8.593,2.329C-8.991,2.415 -9.223,2.24 -9.309,1.85L-9.315,1.823C-9.344,1.676 -9.337,1.479 -9.301,1.244C-9.188,0.539 -8.765,-0.71 -8.249,-1.889C-7.422,-3.78 -5.907,-5.527 -4.436,-6.361C-3.804,-6.719 -3.167,-6.918 -2.575,-6.905C-1.932,-6.89 -1.355,-6.635 -0.903,-6.08C-0.347,-5.394 0,-4.238 0,-2.486" style="fill:rgb(214,127,84);"/>
            </g>
        </g>
        <g transform="matrix(4.16667,0,0,4.16667,0,0)">
            <g transform="matrix(1,0,0,1,329.023,120.911)">
                <path d="M0,-2.486C0,-2.212 -0.222,-1.989 -0.497,-1.989C-0.77,-1.989 -0.993,-2.212 -0.993,-2.486C-0.993,-4.238 -0.646,-5.394 -0.088,-6.08C0.363,-6.635 0.939,-6.89 1.583,-6.905C2.175,-6.918 2.811,-6.719 3.442,-6.361C4.916,-5.527 6.43,-3.78 7.256,-1.889C7.772,-0.71 8.197,0.539 8.308,1.244C8.346,1.479 8.353,1.676 8.322,1.823L8.317,1.85C8.23,2.24 7.999,2.415 7.601,2.329C7.445,2.296 7.276,2.193 7.096,2.013C6.424,1.337 5.617,1.058 4.98,1.122C4.75,1.145 4.547,1.215 4.392,1.326C4.253,1.426 4.149,1.565 4.098,1.742C3.973,2.159 4.108,2.78 4.654,3.594C4.806,3.821 4.746,4.128 4.519,4.28C4.292,4.432 3.984,4.372 3.832,4.145C3.101,3.054 2.944,2.139 3.147,1.459C3.265,1.064 3.499,0.75 3.814,0.524C4.113,0.309 4.48,0.179 4.883,0.138C5.593,0.066 6.434,0.278 7.195,0.807C7.018,0.17 6.708,-0.674 6.349,-1.494C5.604,-3.198 4.256,-4.763 2.954,-5.5C2.473,-5.773 2.009,-5.926 1.603,-5.916C1.25,-5.908 0.931,-5.766 0.68,-5.456C0.26,-4.941 0,-3.992 0,-2.486" style="fill:rgb(214,127,84);"/>
            </g>
        </g>
        <g transform="matrix(4.16667,0,0,4.16667,0,0)">
            <g transform="matrix(1,0,0,1,323.236,232.427)">
                <path d="M0,-20.55C0.003,-20.959 0.338,-21.289 0.748,-21.286C1.157,-21.283 1.487,-20.948 1.483,-20.539L1.301,0C1.298,0.41 0.963,0.739 0.554,0.736C0.144,0.733 -0.185,0.398 -0.182,-0.011L0,-20.55Z" style="fill:rgb(39,23,12);"/>
            </g>
        </g>
        <g transform="matrix(4.16667,0,0,4.16667,0,0)">
            <g transform="matrix(1,0,0,1,425.463,232.427)">
                <path d="M0,-20.55C0.003,-20.959 0.338,-21.289 0.747,-21.286C1.156,-21.283 1.486,-20.948 1.483,-20.539L1.3,0C1.297,0.41 0.962,0.739 0.554,0.736C0.144,0.733 -0.186,0.398 -0.183,-0.011L0,-20.55Z" style="fill:rgb(39,23,12);"/>
            </g>
        </g>
        <g transform="matrix(4.16667,0,0,4.16667,0,0)">
            <g transform="matrix(1,0,0,1,331.404,102.232)">
                <path d="M0,-1.181C0.657,5.384 6.434,15.363 7.616,18.252C8.797,21.14 7.747,8.929 7.747,-6.696C7.747,-22.321 0,-1.181 0,-1.181" style="fill:rgb(126,88,62);"/>
            </g>
        </g>
        <g transform="matrix(4.16667,0,0,4.16667,0,0)">
            <g transform="matrix(1,0,0,1,418.794,102.232)">
                <path d="M0,-1.181C-0.656,5.384 -6.434,15.363 -7.615,18.252C-8.798,21.14 -7.747,8.929 -7.747,-6.696C-7.747,-22.321 0,-1.181 0,-1.181" style="fill:rgb(126,88,62);"/>
            </g>
        </g>
        <g transform="matrix(4.16667,0,0,4.16667,0,0)">
            <g transform="matrix(1,0,0,1,368.629,90.3065)">
                <path d="M0,-32.889C-5.496,-32.892 -10.715,-22.577 -11.182,-13.961C-12.839,16.609 -42.211,6.094 -45.468,25.088C-46.66,21.543 -49.648,9.594 -49.967,8.095C-52.35,-3.112 -37.563,-15.985 -34.784,-27.962C-31.951,-40.175 -24.937,-49.663 -16.25,-53.928C-8.66,-57.654 -0.159,-57.505 3.915,-52.94C5.178,-51.93 6.37,-50.739 6.37,-50.739C6.37,-50.739 7.406,-51.772 8.568,-52.73C12.556,-57.712 21.354,-57.977 29.251,-53.929C37.763,-49.566 44.749,-39.93 47.525,-27.962C50.303,-15.985 65.091,-3.112 62.708,8.095C62.389,9.594 59.4,21.543 58.209,25.088C54.954,6.094 28.638,15.551 25.416,-14.893C24.297,-25.458 19.47,-30.624 14.798,-31.503C14.27,-31.602 10.405,-32.794 6.82,-27.187C5.921,-25.781 5.314,-32.886 0,-32.889" style="fill:rgb(76,49,36);"/>
            </g>
        </g>
        <g transform="matrix(4.16667,0,0,4.16667,0,0)">
            <g transform="matrix(1,0,0,1,324.395,49.6009)">
                <path d="M0,56.883C-0.154,57.109 -0.462,57.166 -0.688,57.012C-0.914,56.858 -0.972,56.55 -0.818,56.324C-0.446,55.78 -0.077,55.216 0.286,54.661C3.126,50.318 5.523,46.654 15.486,44.045C24.885,41.583 26.627,29.63 28.145,19.209C28.352,17.792 28.554,16.402 28.777,15.032C29.12,12.921 29.7,11.023 30.447,9.342C31.939,5.984 34.099,3.506 36.387,1.946C38.713,0.361 41.188,-0.283 43.254,0.053C43.759,0.135 44.243,0.278 44.696,0.479L49.423,2.58C49.672,2.691 49.785,2.982 49.675,3.232C49.565,3.481 49.273,3.594 49.023,3.484L44.297,1.383C43.925,1.217 43.522,1.1 43.096,1.031C41.273,0.734 39.06,1.324 36.946,2.764C34.794,4.231 32.76,6.568 31.351,9.741C30.639,11.344 30.084,13.162 29.753,15.192C29.54,16.506 29.335,17.913 29.126,19.348C27.564,30.072 25.771,42.374 15.734,45.002C6.146,47.513 3.845,51.032 1.116,55.204C0.765,55.742 0.405,56.291 0,56.883" style="fill:rgb(78,44,11);"/>
            </g>
        </g>
        <g transform="matrix(4.16667,0,0,4.16667,0,0)">
            <g transform="matrix(1,0,0,1,323.665,41.3754)">
                <path d="M0,51.651C-0.111,51.901 -0.403,52.015 -0.654,51.906C-0.904,51.795 -1.018,51.502 -0.907,51.252C0.207,48.733 1.617,47.01 3.377,45.75L3.376,45.75C5.12,44.502 7.191,43.723 9.651,43.079C19.05,40.618 20.792,28.664 22.311,18.243C22.517,16.826 22.719,15.436 22.942,14.067C23.257,12.136 23.796,10.369 24.529,8.789C26.005,5.602 28.264,3.171 31.041,1.678C33.818,0.186 37.106,-0.364 40.642,0.211C42.368,0.492 44.151,1.041 45.96,1.88C46.208,1.994 46.317,2.288 46.202,2.536C46.087,2.785 45.793,2.893 45.545,2.778C43.817,1.978 42.12,1.454 40.483,1.188C37.171,0.649 34.098,1.16 31.51,2.551C28.922,3.942 26.812,6.216 25.427,9.204C24.732,10.705 24.218,12.386 23.919,14.226C23.706,15.54 23.5,16.948 23.291,18.382C21.729,29.106 19.936,41.408 9.899,44.036C7.554,44.651 5.587,45.387 3.954,46.555L3.952,46.555C2.337,47.712 1.037,49.306 0,51.651" style="fill:rgb(78,44,11);"/>
            </g>
        </g>
        <g transform="matrix(4.16667,0,0,4.16667,0,0)">
            <g transform="matrix(1,0,0,1,428.124,50.1598)">
                <path d="M0,55.765C0.154,55.991 0.096,56.299 -0.13,56.453C-0.355,56.607 -0.664,56.55 -0.818,56.324C-1.223,55.732 -1.581,55.183 -1.934,54.645C-4.661,50.473 -6.964,46.954 -16.552,44.443C-26.589,41.815 -28.382,29.513 -29.944,18.789C-30.152,17.354 -30.357,15.947 -30.572,14.633C-30.902,12.603 -31.455,10.785 -32.168,9.182C-33.578,6.009 -35.612,3.672 -37.764,2.205C-39.877,0.765 -42.091,0.175 -43.913,0.472C-44.34,0.541 -44.743,0.659 -45.115,0.824L-49.842,2.925C-50.091,3.035 -50.383,2.922 -50.493,2.673C-50.604,2.423 -50.49,2.132 -50.241,2.021L-45.515,-0.08C-45.061,-0.281 -44.577,-0.423 -44.072,-0.506C-42.006,-0.842 -39.532,-0.198 -37.205,1.388C-34.917,2.947 -32.757,5.425 -31.265,8.783C-30.518,10.464 -29.938,12.362 -29.595,14.473C-29.372,15.843 -29.169,17.233 -28.963,18.65C-27.445,29.071 -25.703,41.024 -16.304,43.486C-6.341,46.095 -3.944,49.759 -1.104,54.102C-0.741,54.657 -0.371,55.222 0,55.765" style="fill:rgb(78,44,11);"/>
            </g>
        </g>
        <g transform="matrix(4.16667,0,0,4.16667,0,0)">
            <g transform="matrix(1,0,0,1,428.944,41.7744)">
                <path d="M0,50.853C0.109,51.103 -0.004,51.396 -0.254,51.507C-0.505,51.616 -0.797,51.502 -0.907,51.252C-1.943,48.909 -3.245,47.314 -4.861,46.156L-4.886,46.138C-6.513,44.981 -8.473,44.249 -10.807,43.637C-20.844,41.009 -22.637,28.707 -24.199,17.983C-24.408,16.549 -24.613,15.141 -24.827,13.827C-25.127,11.987 -25.64,10.306 -26.336,8.805C-27.72,5.817 -29.829,3.543 -32.418,2.152C-35.006,0.761 -38.079,0.249 -41.391,0.789C-43.027,1.055 -44.725,1.579 -46.452,2.379C-46.701,2.494 -46.995,2.386 -47.11,2.137C-47.225,1.889 -47.115,1.595 -46.867,1.48C-45.059,0.642 -43.275,0.093 -41.55,-0.189C-38.015,-0.763 -34.726,-0.213 -31.949,1.279C-29.172,2.771 -26.913,5.203 -25.436,8.39C-24.704,9.97 -24.164,11.737 -23.85,13.667C-23.627,15.037 -23.425,16.427 -23.219,17.844C-21.7,28.265 -19.958,40.219 -10.559,42.68C-8.113,43.321 -6.051,44.093 -4.313,45.331L-4.283,45.351C-2.524,46.609 -1.114,48.332 0,50.853" style="fill:rgb(78,44,11);"/>
            </g>
        </g>
    </g>
</svg>
