<?xml version="1.0" encoding="UTF-8" standalone="no"?>
<!DOCTYPE svg PUBLIC "-//W3C//DTD SVG 1.1//EN" "http://www.w3.org/Graphics/SVG/1.1/DTD/svg11.dtd">
<svg width="100%" height="100%" viewBox="0 0 719 889" version="1.1" xmlns="http://www.w3.org/2000/svg" xmlns:xlink="http://www.w3.org/1999/xlink" xml:space="preserve" xmlns:serif="http://www.serif.com/" style="fill-rule:evenodd;clip-rule:evenodd;stroke-linejoin:round;stroke-miterlimit:2;">
    <g transform="matrix(1,0,0,1,-1203.24,-1068.58)">
        <g transform="matrix(4.16667,0,0,4.16667,0,0)">
            <g transform="matrix(1,0,0,1,318.118,461.638)">
                <path d="M0,-172.447L113.764,-172.447C129.903,-172.447 143.107,-159.243 143.107,-143.105L143.107,-29.341C143.107,-13.203 129.903,0 113.764,0L0,0C-16.139,0 -29.341,-13.203 -29.341,-29.341L-29.341,-143.105C-29.341,-159.243 -16.139,-172.447 0,-172.447" style="fill:rgb(153,118,174);"/>
            </g>
        </g>
        <g transform="matrix(4.16667,0,0,4.16667,0,0)">
            <g transform="matrix(1,0,0,1,371.063,379.786)">
                <path d="M0,-96.313C0,-96.313 17.426,-96.416 12.867,-111.544C7.09,-130.714 -28.361,-125.988 -29.412,-101.04C-30.462,-76.092 -35.452,-65.325 -41.492,-57.184C-47.532,-49.043 -61.187,-32.5 -49.632,-2.563C-38.078,27.375 -54.885,32.101 -54.885,32.101C-52.142,31.852 -44.899,34.401 -40.388,33.492C-28.091,31.01 -8.461,22.294 -8.666,16.083C-9.55,-10.69 13.918,-25.409 0,-96.313" style="fill:rgb(58,33,0);"/>
            </g>
        </g>
        <g transform="matrix(4.16667,0,0,4.16667,0,0)">
            <g transform="matrix(1,0,0,1,374.563,265.034)">
                <path d="M0,25.849C8.13,25.849 14.761,20.043 14.761,12.925C14.761,5.806 8.13,0 0,0C-8.13,0 -14.761,5.806 -14.761,12.925C-14.761,20.043 -8.13,25.849 0,25.849" style="fill:rgb(187,73,92);"/>
            </g>
        </g>
        <g transform="matrix(4.16667,0,0,4.16667,0,0)">
            <g transform="matrix(-0.999812,0.0194122,0.0194122,0.999812,332.097,362.245)">
                <path d="M-4.107,-14.278C-3.971,-16.177 3.747,-18.571 6.455,-12.413C9.163,-6.254 4.676,2.633 -4.107,3.494C-12.89,4.354 -10.332,2.751 -10.332,2.751L-4.107,-14.278Z" style="fill:rgb(228,174,124);"/>
            </g>
        </g>
        <g transform="matrix(4.16667,0,0,4.16667,0,0)">
            <g transform="matrix(-0.99981,-0.0194684,-0.0194684,0.99981,418.087,362.245)">
                <path d="M4.104,-14.278C3.968,-16.177 -3.749,-18.572 -6.456,-12.413C-9.164,-6.255 -4.679,2.632 4.104,3.494C12.887,4.354 10.33,2.751 10.33,2.751L4.104,-14.278Z" style="fill:rgb(228,174,124);"/>
            </g>
        </g>
        <g transform="matrix(4.16667,0,0,4.16667,0,0)">
            <g transform="matrix(1,0,0,1,374.999,380.363)">
                <path d="M70.984,88.494L-70.984,88.494C-71.805,52.197 -43.878,31.125 -19.897,23.262C-17.953,13.135 -18.449,0 -18.449,0L18.45,0C18.45,0 17.953,13.135 19.898,23.262C43.878,31.125 71.806,52.197 70.984,88.494Z" style="fill:rgb(228,174,124);"/>
            </g>
        </g>
        <g transform="matrix(4.16667,0,0,4.16667,0,0)">
            <g transform="matrix(-0.189496,-0.981881,-0.981881,0.189496,358.752,377.696)">
                <path d="M-9.195,-33.564C-9.195,-33.564 -11.733,-32.973 -15.458,-32.317C-31.417,-22.1 -29.24,-0.36 -9.195,3.994C-5.113,3.116 -2.202,2.668 -2.202,2.668L-9.195,-33.564Z" style="fill:rgb(214,127,84);"/>
            </g>
        </g>
        <g transform="matrix(4.16667,0,0,4.16667,0,0)">
            <g transform="matrix(0.56582,-0.824529,-0.824529,-0.56582,443.328,394.223)">
                <path d="M-58.666,-46.415C-28.635,-26.825 -27.256,8.267 -34.495,33.116C-59.315,28.651 -71.546,47.469 -58.666,68.451C-79.234,84.211 -112.574,95.663 -141.733,74.633L-58.666,-46.415Z" style="fill:rgb(187,73,92);"/>
            </g>
        </g>
        <g transform="matrix(4.16667,0,0,4.16667,0,0)">
            <g transform="matrix(1,0,0,1,374.999,279.041)">
                <path d="M0,110.676C-45.773,111.776 -68.883,-1.1 0,1.79C68.884,-1.1 45.774,111.776 0,110.676" style="fill:rgb(228,174,124);"/>
            </g>
        </g>
        <g transform="matrix(4.16667,0,0,4.16667,0,0)">
            <g transform="matrix(-0.809768,-0.58675,-0.58675,0.809768,353.319,339.835)">
                <path d="M-2.406,-7.421C-4.671,-7.426 -6.509,-5.594 -6.509,-3.329C-6.509,-1.064 -4.672,0.775 -2.406,0.78C-0.14,0.783 1.697,-1.048 1.697,-3.312C1.697,-5.577 -0.141,-7.416 -2.406,-7.421" style="fill:rgb(32,32,30);"/>
            </g>
        </g>
        <g transform="matrix(4.16667,0,0,4.16667,0,0)">
            <g transform="matrix(-0.809826,0.58667,0.58667,0.809826,396.935,339.836)">
                <path d="M2.405,-7.421C4.671,-7.426 6.509,-5.594 6.508,-3.329C6.509,-1.064 4.67,0.775 2.405,0.78C0.139,0.783 -1.698,-1.048 -1.697,-3.313C-1.697,-5.577 0.141,-7.416 2.405,-7.421" style="fill:rgb(32,32,30);"/>
            </g>
        </g>
        <g transform="matrix(4.16667,0,0,4.16667,0,0)">
            <g transform="matrix(-0.547539,-0.83678,-0.83678,0.547539,346.18,350.823)">
                <path d="M-4.002,-7.402C-6.782,-8.375 -9.036,-7.022 -9.036,-4.381C-9.035,-1.739 -6.783,1.192 -4.002,2.164C-1.223,3.138 1.031,1.784 1.032,-0.857C1.03,-3.499 -1.222,-6.429 -4.002,-7.402" style="fill:rgb(218,144,119);"/>
            </g>
        </g>
        <g transform="matrix(4.16667,0,0,4.16667,0,0)">
            <g transform="matrix(-0.547539,0.83678,0.83678,0.547539,404.075,350.823)">
                <path d="M4.003,-7.402C6.782,-8.375 9.036,-7.022 9.036,-4.381C9.036,-1.74 6.783,1.192 4.003,2.164C1.223,3.138 -1.031,1.784 -1.032,-0.857C-1.03,-3.499 1.222,-6.429 4.003,-7.402" style="fill:rgb(218,144,119);"/>
            </g>
        </g>
        <g transform="matrix(4.16667,0,0,4.16667,0,0)">
            <g transform="matrix(1,0,0,1,361.414,328.033)">
                <path d="M0,-3.928C-0.152,-3.994 -0.305,-4.057 -0.462,-4.116C-2.25,-4.762 -3.767,-4.937 -5.699,-4.797C-7.592,-4.596 -9.004,-4.169 -10.59,-3.264C-11.331,-2.786 -14.22,-0.448 -13.401,0.415C-13.067,0.509 -10.188,-0.962 -9.343,-1.237C-8.027,-1.625 -6.96,-1.775 -5.567,-1.745C-4.268,-1.687 -3.29,-1.497 -2.106,-1.04C-2.074,-1.034 -1.86,-0.939 -1.815,-0.918C0.601,0.256 0.381,1.009 2.027,-0.119C4.563,-1.47 1.954,-2.912 0,-3.928" style="fill:rgb(63,39,22);"/>
            </g>
        </g>
        <g transform="matrix(4.16667,0,0,4.16667,0,0)">
            <g transform="matrix(1,0,0,1,388.587,328.033)">
                <path d="M0,-3.928C0.151,-3.994 0.305,-4.057 0.461,-4.116C2.249,-4.762 3.767,-4.937 5.698,-4.797C7.591,-4.596 9.004,-4.169 10.59,-3.264C11.33,-2.786 14.22,-0.448 13.4,0.415C13.066,0.509 10.188,-0.962 9.342,-1.237C8.026,-1.625 6.96,-1.775 5.566,-1.745C4.268,-1.687 3.289,-1.497 2.104,-1.04C2.073,-1.034 1.859,-0.939 1.813,-0.918C-0.601,0.256 -0.383,1.009 -2.028,-0.119C-4.564,-1.47 -1.955,-2.912 0,-3.928" style="fill:rgb(63,39,22);"/>
            </g>
        </g>
        <g transform="matrix(4.16667,0,0,4.16667,0,0)">
            <g transform="matrix(1,0,0,1,366.676,368.599)">
                <path d="M0,-8.903C3.032,-8.956 6.053,-8.982 9.075,-8.982C12.096,-8.982 15.117,-8.956 18.15,-8.903C18.15,-2.284 13.458,0.079 9.091,0.079L9.059,0.079C4.692,0.079 0,-2.284 0,-8.903" style="fill:white;"/>
            </g>
        </g>
        <g transform="matrix(4.16667,0,0,4.16667,0,0)">
            <g transform="matrix(1,0,0,1,384.213,368.611)">
                <path d="M0,-5.183C-1.412,-1.379 -5.028,0.068 -8.446,0.068L-8.478,0.068C-11.896,0.068 -15.513,-1.379 -16.923,-5.183C-14.098,-5.228 -11.28,-5.251 -8.462,-5.251C-5.645,-5.251 -2.827,-5.228 0,-5.183" style="fill:rgb(136,52,42);"/>
            </g>
        </g>
        <g transform="matrix(4.16667,0,0,4.16667,0,0)">
            <g transform="matrix(1,0,0,1,372.848,372.37)">
                <path d="M0,0.253C-0.235,0.114 -0.314,-0.188 -0.176,-0.425C-0.038,-0.659 0.266,-0.739 0.5,-0.601C1.183,-0.201 2.052,-0 2.923,-0C3.791,-0 4.645,-0.199 5.299,-0.597C5.533,-0.737 5.836,-0.663 5.978,-0.43C6.12,-0.196 6.044,0.107 5.811,0.249C4.995,0.744 3.958,0.992 2.923,0.992C1.889,0.992 0.841,0.745 0,0.253" style="fill:rgb(214,127,84);"/>
            </g>
        </g>
        <g transform="matrix(4.16667,0,0,4.16667,0,0)">
            <g transform="matrix(1,0,0,1,374.626,337.676)">
                <path d="M0,12.937C-0.274,12.937 -0.497,12.714 -0.497,12.441C-0.497,12.166 -0.274,11.944 0,11.944C1.191,11.944 2.614,11.933 3.713,11.747C4.616,11.594 5.281,11.349 5.281,10.937C5.281,9.509 3.834,0.634 3.831,0.61C3.788,0.339 3.972,0.085 4.242,0.043C4.512,0 4.765,0.184 4.807,0.454C4.811,0.48 6.274,9.448 6.274,10.937C6.274,11.982 5.257,12.49 3.876,12.723C2.69,12.924 1.225,12.937 0,12.937" style="fill:rgb(214,127,84);"/>
            </g>
        </g>
        <g transform="matrix(4.16667,0,0,4.16667,0,0)">
            <g transform="matrix(1,0,0,1,421.969,357.347)">
                <path d="M0,-2.486C0,-2.212 -0.222,-1.99 -0.496,-1.99C-0.77,-1.99 -0.992,-2.212 -0.992,-2.486C-0.992,-3.993 -1.253,-4.94 -1.672,-5.456C-1.924,-5.765 -2.241,-5.908 -2.595,-5.917C-3.001,-5.925 -3.465,-5.773 -3.946,-5.501C-5.249,-4.762 -6.597,-3.198 -7.342,-1.495C-7.7,-0.674 -8.011,0.17 -8.188,0.808C-7.426,0.278 -6.585,0.067 -5.876,0.137C-5.472,0.178 -5.104,0.31 -4.807,0.525C-4.491,0.75 -4.258,1.065 -4.14,1.458C-3.937,2.14 -4.094,3.053 -4.824,4.145C-4.977,4.371 -5.283,4.432 -5.511,4.281C-5.737,4.128 -5.799,3.822 -5.646,3.594C-5.101,2.78 -4.965,2.16 -5.089,1.742C-5.143,1.565 -5.246,1.426 -5.385,1.327C-5.539,1.215 -5.741,1.146 -5.973,1.122C-6.61,1.059 -7.417,1.337 -8.089,2.012C-8.269,2.194 -8.438,2.295 -8.593,2.329C-8.991,2.414 -9.223,2.24 -9.309,1.85L-9.315,1.824C-9.344,1.676 -9.337,1.479 -9.301,1.244C-9.188,0.539 -8.765,-0.71 -8.249,-1.889C-7.422,-3.78 -5.907,-5.526 -4.436,-6.361C-3.804,-6.719 -3.167,-6.918 -2.575,-6.904C-1.932,-6.89 -1.355,-6.634 -0.903,-6.081C-0.347,-5.394 0,-4.238 0,-2.486" style="fill:rgb(214,127,84);"/>
            </g>
        </g>
        <g transform="matrix(4.16667,0,0,4.16667,0,0)">
            <g transform="matrix(1,0,0,1,329.023,357.347)">
                <path d="M0,-2.486C0,-2.212 -0.222,-1.99 -0.497,-1.99C-0.77,-1.99 -0.993,-2.212 -0.993,-2.486C-0.993,-4.238 -0.646,-5.394 -0.088,-6.081C0.363,-6.634 0.939,-6.89 1.583,-6.904C2.175,-6.918 2.811,-6.719 3.442,-6.361C4.916,-5.526 6.43,-3.78 7.256,-1.889C7.772,-0.71 8.197,0.539 8.308,1.244C8.346,1.479 8.353,1.676 8.322,1.824L8.317,1.85C8.23,2.24 7.999,2.414 7.601,2.329C7.445,2.295 7.276,2.194 7.096,2.012C6.424,1.337 5.617,1.059 4.98,1.122C4.75,1.146 4.547,1.215 4.392,1.327C4.253,1.426 4.149,1.565 4.098,1.742C3.973,2.16 4.108,2.78 4.654,3.594C4.806,3.822 4.746,4.128 4.519,4.281C4.292,4.432 3.984,4.371 3.832,4.145C3.101,3.053 2.944,2.14 3.147,1.458C3.265,1.065 3.499,0.75 3.814,0.525C4.113,0.31 4.48,0.178 4.883,0.137C5.593,0.067 6.434,0.278 7.195,0.808C7.018,0.17 6.708,-0.674 6.349,-1.495C5.604,-3.198 4.256,-4.762 2.954,-5.501C2.473,-5.773 2.009,-5.925 1.603,-5.917C1.25,-5.908 0.931,-5.765 0.68,-5.456C0.26,-4.94 0,-3.993 0,-2.486" style="fill:rgb(214,127,84);"/>
            </g>
        </g>
        <g transform="matrix(4.16667,0,0,4.16667,0,0)">
            <g transform="matrix(1,0,0,1,333.695,256.858)">
                <path d="M0,90.163C-30.923,-4.703 111.289,-7.437 82.215,89.638C79.511,97.6 73.894,61.368 73.888,61.128C73.829,58.77 69.195,47.007 63.398,45.791C45.284,41.994 8.905,53.75 8.722,61.128C8.715,61.391 6.213,74.142 3.685,82.795C1.934,88.79 0.957,93.607 0,90.163" style="fill:rgb(78,44,11);"/>
            </g>
        </g>
        <g transform="matrix(4.16667,0,0,4.16667,0,0)">
            <g transform="matrix(0.120339,-0.992733,-0.992733,-0.120339,402.668,350.785)">
                <path d="M6.385,-12.649C4.627,-12.683 -25.387,-10.909 -25.55,-10.879C-19.353,-7.577 -1.014,-9.163 6.385,-8.951C10.413,-8.691 16.496,-7.091 16.584,-9.011C17.965,-11.49 8.333,-12.505 6.385,-12.649" style="fill:rgb(78,44,11);"/>
            </g>
        </g>
        <g transform="matrix(4.16667,0,0,4.16667,0,0)">
            <g transform="matrix(0.0449729,0.998988,0.998988,-0.0449729,347.821,351.225)">
                <path d="M-6.152,-13.945C-4.397,-13.846 25.678,-9.428 25.838,-9.388C19.41,-6.562 1.242,-9.529 -6.152,-9.876C-10.187,-9.922 -16.374,-8.787 -16.317,-10.708C-17.506,-13.284 -8.104,-13.949 -6.152,-13.945" style="fill:rgb(78,44,11);"/>
            </g>
        </g>
        <g transform="matrix(4.16667,0,0,4.16667,0,0)">
            <g transform="matrix(1,0,0,1,378.176,301.257)">
                <path d="M0,7.449C0.81,10.635 -7.467,19.269 -5.64,20.269C-2.542,21.965 10.188,19.152 19.086,9.095C20.205,7.828 20.374,12.396 23.561,16.186C27.157,20.463 33.844,24.181 35.885,25.518C37.831,26.794 37.858,26.185 38.36,23.559C40.406,12.851 34.036,-19.345 -3.176,-19.345C-44.969,-19.345 -47.859,21.267 -43.615,26.437C-32.857,24.428 -14.87,6.925 -16.819,9.8C-18.875,12.834 -28.486,20.759 -25.968,20.771C-11.759,20.843 -0.062,7.206 0,7.449" style="fill:rgb(98,58,28);"/>
            </g>
        </g>
        <g transform="matrix(4.16667,0,0,4.16667,0,0)">
            <g transform="matrix(1,0,0,1,374.999,423.662)">
                <path d="M0,23.372C1.375,23.372 2.495,18.122 2.495,11.686C2.495,5.25 1.375,0 0,0C-1.374,0 -2.495,5.25 -2.495,11.686C-2.495,18.122 -1.374,23.372 0,23.372" style="fill:rgb(228,174,124);"/>
            </g>
        </g>
        <g transform="matrix(4.16667,0,0,4.16667,0,0)">
            <g transform="matrix(1,0,0,1,323.236,468.863)">
                <path d="M0,-20.55C0.003,-20.96 0.338,-21.289 0.748,-21.286C1.157,-21.282 1.487,-20.948 1.483,-20.538L1.301,0C1.298,0.41 0.963,0.739 0.554,0.736C0.144,0.733 -0.185,0.398 -0.182,-0.011L0,-20.55Z" style="fill:rgb(180,40,63);"/>
            </g>
        </g>
        <g transform="matrix(4.16667,0,0,4.16667,0,0)">
            <g transform="matrix(1,0,0,1,425.463,468.863)">
                <path d="M0,-20.55C0.003,-20.96 0.338,-21.289 0.747,-21.286C1.156,-21.282 1.486,-20.948 1.483,-20.538L1.3,0C1.297,0.41 0.962,0.739 0.554,0.736C0.144,0.733 -0.186,0.398 -0.183,-0.011L0,-20.55Z" style="fill:rgb(180,40,63);"/>
            </g>
        </g>
        <g transform="matrix(4.16667,0,0,4.16667,0,0)">
            <g transform="matrix(1,0,0,1,342.067,288.222)">
                <path d="M0,29.141C-0.213,29.312 -0.524,29.278 -0.695,29.065C-0.867,28.852 -0.833,28.54 -0.62,28.369C0.25,27.668 1.666,26.536 3.18,25.326C13.158,17.348 28.136,5.371 31.44,0.13C31.586,-0.101 31.892,-0.171 32.123,-0.026C32.354,0.12 32.423,0.426 32.278,0.657C28.888,6.035 13.828,18.077 3.796,26.097C2.561,27.085 1.416,28 0,29.141" style="fill:rgb(124,80,50);"/>
            </g>
        </g>
        <g transform="matrix(4.16667,0,0,4.16667,0,0)">
            <g transform="matrix(1,0,0,1,357.955,288.003)">
                <path d="M0,32.117C-0.213,32.289 -0.524,32.255 -0.696,32.041C-0.867,31.829 -0.833,31.516 -0.62,31.346C2.56,28.785 11.655,20.557 18.327,12.702C22.373,7.939 25.515,3.338 25.853,0.296C25.882,0.024 26.127,-0.172 26.398,-0.143C26.671,-0.112 26.867,0.132 26.837,0.404C26.476,3.671 23.241,8.447 19.084,13.342C12.367,21.25 3.205,29.536 0,32.117" style="fill:rgb(124,80,50);"/>
            </g>
        </g>
        <g transform="matrix(4.16667,0,0,4.16667,0,0)">
            <g transform="matrix(1,0,0,1,381.09,289.849)">
                <path d="M0,28.149C-0.201,28.334 -0.515,28.322 -0.7,28.12C-0.885,27.919 -0.872,27.605 -0.671,27.42C2.762,24.256 5.705,20.818 7.833,17.34C9.805,14.119 11.075,10.868 11.384,7.778C12.033,1.271 11.91,0.411 11.91,0.408C11.874,0.137 12.064,-0.112 12.335,-0.148C12.605,-0.185 12.854,0.005 12.892,0.276C12.892,0.279 13.03,1.252 12.368,7.876C12.043,11.121 10.724,14.513 8.679,17.856C6.501,21.416 3.498,24.926 0,28.149" style="fill:rgb(124,80,50);"/>
            </g>
        </g>
        <g transform="matrix(4.16667,0,0,4.16667,0,0)">
            <g transform="matrix(1,0,0,1,410.79,292.056)">
                <path d="M0,21.184C0.033,21.455 -0.161,21.704 -0.433,21.737C-0.704,21.77 -0.951,21.577 -0.985,21.304C-1.476,17.383 -3.029,13.493 -4.847,10.148C-7.805,4.703 -11.376,0.745 -12.216,0.439C-12.473,0.345 -12.605,0.062 -12.513,-0.195C-12.419,-0.453 -12.136,-0.586 -11.878,-0.492C-10.927,-0.146 -7.048,4.026 -3.979,9.674C-2.107,13.119 -0.507,17.129 0,21.184" style="fill:rgb(124,80,50);"/>
            </g>
        </g>
        <g transform="matrix(4.16667,0,0,4.16667,0,0)">
            <g transform="matrix(1,0,0,1,384.243,267.36)">
                <path d="M0,7.446C0.086,7.704 -0.055,7.984 -0.313,8.07C-0.572,8.155 -0.853,8.014 -0.938,7.756C-1.56,5.892 -2.327,3.955 -3.046,2.493C-3.637,1.29 -4.158,0.443 -4.47,0.309C-4.722,0.202 -4.84,-0.088 -4.732,-0.34C-4.625,-0.591 -4.335,-0.709 -4.083,-0.602C-3.534,-0.366 -2.848,0.654 -2.157,2.058C-1.421,3.558 -0.635,5.541 0,7.446" style="fill:rgb(180,40,63);"/>
            </g>
        </g>
        <g transform="matrix(4.16667,0,0,4.16667,0,0)">
            <g transform="matrix(1,0,0,1,366.393,267.061)">
                <path d="M0,7.91C-0.079,8.172 -0.354,8.322 -0.617,8.244C-0.879,8.165 -1.029,7.889 -0.951,7.627C-0.423,5.869 0.356,4.382 1.159,3.187C2.53,1.149 4.005,-0.057 4.405,-0.28C4.644,-0.412 4.945,-0.326 5.078,-0.088C5.21,0.151 5.125,0.452 4.886,0.585C4.542,0.776 3.249,1.852 1.981,3.738C1.228,4.858 0.495,6.257 0,7.91" style="fill:rgb(180,40,63);"/>
            </g>
        </g>
        <g transform="matrix(4.16667,0,0,4.16667,0,0)">
            <g transform="matrix(1,0,0,1,375.473,267.06)">
                <path d="M0,7.112C0,7.387 -0.221,7.608 -0.496,7.608C-0.77,7.608 -0.992,7.387 -0.992,7.112C-0.992,5.466 -0.465,-0.008 -0.463,-0.025C-0.437,-0.296 -0.195,-0.496 0.076,-0.471C0.348,-0.445 0.547,-0.203 0.522,0.068C0.521,0.085 0,5.477 0,7.112" style="fill:rgb(180,40,63);"/>
            </g>
        </g>
        <g transform="matrix(4.16667,0,0,4.16667,0,0)">
            <g transform="matrix(1,0,0,1,348.115,424.42)">
                <path d="M0,-18.73C-0.033,-19.001 0.162,-19.249 0.433,-19.283C0.705,-19.315 0.952,-19.122 0.985,-18.85C1.548,-14.35 4.321,-9.142 8.931,-5.444C12.699,-2.421 17.696,-0.414 23.716,-0.639C23.989,-0.649 24.219,-0.435 24.229,-0.163C24.238,0.111 24.024,0.34 23.751,0.35C17.468,0.585 12.249,-1.513 8.311,-4.672C3.493,-8.538 0.592,-14.001 0,-18.73" style="fill:rgb(180,40,63);"/>
            </g>
        </g>
        <g transform="matrix(4.16667,0,0,4.16667,0,0)">
            <g transform="matrix(1,0,0,1,400.899,424.541)">
                <path d="M0,-18.971C0.033,-19.242 0.28,-19.436 0.552,-19.404C0.824,-19.369 1.018,-19.122 0.984,-18.851C0.394,-14.122 -2.508,-8.658 -7.324,-4.793C-11.264,-1.634 -16.481,0.465 -22.766,0.229C-23.038,0.219 -23.252,-0.01 -23.242,-0.284C-23.232,-0.556 -23.004,-0.77 -22.73,-0.76C-16.71,-0.534 -11.714,-2.542 -7.945,-5.565C-3.336,-9.263 -0.562,-14.471 0,-18.971" style="fill:rgb(180,40,63);"/>
            </g>
        </g>
    </g>
</svg>
