<?xml version="1.0" encoding="UTF-8" standalone="no"?>
<!DOCTYPE svg PUBLIC "-//W3C//DTD SVG 1.1//EN" "http://www.w3.org/Graphics/SVG/1.1/DTD/svg11.dtd">
<svg width="100%" height="100%" viewBox="0 0 719 773" version="1.1" xmlns="http://www.w3.org/2000/svg" xmlns:xlink="http://www.w3.org/1999/xlink" xml:space="preserve" xmlns:serif="http://www.serif.com/" style="fill-rule:evenodd;clip-rule:evenodd;stroke-linejoin:round;stroke-miterlimit:2;">
    <g transform="matrix(1,0,0,1,-2088.08,-1183.91)">
        <g transform="matrix(4.16667,0,0,4.16667,0,0)">
            <g transform="matrix(1,0,0,1,530.481,461.638)">
                <path d="M0,-172.447L113.765,-172.447C129.903,-172.447 143.107,-159.243 143.107,-143.105L143.107,-29.341C143.107,-13.203 129.903,0 113.765,0L0,0C-16.138,0 -29.341,-13.203 -29.341,-29.341L-29.341,-143.105C-29.341,-159.243 -16.138,-172.447 0,-172.447" style="fill:rgb(214,129,25);"/>
            </g>
        </g>
        <g transform="matrix(4.16667,0,0,4.16667,0,0)">
            <g transform="matrix(1,0,0,1,587.363,380.363)">
                <path d="M70.984,88.494L-70.983,88.494C-71.805,52.197 -43.878,31.125 -19.897,23.262C-17.952,13.135 -18.449,0 -18.449,0L18.449,0C18.449,0 17.953,13.135 19.898,23.262C43.879,31.125 71.806,52.197 70.984,88.494Z" style="fill:rgb(228,174,124);"/>
            </g>
        </g>
        <g transform="matrix(4.16667,0,0,4.16667,0,0)">
            <g transform="matrix(1,0,0,1,606.06,393.855)">
                <path d="M0,-0.467C-2.308,3.947 -10.361,8.162 -18.696,8.23C-26.749,8.298 -35.089,4.368 -37.393,0.121C-37.16,-3.209 -37.085,-6.345 -37.071,-8.765L-0.281,-8.765C-0.269,-6.488 -0.201,-3.577 0,-0.467" style="fill:rgb(214,127,84);"/>
            </g>
        </g>
        <g transform="matrix(4.16667,0,0,4.16667,0,0)">
            <g transform="matrix(-0.999812,0.0194133,0.0194133,0.999812,544.461,365.606)">
                <path d="M-4.106,-14.277C-3.969,-16.178 3.749,-18.571 6.455,-12.413C9.163,-6.254 4.677,2.633 -4.106,3.494C-12.889,4.355 -10.332,2.752 -10.332,2.752L-4.106,-14.277Z" style="fill:rgb(228,174,124);"/>
            </g>
        </g>
        <g transform="matrix(4.16667,0,0,4.16667,0,0)">
            <g transform="matrix(1,0,0,1,587.363,402.085)">
                <path d="M70.984,66.772L-70.983,66.772C-71.649,37.354 -53.431,17.938 -33.735,7.449C-32.803,6.976 -31.921,6.528 -31.095,6.1C-27.349,4.264 -23.577,2.747 -19.897,1.54C-19.801,1.034 -19.71,0.519 -19.624,0C-11.594,3.54 3.42,7.456 19.704,0.469C19.766,0.829 19.83,1.186 19.898,1.54C23.531,2.731 27.256,4.227 30.956,6.033C31.856,6.501 32.828,6.994 33.857,7.514C53.506,18.019 71.649,37.415 70.984,66.772Z" style="fill:rgb(87,87,86);"/>
            </g>
        </g>
        <g transform="matrix(4.16667,0,0,4.16667,0,0)">
            <g transform="matrix(-0.99981,-0.0194695,-0.0194695,0.99981,630.451,365.606)">
                <path d="M4.105,-14.277C3.97,-16.178 -3.748,-18.572 -6.455,-12.413C-9.163,-6.255 -4.678,2.632 4.105,3.494C12.887,4.355 10.331,2.752 10.331,2.752L4.105,-14.277Z" style="fill:rgb(228,174,124);"/>
            </g>
        </g>
        <g transform="matrix(4.16667,0,0,4.16667,0,0)">
            <g transform="matrix(1,0,0,1,587.363,282.403)">
                <path d="M0,110.675C-45.773,111.776 -68.884,-1.101 0,1.79C68.884,-1.101 45.774,111.776 0,110.675" style="fill:rgb(228,174,124);"/>
            </g>
        </g>
        <g transform="matrix(4.16667,0,0,4.16667,0,0)">
            <g transform="matrix(1,0,0,1,634.333,360.708)">
                <path d="M0,-2.484C0,-2.211 -0.223,-1.988 -0.497,-1.988C-0.771,-1.988 -0.993,-2.211 -0.993,-2.484C-0.993,-3.992 -1.254,-4.939 -1.672,-5.455C-1.925,-5.764 -2.242,-5.907 -2.596,-5.915C-3.002,-5.924 -3.466,-5.772 -3.947,-5.499C-5.25,-4.761 -6.598,-3.197 -7.342,-1.493C-7.701,-0.672 -8.011,0.171 -8.188,0.809C-7.426,0.279 -6.586,0.068 -5.877,0.139C-5.473,0.18 -5.105,0.31 -4.807,0.525C-4.492,0.751 -4.258,1.066 -4.141,1.46C-3.938,2.141 -4.094,3.055 -4.825,4.146C-4.978,4.372 -5.284,4.434 -5.512,4.282C-5.738,4.13 -5.8,3.823 -5.647,3.595C-5.102,2.781 -4.966,2.161 -5.09,1.744C-5.143,1.567 -5.247,1.427 -5.385,1.328C-5.54,1.216 -5.742,1.147 -5.973,1.123C-6.61,1.06 -7.417,1.338 -8.089,2.014C-8.27,2.195 -8.438,2.297 -8.594,2.33C-8.991,2.416 -9.224,2.242 -9.31,1.851L-9.315,1.825C-9.346,1.678 -9.338,1.48 -9.302,1.245C-9.189,0.539 -8.766,-0.709 -8.25,-1.888C-7.423,-3.779 -5.909,-5.526 -4.436,-6.36C-3.804,-6.717 -3.168,-6.918 -2.576,-6.904C-1.933,-6.888 -1.355,-6.634 -0.905,-6.079C-0.347,-5.393 0,-4.237 0,-2.484" style="fill:rgb(214,127,84);"/>
            </g>
        </g>
        <g transform="matrix(4.16667,0,0,4.16667,0,0)">
            <g transform="matrix(1,0,0,1,541.387,360.708)">
                <path d="M0,-2.484C0,-2.211 -0.222,-1.988 -0.496,-1.988C-0.771,-1.988 -0.992,-2.211 -0.992,-2.484C-0.992,-4.237 -0.646,-5.393 -0.088,-6.079C0.363,-6.634 0.94,-6.888 1.584,-6.904C2.175,-6.918 2.812,-6.717 3.443,-6.36C4.916,-5.526 6.431,-3.779 7.256,-1.888C7.772,-0.709 8.196,0.539 8.309,1.245C8.346,1.48 8.353,1.678 8.323,1.825L8.317,1.851C8.23,2.241 8,2.416 7.601,2.33C7.445,2.297 7.276,2.195 7.097,2.014C6.425,1.338 5.618,1.06 4.98,1.123C4.75,1.147 4.547,1.216 4.393,1.328C4.253,1.427 4.15,1.567 4.098,1.744C3.973,2.161 4.108,2.781 4.654,3.595C4.807,3.823 4.746,4.13 4.519,4.282C4.292,4.434 3.984,4.372 3.833,4.146C3.101,3.055 2.945,2.141 3.147,1.46C3.266,1.066 3.5,0.751 3.814,0.525C4.113,0.31 4.48,0.18 4.883,0.139C5.593,0.068 6.434,0.279 7.196,0.809C7.019,0.171 6.708,-0.672 6.35,-1.493C5.604,-3.197 4.257,-4.761 2.955,-5.499C2.473,-5.772 2.009,-5.924 1.604,-5.915C1.25,-5.907 0.932,-5.764 0.68,-5.455C0.261,-4.939 0,-3.992 0,-2.484" style="fill:rgb(214,127,84);"/>
            </g>
        </g>
        <g transform="matrix(4.16667,0,0,4.16667,0,0)">
            <g transform="matrix(1,0,0,1,535.601,468.863)">
                <path d="M0,-20.55C0.003,-20.96 0.338,-21.289 0.747,-21.286C1.157,-21.282 1.485,-20.948 1.483,-20.538L1.301,0C1.297,0.41 0.963,0.739 0.553,0.736C0.144,0.733 -0.187,0.398 -0.183,-0.011L0,-20.55Z" style="fill:rgb(56,53,70);"/>
            </g>
        </g>
        <g transform="matrix(4.16667,0,0,4.16667,0,0)">
            <g transform="matrix(1,0,0,1,637.826,468.863)">
                <path d="M0,-20.55C0.003,-20.96 0.338,-21.289 0.747,-21.286C1.157,-21.282 1.486,-20.948 1.483,-20.538L1.301,0C1.297,0.41 0.963,0.739 0.553,0.736C0.144,0.733 -0.186,0.398 -0.183,-0.011L0,-20.55Z" style="fill:rgb(56,53,70);"/>
            </g>
        </g>
        <g transform="matrix(4.16667,0,0,4.16667,0,0)">
            <g transform="matrix(1,0,0,1,545.042,384.363)">
                <path d="M0,-41.418C0.603,-43.79 1.61,-50.65 1.666,-49.58C2.744,-28.722 10.914,-15.036 18.444,-9.042C25.881,-3.124 14.308,-23.711 41.57,-23.435C41.826,-23.438 42.072,-23.435 42.321,-23.434C42.571,-23.435 42.816,-23.438 43.072,-23.435C70.336,-23.711 58.763,-3.124 66.199,-9.042C73.729,-15.036 81.898,-28.722 82.978,-49.58C83.033,-50.65 84.041,-43.79 84.643,-41.418C80.341,-15.431 63.836,9.232 42.321,8.715C20.807,9.232 4.302,-15.431 0,-41.418" style="fill:rgb(120,73,40);"/>
            </g>
        </g>
        <g transform="matrix(4.16667,0,0,4.16667,0,0)">
            <g transform="matrix(1,0,0,1,546.655,282.527)">
                <path d="M0,68.002C0.562,66.373 0.904,62.978 0.845,58.602C0.761,52.514 9.195,49.516 8.188,40.791C5.232,15.189 25.069,23.863 40.708,23.868L40.708,1.666C1.026,0 -8.123,36.752 0,68.002" style="fill:rgb(120,73,40);"/>
            </g>
        </g>
        <g transform="matrix(4.16667,0,0,4.16667,0,0)">
            <g transform="matrix(1,0,0,1,628.209,282.537)">
                <path d="M0,67.441C-0.479,65.756 -0.827,62.627 -0.981,58.591C-1.215,52.506 -9.332,49.505 -8.325,40.781C-5.37,15.179 -25.207,23.853 -40.846,23.858L-40.846,1.656C-1.396,0 7.872,36.311 0,67.441" style="fill:rgb(120,73,40);"/>
            </g>
        </g>
        <g transform="matrix(4.16667,0,0,4.16667,0,0)">
            <g transform="matrix(-0.809868,-0.586612,-0.586612,0.809868,565.683,345.286)">
                <path d="M-2.406,-7.422C-4.673,-7.427 -6.509,-5.593 -6.508,-3.329C-6.509,-1.065 -4.671,0.775 -2.405,0.78C-0.139,0.783 1.698,-1.049 1.697,-3.314C1.697,-5.579 -0.141,-7.417 -2.406,-7.422" style="fill:rgb(32,32,30);"/>
            </g>
        </g>
        <g transform="matrix(4.16667,0,0,4.16667,0,0)">
            <g transform="matrix(-0.80981,0.586692,0.586692,0.80981,609.3,345.285)">
                <path d="M2.406,-7.422C4.672,-7.426 6.509,-5.593 6.509,-3.33C6.51,-1.066 4.672,0.775 2.406,0.78C0.141,0.783 -1.697,-1.049 -1.697,-3.313C-1.697,-5.578 0.14,-7.417 2.406,-7.422" style="fill:rgb(32,32,30);"/>
            </g>
        </g>
        <g transform="matrix(4.16667,0,0,4.16667,0,0)">
            <g transform="matrix(-0.547539,-0.83678,-0.83678,0.547539,558.543,356.273)">
                <path d="M-4.002,-7.403C-6.782,-8.375 -9.036,-7.022 -9.036,-4.381C-9.036,-1.74 -6.783,1.19 -4.002,2.163C-1.223,3.136 1.031,1.783 1.031,-0.858C1.03,-3.5 -1.223,-6.43 -4.002,-7.403" style="fill:rgb(218,144,119);"/>
            </g>
        </g>
        <g transform="matrix(4.16667,0,0,4.16667,0,0)">
            <g transform="matrix(-0.547587,0.836749,0.836749,0.547587,616.438,356.274)">
                <path d="M4.001,-7.402C6.782,-8.375 9.036,-7.022 9.035,-4.381C9.035,-1.739 6.781,1.191 4.001,2.163C1.221,3.136 -1.033,1.783 -1.032,-0.859C-1.032,-3.5 1.221,-6.429 4.001,-7.402" style="fill:rgb(218,144,119);"/>
            </g>
        </g>
        <g transform="matrix(4.16667,0,0,4.16667,0,0)">
            <g transform="matrix(1,0,0,1,573.777,333.483)">
                <path d="M0,-3.928C-0.152,-3.995 -0.306,-4.057 -0.461,-4.117C-2.25,-4.762 -3.767,-4.937 -5.699,-4.797C-7.591,-4.597 -9.004,-4.169 -10.591,-3.264C-11.33,-2.787 -14.221,-0.448 -13.401,0.416C-13.066,0.508 -10.188,-0.963 -9.343,-1.238C-8.027,-1.626 -6.961,-1.775 -5.567,-1.745C-4.269,-1.687 -3.29,-1.498 -2.105,-1.041C-2.073,-1.035 -1.859,-0.939 -1.814,-0.919C0.601,0.255 0.382,1.009 2.028,-0.12C4.563,-1.469 1.954,-2.913 0,-3.928" style="fill:rgb(63,39,22);"/>
            </g>
        </g>
        <g transform="matrix(4.16667,0,0,4.16667,0,0)">
            <g transform="matrix(1,0,0,1,600.95,333.483)">
                <path d="M0,-3.928C0.152,-3.995 0.305,-4.057 0.461,-4.117C2.25,-4.762 3.767,-4.937 5.698,-4.797C7.591,-4.597 9.004,-4.169 10.59,-3.264C11.33,-2.787 14.22,-0.448 13.4,0.416C13.066,0.508 10.188,-0.963 9.343,-1.238C8.027,-1.626 6.96,-1.775 5.566,-1.745C4.268,-1.687 3.29,-1.498 2.105,-1.041C2.073,-1.035 1.859,-0.939 1.814,-0.919C-0.601,0.255 -0.382,1.009 -2.028,-0.12C-4.563,-1.469 -1.954,-2.913 0,-3.928" style="fill:rgb(63,39,22);"/>
            </g>
        </g>
        <g transform="matrix(4.16667,0,0,4.16667,0,0)">
            <g transform="matrix(1,0,0,1,585.212,377.821)">
                <path d="M0,0.251C-0.235,0.113 -0.314,-0.189 -0.176,-0.425C-0.038,-0.66 0.265,-0.739 0.5,-0.602C1.183,-0.202 2.052,-0.002 2.922,-0.002C3.79,-0.002 4.645,-0.201 5.299,-0.598C5.532,-0.739 5.836,-0.664 5.978,-0.431C6.119,-0.198 6.044,0.106 5.811,0.248C4.994,0.743 3.958,0.99 2.922,0.99C1.889,0.99 0.841,0.744 0,0.251" style="fill:rgb(214,127,84);"/>
            </g>
        </g>
        <g transform="matrix(4.16667,0,0,4.16667,0,0)">
            <g transform="matrix(1,0,0,1,586.99,347.177)">
                <path d="M0,12.936C-0.274,12.936 -0.497,12.714 -0.497,12.44C-0.497,12.166 -0.274,11.944 0,11.944C1.19,11.944 2.613,11.933 3.713,11.747C4.616,11.593 5.28,11.348 5.28,10.937C5.28,9.509 3.834,0.634 3.83,0.609C3.788,0.339 3.972,0.085 4.241,0.042C4.512,0 4.765,0.183 4.808,0.454C4.812,0.48 6.273,9.448 6.273,10.937C6.273,11.982 5.257,12.489 3.875,12.723C2.69,12.924 1.224,12.936 0,12.936" style="fill:rgb(214,127,84);"/>
            </g>
        </g>
        <g transform="matrix(4.16667,0,0,4.16667,0,0)">
            <g transform="matrix(1,0,0,1,577.169,354.485)">
                <path d="M0,-17.235C-2.206,-19.441 -5.253,-20.805 -8.618,-20.805C-11.984,-20.805 -15.032,-19.441 -17.237,-17.235C-19.442,-15.03 -20.807,-11.982 -20.807,-8.617C-20.807,-5.252 -19.442,-2.205 -17.237,0.001C-15.032,2.206 -11.984,3.571 -8.618,3.571C-5.253,3.571 -2.206,2.206 0,0.001C2.205,-2.205 3.569,-5.252 3.569,-8.617C3.569,-11.982 2.205,-15.03 0,-17.235M-8.618,-23.287C-4.568,-23.287 -0.9,-21.644 1.754,-18.989C4.408,-16.336 6.051,-12.668 6.051,-8.617C6.051,-4.567 4.408,-0.899 1.754,1.755C-0.9,4.41 -4.568,6.052 -8.618,6.052C-12.669,6.052 -16.337,4.41 -18.991,1.755C-21.646,-0.899 -23.288,-4.567 -23.288,-8.617C-23.288,-12.668 -21.646,-16.336 -18.991,-18.989C-16.337,-21.644 -12.669,-23.287 -8.618,-23.287" style="fill:rgb(46,30,17);"/>
            </g>
        </g>
        <g transform="matrix(4.16667,0,0,4.16667,0,0)">
            <g transform="matrix(1,0,0,1,614.795,354.485)">
                <path d="M0,-17.235C-2.205,-19.441 -5.252,-20.805 -8.618,-20.805C-11.983,-20.805 -15.031,-19.441 -17.236,-17.235C-19.441,-15.03 -20.806,-11.982 -20.806,-8.617C-20.806,-5.252 -19.441,-2.205 -17.236,0.001C-15.031,2.206 -11.983,3.571 -8.618,3.571C-5.252,3.571 -2.205,2.206 0,0.001C2.205,-2.205 3.569,-5.252 3.569,-8.617C3.569,-11.982 2.205,-15.03 0,-17.235M-8.618,-23.287C-4.567,-23.287 -0.9,-21.644 1.755,-18.989C4.409,-16.336 6.052,-12.668 6.052,-8.617C6.052,-4.567 4.409,-0.899 1.755,1.755C-0.9,4.41 -4.567,6.052 -8.618,6.052C-12.669,6.052 -16.336,4.41 -18.99,1.755C-21.646,-0.899 -23.287,-4.567 -23.287,-8.617C-23.287,-12.668 -21.646,-16.336 -18.99,-18.989C-16.336,-21.644 -12.669,-23.287 -8.618,-23.287" style="fill:rgb(46,30,17);"/>
            </g>
        </g>
        <g transform="matrix(4.16667,0,0,4.16667,0,0)">
            <g transform="matrix(1,0,0,1,554.683,349.675)">
                <path d="M0,-5.007C0.514,-5.192 1.08,-4.924 1.264,-4.409C1.448,-3.897 1.181,-3.33 0.667,-3.146L-8.07,0.002C-8.584,0.185 -9.149,-0.082 -9.334,-0.597C-9.518,-1.11 -9.25,-1.676 -8.736,-1.861L0,-5.007Z" style="fill:rgb(46,30,17);"/>
            </g>
        </g>
        <g transform="matrix(4.16667,0,0,4.16667,0,0)">
            <g transform="matrix(1,0,0,1,619.415,347.814)">
                <path d="M0,-1.285C-0.514,-1.47 -0.781,-2.036 -0.597,-2.549C-0.413,-3.063 0.153,-3.331 0.667,-3.146L9.404,-0C9.917,0.185 10.185,0.751 10.001,1.264C9.816,1.778 9.251,2.046 8.737,1.862L0,-1.285Z" style="fill:rgb(46,30,17);"/>
            </g>
        </g>
        <g transform="matrix(4.16667,0,0,4.16667,0,0)">
            <g transform="matrix(1,0,0,1,582.194,341.454)">
                <path d="M0,3.273C-0.285,3.74 -0.895,3.887 -1.361,3.602C-1.828,3.317 -1.976,2.709 -1.69,2.242C-1.686,2.234 -0.008,-0.614 5.169,-0.614C10.346,-0.614 12.024,2.234 12.029,2.242C12.314,2.709 12.166,3.317 11.699,3.602C11.233,3.887 10.624,3.74 10.339,3.273C10.335,3.267 9.225,1.372 5.169,1.372C1.114,1.372 0.003,3.267 0,3.273" style="fill:rgb(46,30,17);"/>
            </g>
        </g>
        <g transform="matrix(4.16667,0,0,4.16667,0,0)">
            <g transform="matrix(1,0,0,1,602.89,376.93)">
                <path d="M0,-12.117C-6.233,-9.804 -25.172,-9.85 -31.052,-11.838C-27.803,0 -3.16,-0.187 0,-12.117" style="fill:white;"/>
            </g>
        </g>
        <g transform="matrix(4.16667,0,0,4.16667,0,0)">
            <g transform="matrix(1,0,0,1,548.175,284.422)">
                <path d="M0,22.633C3.023,23.144 8.846,23.228 11.836,22.129C18.349,18.687 25.511,23.108 39.188,22.995C45.444,22.993 62.067,21.631 67.824,14.866C70.685,11.505 69.181,17.343 63.618,21.133C66.916,22.36 74.398,23.741 78.444,22.794C72.561,8.725 60.134,-1.108 39.188,-0.228C18.322,-1.104 5.91,8.651 0,22.633" style="fill:rgb(35,26,17);"/>
            </g>
        </g>
        <g transform="matrix(4.16667,0,0,4.16667,0,0)">
            <g transform="matrix(1,0,0,1,561.638,445.006)">
                <path d="M0,-39.607C0,-40.429 0.667,-41.095 1.489,-41.095C2.312,-41.095 2.978,-40.429 2.978,-39.607C2.978,-30.514 5.945,-20.463 10.564,-12.914C14.689,-6.173 20.083,-1.49 25.726,-1.49C31.479,-1.49 36.96,-6.058 41.105,-12.833C45.601,-20.176 48.474,-30.044 48.474,-39.607C48.474,-40.429 49.14,-41.095 49.963,-41.095C50.785,-41.095 51.451,-40.429 51.451,-39.607C51.451,-29.508 48.405,-19.071 43.642,-11.286C38.973,-3.657 32.611,1.488 25.726,1.488C18.937,1.488 12.671,-3.782 8.028,-11.367C3.14,-19.357 0,-29.99 0,-39.607" style="fill:rgb(213,123,25);"/>
            </g>
        </g>
    </g>
</svg>
