<?xml version="1.0" encoding="UTF-8" standalone="no"?>
<!DOCTYPE svg PUBLIC "-//W3C//DTD SVG 1.1//EN" "http://www.w3.org/Graphics/SVG/1.1/DTD/svg11.dtd">
<svg width="100%" height="100%" viewBox="0 0 786 828" version="1.1" xmlns="http://www.w3.org/2000/svg" xmlns:xlink="http://www.w3.org/1999/xlink" xml:space="preserve" xmlns:serif="http://www.serif.com/" style="fill-rule:evenodd;clip-rule:evenodd;stroke-linejoin:round;stroke-miterlimit:2;">
    <g transform="matrix(1,0,0,1,-294.804,-144.12)">
        <g transform="matrix(4.16667,0,0,4.16667,0,0)">
            <g transform="matrix(1,0,0,1,182.875,223.479)">
                <path d="M0,-173.883L69.115,-104.767C78.92,-94.963 78.92,-78.919 69.115,-69.115L0,0.001C-9.805,9.805 -25.848,9.805 -35.653,0.001L-104.769,-69.115C-114.573,-78.919 -114.573,-94.963 -104.769,-104.767L-35.653,-173.883C-25.848,-183.688 -9.805,-183.688 0,-173.883" style="fill:rgb(78,124,76);"/>
            </g>
        </g>
        <g transform="matrix(4.16667,0,0,4.16667,0,0)">
            <g transform="matrix(-0.999812,0.0194133,0.0194133,0.999812,122.145,125.809)">
                <path d="M-4.108,-14.278C-3.972,-16.179 3.747,-18.571 6.454,-12.413C9.162,-6.254 4.675,2.633 -4.108,3.493C-12.89,4.354 -10.333,2.751 -10.333,2.751L-4.108,-14.278Z" style="fill:rgb(228,174,124);"/>
            </g>
        </g>
        <g transform="matrix(4.16667,0,0,4.16667,0,0)">
            <g transform="matrix(-0.999812,-0.0194133,-0.0194133,0.999812,208.138,125.809)">
                <path d="M4.107,-14.278C3.97,-16.179 -3.748,-18.571 -6.455,-12.413C-9.162,-6.254 -4.676,2.633 4.107,3.493C12.889,4.354 10.332,2.751 10.332,2.751L4.107,-14.278Z" style="fill:rgb(228,174,124);"/>
            </g>
        </g>
        <g transform="matrix(4.16667,0,0,4.16667,0,0)">
            <g transform="matrix(1,0,0,1,165.048,143.926)">
                <path d="M70.984,88.496L-70.984,88.496C-71.805,52.198 -43.878,31.126 -19.897,23.264C-17.953,13.136 -18.449,0 -18.449,0L18.45,0C18.45,0 17.953,13.136 19.898,23.264C43.878,31.126 71.805,52.198 70.984,88.496Z" style="fill:rgb(228,174,124);"/>
            </g>
        </g>
        <g transform="matrix(4.16667,0,0,4.16667,0,0)">
            <g transform="matrix(-0.189522,-0.981877,-0.981877,0.189522,148.801,141.259)">
                <path d="M-9.194,-33.563C-9.194,-33.563 -11.732,-32.973 -15.458,-32.317C-31.418,-22.1 -29.239,-0.36 -9.194,3.994C-5.113,3.116 -2.201,2.667 -2.201,2.667L-9.194,-33.563Z" style="fill:rgb(214,127,84);"/>
            </g>
        </g>
        <g transform="matrix(4.16667,0,0,4.16667,0,0)">
            <g transform="matrix(0.565822,-0.824527,-0.824527,-0.565822,233.377,157.787)">
                <path d="M-58.666,-46.415C-28.635,-26.824 -27.255,8.268 -34.496,33.117C-59.315,28.652 -71.546,47.469 -58.666,68.453C-79.234,84.212 -112.574,95.664 -141.734,74.633L-58.666,-46.415Z" style="fill:rgb(129,38,28);"/>
            </g>
        </g>
        <g transform="matrix(4.16667,0,0,4.16667,0,0)">
            <g transform="matrix(1,0,0,1,155.903,180.481)">
                <path d="M0,1.489C-0.771,1.05 -1.531,0.552 -2.275,0L-37.645,0C-38.299,0.485 -38.948,0.982 -39.591,1.489L0,1.489ZM57.88,1.489C57.238,0.982 56.591,0.485 55.936,0L20.809,0C20.066,0.553 19.308,1.05 18.54,1.489L57.88,1.489Z" style="fill:rgb(108,26,13);"/>
            </g>
        </g>
        <g transform="matrix(4.16667,0,0,4.16667,0,0)">
            <g transform="matrix(0.0120587,-0.999927,-0.999927,-0.0120587,166.544,132.985)">
                <path d="M-62.28,-61.547C-61.782,-61.18 -61.29,-60.804 -60.805,-60.424L-62.28,61.932C-62.775,62.3 -63.275,62.663 -63.783,63.018L-62.28,-61.547Z" style="fill:rgb(108,26,13);"/>
            </g>
        </g>
        <g transform="matrix(4.16667,0,0,4.16667,0,0)">
            <g transform="matrix(0.0107055,-0.999943,-0.999943,-0.0107055,166.539,139.524)">
                <path d="M-69.777,-69.04C-69.279,-68.85 -68.784,-68.654 -68.295,-68.451L-69.777,69.954C-70.271,70.146 -70.769,70.332 -71.271,70.512L-69.777,-69.04Z" style="fill:rgb(108,26,13);"/>
            </g>
        </g>
        <g transform="matrix(4.16667,0,0,4.16667,0,0)">
            <g transform="matrix(0.0102022,-0.999948,-0.999948,-0.0102022,166.538,150.277)">
                <path d="M-73.059,-72.319C-72.56,-72.26 -72.063,-72.197 -71.572,-72.126L-73.059,73.629C-73.552,73.69 -74.049,73.744 -74.55,73.793L-73.059,-72.319Z" style="fill:rgb(108,26,13);"/>
            </g>
        </g>
        <g transform="matrix(4.16667,0,0,4.16667,0,0)">
            <g transform="matrix(-0.999146,-0.0413178,-0.0413178,0.999146,100.24,232.376)">
                <path d="M-0.744,-36.022C-0.264,-35.278 0.201,-34.524 0.652,-33.756L-0.744,0.015L-2.232,-0.046L-0.744,-36.022Z" style="fill:rgb(108,26,13);"/>
            </g>
        </g>
        <g transform="matrix(4.16667,0,0,4.16667,0,0)">
            <g transform="matrix(-0.999567,-0.029413,-0.029413,0.999567,114.273,232.389)">
                <path d="M-0.744,-50.613C-0.256,-50.205 0.229,-49.792 0.709,-49.374L-0.744,0.011L-2.233,-0.033L-0.744,-50.613Z" style="fill:rgb(108,26,13);"/>
            </g>
        </g>
        <g transform="matrix(4.16667,0,0,4.16667,0,0)">
            <g transform="matrix(-0.999687,-0.0250287,-0.0250287,0.999687,128.304,232.394)">
                <path d="M-0.745,-59.522C-0.253,-59.257 0.236,-58.986 0.725,-58.71L-0.745,0.009L-2.235,-0.028L-0.745,-59.522Z" style="fill:rgb(108,26,13);"/>
            </g>
        </g>
        <g transform="matrix(4.16667,0,0,4.16667,0,0)">
            <g transform="matrix(1,0,0,1,144.571,230.672)">
                <path d="M0,-61.494C-0.284,-62.063 -0.562,-62.644 -0.83,-63.244C-1.049,-63.173 -1.269,-63.098 -1.489,-63.025L-1.489,1.75L0,1.75L0,-61.494Z" style="fill:rgb(108,26,13);"/>
            </g>
        </g>
        <g transform="matrix(4.16667,0,0,4.16667,0,0)">
            <g transform="matrix(-0.999031,-0.0440093,-0.0440093,0.999031,226.931,230.168)">
                <path d="M-0.793,-31.612C-0.28,-32.339 0.25,-33.051 0.792,-33.751L-0.793,2.221L-2.281,2.156L-0.793,-31.612Z" style="fill:rgb(108,26,13);"/>
            </g>
        </g>
        <g transform="matrix(4.16667,0,0,4.16667,0,0)">
            <g transform="matrix(-0.999546,-0.0301238,-0.0301238,0.999546,212.866,231.195)">
                <path d="M-0.762,-48.224C-0.259,-48.614 0.25,-48.995 0.762,-49.373L-0.762,1.205L-2.251,1.16L-0.762,-48.224Z" style="fill:rgb(108,26,13);"/>
            </g>
        </g>
        <g transform="matrix(4.16667,0,0,4.16667,0,0)">
            <g transform="matrix(-0.999679,-0.0253421,-0.0253421,0.999679,198.825,231.618)">
                <path d="M-0.754,-57.971C-0.252,-58.222 0.25,-58.468 0.754,-58.709L-0.754,0.785L-2.243,0.748L-0.754,-57.971Z" style="fill:rgb(108,26,13);"/>
            </g>
        </g>
        <g transform="matrix(4.16667,0,0,4.16667,0,0)">
            <g transform="matrix(1,0,0,1,187.014,232.265)">
                <path d="M0,-64.618C-0.154,-64.67 -0.308,-64.723 -0.461,-64.774C-0.792,-64.041 -1.134,-63.332 -1.489,-62.647L-1.489,0.156L0,0.156L0,-64.618Z" style="fill:rgb(108,26,13);"/>
            </g>
        </g>
        <g transform="matrix(4.16667,0,0,4.16667,0,0)">
            <g transform="matrix(1,0,0,1,182.67,232.355)">
                <path d="M0,-58.052C-9.879,-44.29 -25.369,-44.565 -35.07,-58.119L-38.647,-56.723L-29.204,-38.461L-29.204,0.067L-6.04,0.067L-6.04,-38.461L3.404,-56.723L0,-58.052Z" style="fill:rgb(38,29,27);"/>
            </g>
        </g>
        <g transform="matrix(4.16667,0,0,4.16667,0,0)">
            <g transform="matrix(1,0,0,1,165.048,42.6038)">
                <path d="M0,110.677C-45.773,111.777 -68.884,-1.1 0,1.792C68.884,-1.1 45.773,111.777 0,110.677" style="fill:rgb(228,174,124);"/>
            </g>
        </g>
        <g transform="matrix(4.16667,0,0,4.16667,0,0)">
            <g transform="matrix(-0.809726,-0.586808,-0.586808,0.809726,143.368,103.398)">
                <path d="M-2.406,-7.42C-4.671,-7.425 -6.509,-5.593 -6.508,-3.329C-6.508,-1.064 -4.672,0.775 -2.406,0.78C-0.14,0.786 1.697,-1.047 1.697,-3.312C1.698,-5.576 -0.14,-7.415 -2.406,-7.42" style="fill:rgb(32,32,30);"/>
            </g>
        </g>
        <g transform="matrix(4.16667,0,0,4.16667,0,0)">
            <g transform="matrix(-0.809726,0.586808,0.586808,0.809726,186.984,103.398)">
                <path d="M2.405,-7.42C4.671,-7.426 6.509,-5.593 6.508,-3.329C6.509,-1.065 4.672,0.775 2.405,0.78C0.141,0.785 -1.698,-1.047 -1.697,-3.312C-1.698,-5.576 0.14,-7.416 2.405,-7.42" style="fill:rgb(32,32,30);"/>
            </g>
        </g>
        <g transform="matrix(4.16667,0,0,4.16667,0,0)">
            <g transform="matrix(-0.547661,-0.836701,-0.836701,0.547661,136.229,114.389)">
                <path d="M-4.001,-7.403C-6.781,-8.375 -9.035,-7.023 -9.036,-4.381C-9.035,-1.739 -6.781,1.191 -4.001,2.163C-1.22,3.136 1.033,1.782 1.033,-0.859C1.033,-3.5 -1.221,-6.43 -4.001,-7.403" style="fill:rgb(218,144,119);"/>
            </g>
        </g>
        <g transform="matrix(4.16667,0,0,4.16667,0,0)">
            <g transform="matrix(-0.547661,0.836701,0.836701,0.547661,194.125,114.388)">
                <path d="M4.002,-7.404C6.783,-8.377 9.036,-7.023 9.037,-4.381C9.037,-1.74 6.783,1.19 4.002,2.162C1.221,3.135 -1.032,1.782 -1.032,-0.859C-1.031,-3.501 1.222,-6.43 4.002,-7.404" style="fill:rgb(218,144,119);"/>
            </g>
        </g>
        <g transform="matrix(4.16667,0,0,4.16667,0,0)">
            <g transform="matrix(1,0,0,1,151.462,91.598)">
                <path d="M0,-3.93C-0.151,-3.996 -0.305,-4.059 -0.461,-4.118C-2.25,-4.763 -3.767,-4.938 -5.699,-4.799C-7.591,-4.597 -9.003,-4.171 -10.59,-3.265C-11.33,-2.788 -14.22,-0.449 -13.401,0.414C-13.067,0.506 -10.188,-0.964 -9.343,-1.239C-8.027,-1.627 -6.96,-1.776 -5.566,-1.747C-4.267,-1.688 -3.289,-1.499 -2.105,-1.042C-2.073,-1.037 -1.86,-0.94 -1.814,-0.92C0.601,0.254 0.382,1.008 2.028,-0.121C4.564,-1.471 1.955,-2.914 0,-3.93" style="fill:rgb(63,39,22);"/>
            </g>
        </g>
        <g transform="matrix(4.16667,0,0,4.16667,0,0)">
            <g transform="matrix(1,0,0,1,178.635,91.598)">
                <path d="M0,-3.93C0.152,-3.996 0.305,-4.059 0.461,-4.118C2.25,-4.763 3.767,-4.938 5.699,-4.799C7.591,-4.597 9.004,-4.171 10.59,-3.265C11.331,-2.788 14.22,-0.449 13.401,0.414C13.067,0.506 10.188,-0.964 9.343,-1.239C8.027,-1.627 6.96,-1.776 5.567,-1.747C4.268,-1.688 3.29,-1.499 2.106,-1.042C2.074,-1.037 1.86,-0.94 1.814,-0.92C-0.6,0.254 -0.381,1.008 -2.028,-0.121C-4.563,-1.471 -1.955,-2.914 0,-3.93" style="fill:rgb(63,39,22);"/>
            </g>
        </g>
        <g transform="matrix(4.16667,0,0,4.16667,0,0)">
            <g transform="matrix(1,0,0,1,153.175,132.164)">
                <path d="M0,-8.904C4.219,-8.957 8.422,-8.983 12.624,-8.983C16.827,-8.983 21.029,-8.957 25.248,-8.904C25.248,-2.285 18.721,0.079 12.646,0.079L12.624,0.078L12.602,0.079C6.527,0.079 0,-2.285 0,-8.904" style="fill:white;"/>
            </g>
        </g>
        <g transform="matrix(4.16667,0,0,4.16667,0,0)">
            <g transform="matrix(1,0,0,1,162.897,135.934)">
                <path d="M0,0.253C-0.236,0.115 -0.314,-0.189 -0.176,-0.424C-0.038,-0.66 0.265,-0.739 0.5,-0.601C1.183,-0.201 2.052,-0 2.922,-0C3.791,-0 4.644,-0.199 5.299,-0.597C5.532,-0.737 5.836,-0.664 5.978,-0.43C6.119,-0.197 6.044,0.108 5.811,0.249C4.994,0.744 3.958,0.992 2.922,0.992C1.888,0.992 0.84,0.745 0,0.253" style="fill:rgb(214,127,84);"/>
            </g>
        </g>
        <g transform="matrix(4.16667,0,0,4.16667,0,0)">
            <g transform="matrix(1,0,0,1,164.674,101.24)">
                <path d="M0,12.937C-0.273,12.937 -0.496,12.714 -0.496,12.441C-0.496,12.167 -0.273,11.944 0,11.944C1.191,11.944 2.615,11.934 3.713,11.748C4.617,11.594 5.282,11.35 5.282,10.937C5.282,9.51 3.835,0.635 3.831,0.609C3.789,0.339 3.973,0.086 4.243,0.043C4.512,0 4.765,0.185 4.809,0.454C4.812,0.48 6.274,9.448 6.274,10.937C6.274,11.983 5.258,12.49 3.876,12.724C2.691,12.925 1.226,12.937 0,12.937" style="fill:rgb(214,127,84);"/>
            </g>
        </g>
        <g transform="matrix(4.16667,0,0,4.16667,0,0)">
            <g transform="matrix(1,0,0,1,212.018,120.911)">
                <path d="M0,-2.486C0,-2.212 -0.222,-1.989 -0.496,-1.989C-0.771,-1.989 -0.992,-2.212 -0.992,-2.486C-0.992,-3.992 -1.253,-4.941 -1.672,-5.456C-1.924,-5.766 -2.242,-5.908 -2.595,-5.916C-3.001,-5.926 -3.465,-5.773 -3.946,-5.5C-5.249,-4.763 -6.597,-3.198 -7.342,-1.494C-7.701,-0.674 -8.011,0.17 -8.188,0.807C-7.426,0.278 -6.585,0.066 -5.876,0.138C-5.473,0.179 -5.104,0.309 -4.807,0.524C-4.492,0.75 -4.258,1.064 -4.141,1.459C-3.937,2.139 -4.094,3.054 -4.824,4.145C-4.977,4.372 -5.284,4.432 -5.511,4.28C-5.738,4.128 -5.799,3.821 -5.646,3.594C-5.101,2.78 -4.965,2.159 -5.09,1.742C-5.143,1.565 -5.246,1.426 -5.385,1.326C-5.54,1.215 -5.742,1.145 -5.973,1.122C-6.61,1.058 -7.417,1.337 -8.089,2.013C-8.269,2.193 -8.438,2.296 -8.593,2.329C-8.991,2.415 -9.223,2.24 -9.31,1.85L-9.315,1.823C-9.345,1.676 -9.338,1.479 -9.301,1.244C-9.188,0.539 -8.765,-0.71 -8.249,-1.889C-7.422,-3.78 -5.907,-5.527 -4.436,-6.361C-3.804,-6.719 -3.167,-6.918 -2.576,-6.905C-1.932,-6.89 -1.355,-6.635 -0.904,-6.08C-0.347,-5.394 0,-4.238 0,-2.486" style="fill:rgb(214,127,84);"/>
            </g>
        </g>
        <g transform="matrix(4.16667,0,0,4.16667,0,0)">
            <g transform="matrix(1,0,0,1,119.071,120.911)">
                <path d="M0,-2.486C0,-2.212 -0.221,-1.989 -0.496,-1.989C-0.77,-1.989 -0.992,-2.212 -0.992,-2.486C-0.992,-4.238 -0.646,-5.394 -0.087,-6.08C0.364,-6.635 0.94,-6.89 1.584,-6.905C2.176,-6.918 2.812,-6.719 3.443,-6.361C4.916,-5.527 6.43,-3.78 7.257,-1.889C7.773,-0.71 8.197,0.539 8.309,1.244C8.346,1.479 8.353,1.676 8.324,1.823L8.317,1.85C8.231,2.24 8,2.415 7.602,2.329C7.446,2.296 7.276,2.193 7.097,2.013C6.425,1.337 5.618,1.058 4.981,1.122C4.75,1.145 4.548,1.215 4.393,1.326C4.254,1.426 4.15,1.565 4.098,1.742C3.974,2.159 4.109,2.78 4.655,3.594C4.807,3.821 4.746,4.128 4.519,4.28C4.292,4.432 3.984,4.372 3.833,4.145C3.102,3.054 2.945,2.139 3.148,1.459C3.266,1.064 3.5,0.75 3.815,0.524C4.113,0.309 4.481,0.179 4.884,0.138C5.594,0.066 6.434,0.278 7.196,0.807C7.019,0.17 6.709,-0.674 6.35,-1.494C5.605,-3.198 4.257,-4.763 2.955,-5.5C2.473,-5.773 2.009,-5.926 1.603,-5.916C1.25,-5.908 0.932,-5.766 0.68,-5.456C0.261,-4.941 0,-3.992 0,-2.486" style="fill:rgb(214,127,84);"/>
            </g>
        </g>
        <g transform="matrix(4.16667,0,0,4.16667,0,0)">
            <g transform="matrix(1,0,0,1,165.39,85.4548)">
                <path d="M0,-22.197C0,-0.163 15.834,-4.386 25.36,0.785C32.504,4.665 31.468,5.115 33.438,13.04C35.245,20.314 35.899,31.729 36.853,35.632C51.222,0.053 57.205,-16.581 37.731,-32.224C26.086,-41.578 17.792,-60.135 -0.053,-45.335C-23.872,-57.509 -26.044,-41.51 -37.731,-32.224C-53.764,-19.486 -55.186,-6.775 -50.65,6.578C-48.694,12.337 -37.144,34.695 -36.056,37.938C-34.585,23.073 -35.531,10.104 -30.857,5.017C-26.562,0.341 -17.404,-0.302 -12.489,-3.383C-3.799,-8.829 0,-15.752 0,-22.197" style="fill:rgb(78,44,11);"/>
            </g>
        </g>
        <g transform="matrix(4.16667,0,0,4.16667,0,0)">
            <g transform="matrix(1,0,0,1,201.722,55.2234)">
                <path d="M0,62.905C-0.723,57.772 -1.43,49.164 -2.895,43.271C-4.864,35.347 -3.828,34.896 -10.972,31.016C-20.498,25.845 -36.332,30.069 -36.332,8.034C-36.332,14.479 -40.131,21.402 -48.821,26.848C-53.736,29.929 -62.895,30.572 -67.189,35.248C-71.863,40.336 -70.917,53.304 -72.388,68.17C-73.476,64.926 -85.026,42.569 -86.982,36.809C-88.727,31.671 -89.589,26.628 -89.077,21.642C-86.897,23.291 -81.691,24.274 -79.368,24.746C-74.385,25.76 -68.929,24.431 -63.739,22.308C-52.184,17.581 -43.255,15.218 -39.579,5.239C-35.902,-4.74 -35.902,-5.265 -35.902,-5.265C-35.902,-5.265 -35.115,13.642 -14.631,18.894C-6.232,21.049 0.622,22.672 5.678,22.697C6.785,22.703 10.31,21.798 13.772,20.794C16.859,36.809 8.598,45.859 0.607,65.65C0.573,65.72 0.542,65.791 0.521,65.863C0.493,65.748 0.464,65.626 0.437,65.497L0.429,65.457L0.391,65.274L0.389,65.267L0.387,65.258C0.373,65.19 0.359,65.12 0.346,65.049L0.346,65.047L0.305,64.831L0.302,64.817L0.302,64.815L0,62.905ZM0,62.905L0.006,62.953L0.008,62.962L0.039,63.184L0.047,63.239L0.049,63.244L0.056,63.294L0.08,63.456L0.088,63.509L0.09,63.528L0.095,63.562L0.104,63.615L0.119,63.719L0.128,63.771L0.132,63.804L0.135,63.823L0.138,63.833L0.174,64.066L0.174,64.071L0.176,64.076L0.215,64.318L0.215,64.321L0.217,64.329L0.219,64.339L0.256,64.558C0.256,64.558 0.259,64.578 0,62.905" style="fill:rgb(69,40,19);"/>
            </g>
        </g>
        <g transform="matrix(4.16667,0,0,4.16667,0,0)">
            <g transform="matrix(0.193455,0.981109,0.981109,-0.193455,161.167,175.766)">
                <path d="M-20.932,-11.063L16.296,-11.063C13.726,-12.145 7.535,-15.233 6.765,-19.136C6.275,-21.623 9.51,-32.025 8.957,-31.844C-10.447,-25.51 -17.639,-18.834 -20.932,-11.063" style="fill:rgb(99,36,33);"/>
            </g>
        </g>
        <g transform="matrix(4.16667,0,0,4.16667,0,0)">
            <g transform="matrix(-0.193481,0.981104,0.981104,0.193481,206.024,175.499)">
                <path d="M-13.458,-25.462L23.77,-25.462C21.2,-24.379 15.009,-21.292 14.239,-17.387C13.749,-14.9 16.984,-4.5 16.431,-4.68C-2.973,-11.014 -10.165,-17.69 -13.458,-25.462" style="fill:rgb(99,36,33);"/>
            </g>
        </g>
        <g transform="matrix(4.16667,0,0,4.16667,0,0)">
            <g transform="matrix(1,0,0,1,113.285,232.427)">
                <path d="M0,-20.55C0.003,-20.959 0.338,-21.289 0.748,-21.286C1.157,-21.283 1.486,-20.948 1.483,-20.539L1.3,0.001C1.297,0.41 0.962,0.739 0.553,0.736C0.144,0.733 -0.185,0.398 -0.183,-0.011L0,-20.55Z" style="fill:rgb(88,18,0);"/>
            </g>
        </g>
        <g transform="matrix(4.16667,0,0,4.16667,0,0)">
            <g transform="matrix(1,0,0,1,215.512,232.427)">
                <path d="M0,-20.55C0.003,-20.959 0.338,-21.289 0.747,-21.286C1.156,-21.283 1.485,-20.948 1.482,-20.539L1.3,0.001C1.297,0.41 0.962,0.739 0.553,0.736C0.144,0.733 -0.187,0.398 -0.184,-0.011L0,-20.55Z" style="fill:rgb(88,18,0);"/>
            </g>
        </g>
        <g transform="matrix(4.16667,0,0,4.16667,0,0)">
            <g transform="matrix(1,0,0,1,158.502,77.5246)">
                <path d="M0,-25.631C0.052,-25.901 0.311,-26.076 0.58,-26.025C0.849,-25.973 1.024,-25.714 0.974,-25.445C0.174,-21.312 -1.229,-16.975 -4.105,-13.129C-6.985,-9.278 -11.331,-5.933 -18.007,-3.797C-31.262,0.445 -36.1,-0.629 -36.114,-0.631C-36.382,-0.687 -36.554,-0.948 -36.5,-1.215C-36.445,-1.483 -36.184,-1.655 -35.917,-1.601C-35.903,-1.598 -31.314,-0.577 -18.309,-4.738C-11.855,-6.803 -7.666,-10.023 -4.9,-13.722C-2.13,-17.426 -0.775,-21.624 0,-25.631" style="fill:rgb(94,66,46);"/>
            </g>
        </g>
        <g transform="matrix(4.16667,0,0,4.16667,0,0)">
            <g transform="matrix(1,0,0,1,121.353,41.1155)">
                <path d="M0,30.656C-0.122,30.9 -0.418,30.998 -0.664,30.877C-0.907,30.755 -1.006,30.458 -0.884,30.214C0.533,27.379 2.85,24.957 5.715,22.863C8.556,20.787 11.938,19.029 15.514,17.506C19.335,15.878 21.121,12.144 22.737,8.763C24.058,6.001 25.272,3.462 27.42,2.295C32.28,-0.342 39.854,4.664 39.876,4.678C40.106,4.828 40.17,5.136 40.02,5.364C39.871,5.594 39.563,5.658 39.334,5.508C39.313,5.494 32.225,0.813 27.894,3.164C26.025,4.178 24.877,6.579 23.629,9.19C21.935,12.732 20.064,16.643 15.902,18.417C12.389,19.913 9.073,21.635 6.301,23.662C3.553,25.67 1.34,27.976 0,30.656" style="fill:rgb(94,66,46);"/>
            </g>
        </g>
        <g transform="matrix(4.16667,0,0,4.16667,0,0)">
            <g transform="matrix(1,0,0,1,171.107,77.3386)">
                <path d="M0,-25.259C-0.051,-25.528 0.125,-25.787 0.394,-25.839C0.662,-25.89 0.922,-25.715 0.973,-25.445C1.749,-21.438 3.104,-17.24 5.874,-13.536C8.64,-9.837 12.829,-6.617 19.282,-4.552C32.288,-0.391 36.876,-1.412 36.89,-1.415C37.157,-1.469 37.418,-1.297 37.473,-1.029C37.528,-0.762 37.355,-0.501 37.087,-0.446C37.074,-0.443 32.236,0.631 18.98,-3.611C12.304,-5.747 7.958,-9.092 5.078,-12.943C2.203,-16.789 0.8,-21.126 0,-25.259" style="fill:rgb(94,66,46);"/>
            </g>
        </g>
        <g transform="matrix(4.16667,0,0,4.16667,0,0)">
            <g transform="matrix(1,0,0,1,210.113,41.5591)">
                <path d="M0,29.77C0.122,30.015 0.023,30.312 -0.221,30.433C-0.465,30.555 -0.762,30.457 -0.884,30.212C-2.224,27.532 -4.437,25.226 -7.185,23.218C-9.957,21.191 -13.272,19.469 -16.786,17.973C-20.948,16.2 -22.819,12.289 -24.513,8.747C-25.761,6.135 -26.909,3.735 -28.777,2.72C-33.109,0.369 -40.198,5.051 -40.218,5.064C-40.447,5.214 -40.754,5.15 -40.904,4.921C-41.054,4.692 -40.99,4.385 -40.761,4.235C-40.739,4.221 -33.164,-0.785 -28.304,1.852C-26.156,3.018 -24.942,5.558 -23.621,8.32C-22.004,11.701 -20.219,15.435 -16.398,17.062C-12.821,18.585 -9.44,20.343 -6.6,22.419C-3.734,24.514 -1.417,26.936 0,29.77" style="fill:rgb(94,66,46);"/>
            </g>
        </g>
    </g>
</svg>
