<?xml version="1.0" encoding="UTF-8" standalone="no"?>
<!DOCTYPE svg PUBLIC "-//W3C//DTD SVG 1.1//EN" "http://www.w3.org/Graphics/SVG/1.1/DTD/svg11.dtd">
<svg width="100%" height="100%" viewBox="0 0 786 796" version="1.1" xmlns="http://www.w3.org/2000/svg" xmlns:xlink="http://www.w3.org/1999/xlink" xml:space="preserve" xmlns:serif="http://www.serif.com/" style="fill-rule:evenodd;clip-rule:evenodd;stroke-linejoin:round;stroke-miterlimit:2;">
    <g transform="matrix(1,0,0,1,-1169.6,-176.008)">
        <g transform="matrix(4.16667,0,0,4.16667,0,0)">
            <g transform="matrix(1,0,0,1,392.826,223.479)">
                <path d="M0,-173.883L69.116,-104.767C78.921,-94.963 78.921,-78.919 69.116,-69.115L0,0.001C-9.804,9.805 -25.848,9.805 -35.651,0.001L-104.769,-69.115C-114.572,-78.919 -114.572,-94.963 -104.769,-104.767L-35.651,-173.883C-25.848,-183.688 -9.804,-183.688 0,-173.883" style="fill:rgb(227,175,178);"/>
            </g>
        </g>
        <g transform="matrix(4.16667,0,0,4.16667,0,0)">
            <g transform="matrix(0,1,1,0,370.81,149.494)">
                <path d="M-105.02,4.19L-4.277,4.19C34.772,-18.355 9.423,-79.582 -36.825,-59.807C-63.811,-48.268 -118.544,-39.487 -105.02,4.19Z" style="fill:rgb(33,0,0);"/>
            </g>
        </g>
        <g transform="matrix(4.16667,0,0,4.16667,0,0)">
            <g transform="matrix(0,1,1,0,454.582,65.7231)">
                <path d="M-21.248,-79.582L79.494,-79.582C118.543,-57.036 93.195,4.189 46.947,-15.584C19.961,-27.123 -34.773,-35.906 -21.248,-79.582Z" style="fill:rgb(33,0,0);"/>
            </g>
        </g>
        <g transform="matrix(4.16667,0,0,4.16667,0,0)">
            <g transform="matrix(-0.999812,0.0194133,0.0194133,0.999812,332.098,129.171)">
                <path d="M-4.106,-14.278C-3.969,-16.179 3.749,-18.571 6.455,-12.413C9.163,-6.254 4.677,2.633 -4.106,3.493C-12.889,4.354 -10.332,2.751 -10.332,2.751L-4.106,-14.278Z" style="fill:rgb(228,174,124);"/>
            </g>
        </g>
        <g transform="matrix(4.16667,0,0,4.16667,0,0)">
            <g transform="matrix(-0.999812,-0.0194133,-0.0194133,0.999812,418.089,129.171)">
                <path d="M4.106,-14.278C3.969,-16.179 -3.748,-18.571 -6.455,-12.413C-9.163,-6.254 -4.676,2.633 4.106,3.493C12.889,4.354 10.331,2.751 10.331,2.751L4.106,-14.278Z" style="fill:rgb(228,174,124);"/>
            </g>
        </g>
        <g transform="matrix(4.16667,0,0,4.16667,0,0)">
            <g transform="matrix(1,0,0,1,375,143.926)">
                <path d="M70.984,88.496L-70.983,88.496C-71.806,52.198 -43.878,31.126 -19.897,23.264C-17.952,13.136 -18.449,0 -18.449,0L18.45,0C18.45,0 17.953,13.136 19.898,23.264C43.879,31.126 71.807,52.198 70.984,88.496Z" style="fill:rgb(228,174,124);"/>
            </g>
        </g>
        <g transform="matrix(4.16667,0,0,4.16667,0,0)">
            <g transform="matrix(0.194785,-0.980846,-0.980846,-0.194785,373.267,141.479)">
                <path d="M-9.638,-22.627C-27.239,-18.456 -33.116,2.008 -17.508,13.737C-14.489,14.161 -11.732,14.658 -9.638,15.071L-2.472,-21.01C-4.42,-21.4 -6.923,-21.94 -9.638,-22.627" style="fill:rgb(214,127,84);"/>
            </g>
        </g>
        <g transform="matrix(4.16667,0,0,4.16667,0,0)">
            <g transform="matrix(1,0,0,1,375,45.9656)">
                <path d="M0,110.677C-45.773,111.777 -68.884,-1.1 0,1.792C68.884,-1.1 45.774,111.777 0,110.677" style="fill:rgb(228,174,124);"/>
            </g>
        </g>
        <g transform="matrix(4.16667,0,0,4.16667,0,0)">
            <g transform="matrix(-0.80981,-0.586692,-0.586692,0.80981,353.319,108.849)">
                <path d="M-2.406,-7.422C-4.673,-7.426 -6.509,-5.593 -6.509,-3.329C-6.51,-1.065 -4.672,0.775 -2.406,0.78C-0.14,0.783 1.697,-1.049 1.697,-3.312C1.697,-5.578 -0.14,-7.417 -2.406,-7.422" style="fill:rgb(32,32,30);"/>
            </g>
        </g>
        <g transform="matrix(4.16667,0,0,4.16667,0,0)">
            <g transform="matrix(-0.80981,0.586692,0.586692,0.80981,396.937,108.849)">
                <path d="M2.406,-7.422C4.672,-7.425 6.509,-5.593 6.51,-3.329C6.509,-1.064 4.672,0.775 2.406,0.78C0.14,0.783 -1.697,-1.049 -1.696,-3.313C-1.697,-5.578 0.14,-7.417 2.406,-7.422" style="fill:rgb(32,32,30);"/>
            </g>
        </g>
        <g transform="matrix(4.16667,0,0,4.16667,0,0)">
            <g transform="matrix(-0.547661,-0.836701,-0.836701,0.547661,346.18,119.837)">
                <path d="M-4.003,-7.402C-6.783,-8.375 -9.037,-7.021 -9.037,-4.381C-9.037,-1.739 -6.783,1.191 -4.003,2.164C-1.222,3.137 1.031,1.784 1.03,-0.858C1.031,-3.5 -1.223,-6.429 -4.003,-7.402" style="fill:rgb(218,144,119);"/>
            </g>
        </g>
        <g transform="matrix(4.16667,0,0,4.16667,0,0)">
            <g transform="matrix(-0.547661,0.836701,0.836701,0.547661,404.075,119.838)">
                <path d="M4.002,-7.401C6.781,-8.374 9.036,-7.021 9.035,-4.38C9.036,-1.739 6.781,1.192 4.002,2.165C1.221,3.138 -1.032,1.784 -1.031,-0.857C-1.032,-3.5 1.222,-6.429 4.002,-7.401" style="fill:rgb(218,144,119);"/>
            </g>
        </g>
        <g transform="matrix(4.16667,0,0,4.16667,0,0)">
            <g transform="matrix(1,0,0,1,361.414,97.0462)">
                <path d="M0,-3.928C-0.152,-3.995 -0.305,-4.057 -0.462,-4.116C-2.249,-4.762 -3.767,-4.937 -5.698,-4.797C-7.592,-4.597 -9.005,-4.169 -10.59,-3.264C-11.331,-2.787 -14.221,-0.447 -13.401,0.415C-13.066,0.508 -10.188,-0.963 -9.343,-1.238C-8.026,-1.626 -6.96,-1.774 -5.566,-1.746C-4.269,-1.686 -3.29,-1.497 -2.105,-1.041C-2.073,-1.035 -1.859,-0.938 -1.814,-0.918C0.6,0.255 0.382,1.009 2.027,-0.12C4.563,-1.469 1.954,-2.913 0,-3.928" style="fill:rgb(63,39,22);"/>
            </g>
        </g>
        <g transform="matrix(4.16667,0,0,4.16667,0,0)">
            <g transform="matrix(1,0,0,1,388.586,97.0462)">
                <path d="M0,-3.928C0.153,-3.995 0.305,-4.057 0.462,-4.116C2.25,-4.762 3.768,-4.937 5.699,-4.797C7.593,-4.597 9.005,-4.169 10.591,-3.264C11.332,-2.787 14.221,-0.447 13.401,0.415C13.067,0.508 10.188,-0.963 9.343,-1.238C8.027,-1.626 6.961,-1.774 5.567,-1.746C4.269,-1.686 3.291,-1.497 2.106,-1.041C2.074,-1.035 1.86,-0.938 1.815,-0.918C-0.6,0.255 -0.382,1.009 -2.026,-0.12C-4.562,-1.469 -1.953,-2.913 0,-3.928" style="fill:rgb(63,39,22);"/>
            </g>
        </g>
        <g transform="matrix(4.16667,0,0,4.16667,0,0)">
            <g transform="matrix(1,0,0,1,386.919,135.421)">
                <path d="M0,-5.376C0.137,-5.612 0.438,-5.693 0.676,-5.556C0.912,-5.419 0.993,-5.116 0.856,-4.88C-0.161,-3.131 -1.803,-1.885 -3.751,-1.055C-5.976,-0.107 -8.603,0.301 -11.146,0.301L-11.189,0.299C-13.619,0.318 -16.274,-0.071 -18.549,-1.04C-20.487,-1.864 -22.154,-3.109 -23.187,-4.877C-23.325,-5.114 -23.246,-5.418 -23.01,-5.556C-22.773,-5.694 -22.47,-5.615 -22.331,-5.378C-21.415,-3.809 -19.914,-2.696 -18.161,-1.95C-16.015,-1.037 -13.497,-0.671 -11.188,-0.689L-11.146,-0.691C-8.722,-0.691 -6.23,-1.074 -4.139,-1.965C-2.377,-2.716 -0.9,-3.828 0,-5.376" style="fill:rgb(78,44,11);"/>
            </g>
        </g>
        <g transform="matrix(4.16667,0,0,4.16667,0,0)">
            <g transform="matrix(1,0,0,1,372.849,141.386)">
                <path d="M0,0.25C-0.235,0.113 -0.314,-0.19 -0.176,-0.426C-0.038,-0.662 0.265,-0.74 0.501,-0.602C1.183,-0.203 2.052,-0.003 2.922,-0.003C3.79,-0.003 4.646,-0.201 5.299,-0.599C5.533,-0.74 5.836,-0.665 5.978,-0.432C6.119,-0.199 6.044,0.105 5.811,0.247C4.994,0.743 3.958,0.99 2.922,0.99C1.889,0.99 0.841,0.744 0,0.25" style="fill:rgb(214,127,84);"/>
            </g>
        </g>
        <g transform="matrix(4.16667,0,0,4.16667,0,0)">
            <g transform="matrix(1,0,0,1,374.627,110.741)">
                <path d="M0,12.937C-0.274,12.937 -0.496,12.714 -0.496,12.44C-0.496,12.167 -0.274,11.944 0,11.944C1.191,11.944 2.614,11.933 3.714,11.747C4.616,11.594 5.281,11.349 5.281,10.937C5.281,9.509 3.835,0.634 3.83,0.609C3.787,0.339 3.972,0.085 4.241,0.043C4.511,0 4.766,0.184 4.808,0.454C4.812,0.479 6.273,9.448 6.273,10.937C6.273,11.983 5.257,12.49 3.876,12.724C2.69,12.924 1.224,12.937 0,12.937" style="fill:rgb(214,127,84);"/>
            </g>
        </g>
        <g transform="matrix(4.16667,0,0,4.16667,0,0)">
            <g transform="matrix(1,0,0,1,421.97,124.272)">
                <path d="M0,-2.485C0,-2.211 -0.223,-1.989 -0.496,-1.989C-0.771,-1.989 -0.993,-2.211 -0.993,-2.485C-0.993,-3.992 -1.254,-4.94 -1.673,-5.456C-1.925,-5.765 -2.243,-5.907 -2.596,-5.915C-3.002,-5.924 -3.466,-5.773 -3.947,-5.5C-5.249,-4.762 -6.597,-3.197 -7.342,-1.493C-7.702,-0.673 -8.011,0.171 -8.188,0.809C-7.427,0.278 -6.586,0.067 -5.876,0.139C-5.473,0.179 -5.105,0.309 -4.808,0.524C-4.492,0.751 -4.258,1.064 -4.141,1.46C-3.938,2.14 -4.094,3.055 -4.825,4.145C-4.978,4.372 -5.284,4.433 -5.512,4.282C-5.738,4.129 -5.799,3.822 -5.647,3.595C-5.102,2.78 -4.967,2.16 -5.091,1.743C-5.143,1.566 -5.247,1.427 -5.385,1.327C-5.539,1.216 -5.742,1.146 -5.973,1.123C-6.61,1.059 -7.417,1.337 -8.089,2.013C-8.27,2.194 -8.438,2.297 -8.594,2.329C-8.991,2.415 -9.223,2.24 -9.311,1.85L-9.315,1.824C-9.345,1.677 -9.338,1.479 -9.302,1.245C-9.189,0.539 -8.766,-0.71 -8.249,-1.889C-7.423,-3.779 -5.908,-5.527 -4.436,-6.361C-3.804,-6.718 -3.168,-6.918 -2.577,-6.904C-1.933,-6.889 -1.355,-6.634 -0.904,-6.079C-0.348,-5.394 0,-4.237 0,-2.485" style="fill:rgb(214,127,84);"/>
            </g>
        </g>
        <g transform="matrix(4.16667,0,0,4.16667,0,0)">
            <g transform="matrix(1,0,0,1,329.024,124.272)">
                <path d="M0,-2.485C0,-2.211 -0.224,-1.989 -0.497,-1.989C-0.771,-1.989 -0.993,-2.211 -0.993,-2.485C-0.993,-4.237 -0.646,-5.394 -0.089,-6.079C0.362,-6.634 0.939,-6.889 1.583,-6.904C2.174,-6.918 2.811,-6.718 3.442,-6.361C4.915,-5.527 6.43,-3.779 7.256,-1.889C7.771,-0.71 8.195,0.539 8.308,1.245C8.345,1.479 8.351,1.677 8.322,1.824L8.316,1.85C8.229,2.24 7.998,2.416 7.6,2.329C7.444,2.297 7.276,2.194 7.096,2.013C6.424,1.337 5.617,1.059 4.979,1.123C4.748,1.146 4.546,1.216 4.392,1.327C4.253,1.427 4.149,1.566 4.097,1.743C3.973,2.16 4.107,2.78 4.654,3.595C4.806,3.822 4.745,4.129 4.518,4.282C4.291,4.433 3.983,4.372 3.832,4.145C3.101,3.055 2.944,2.14 3.146,1.46C3.265,1.064 3.498,0.751 3.813,0.524C4.112,0.309 4.479,0.179 4.883,0.139C5.592,0.067 6.433,0.278 7.195,0.809C7.018,0.171 6.708,-0.673 6.349,-1.493C5.604,-3.197 4.256,-4.762 2.954,-5.5C2.473,-5.773 2.008,-5.924 1.603,-5.915C1.249,-5.907 0.931,-5.765 0.679,-5.456C0.26,-4.94 0,-3.992 0,-2.485" style="fill:rgb(214,127,84);"/>
            </g>
        </g>
        <g transform="matrix(4.16667,0,0,4.16667,0,0)">
            <g transform="matrix(1,0,0,1,373.894,123.856)">
                <path d="M0,-53.943C18.062,-53.951 35.851,-49.436 35.315,-40.346C33.86,-11.378 44.374,-0.295 22.342,38.354C27.008,37.487 34.22,36.411 38.396,33.136C53.614,21.203 63.346,8.81 57.715,-17.324C51.492,-46.205 43.252,-92.297 1.018,-79.381C0.924,-79.41 0.833,-79.431 0.74,-79.461L-0.28,-53.943L0,-53.943" style="fill:rgb(49,22,0);"/>
            </g>
        </g>
        <g transform="matrix(4.16667,0,0,4.16667,0,0)">
            <g transform="matrix(1,0,0,1,375.822,123.856)">
                <path d="M0,-53.943C-18.062,-53.951 -35.805,-49.436 -35.179,-40.346C-33.433,-11.378 -43.834,-0.295 -21.414,38.354C-26.09,37.487 -33.313,36.411 -37.522,33.136C-52.858,21.203 -62.715,8.81 -57.347,-17.324C-51.413,-46.205 -43.636,-92.297 -1.271,-79.381C-1.179,-79.41 -1.089,-79.431 -0.995,-79.461L0.28,-53.943L0,-53.943" style="fill:rgb(49,22,0);"/>
            </g>
        </g>
        <g transform="matrix(4.16667,0,0,4.16667,0,0)">
            <g transform="matrix(0,-1,-1,0,398.007,31.9311)">
                <path d="M-69.087,-20.225C-57.146,-19.625 -18.92,-15.409 -18.92,23.007C-18.92,66.154 -63.422,69.136 -69.087,64.755C-70.392,61.967 -60.824,53.268 -60.824,22.256C-60.824,-9.344 -70.053,-20.274 -69.087,-20.225" style="fill:rgb(69,40,7);"/>
            </g>
        </g>
        <g transform="matrix(4.16667,0,0,4.16667,0,0)">
            <g transform="matrix(1,0,0,1,332.106,209.262)">
                <path d="M0,-6.587C-1.811,-12.557 -2.08,-22.681 -2.038,-29.219C-25.725,-29.747 -42.431,4.111 -34.373,23.16L120.163,23.16C128.22,4.111 111.514,-29.747 87.827,-29.219C87.87,-22.681 87.601,-12.557 85.79,-6.587C81.595,7.243 4.195,7.243 0,-6.587" style="fill:rgb(126,148,147);"/>
            </g>
        </g>
        <g transform="matrix(4.16667,0,0,4.16667,0,0)">
            <g transform="matrix(1,0,0,1,315.069,184.593)">
                <path d="M0,6.889C-0.174,7.101 -0.486,7.132 -0.698,6.958C-0.91,6.785 -0.941,6.472 -0.768,6.26C1.291,3.743 3.999,2.098 6.612,1.13C10.214,-0.205 13.691,-0.243 15.077,0.491C15.319,0.618 15.413,0.918 15.285,1.16C15.157,1.402 14.858,1.494 14.616,1.367C13.426,0.736 10.295,0.822 6.953,2.061C4.487,2.975 1.935,4.524 0,6.889" style="fill:rgb(93,112,110);"/>
            </g>
        </g>
        <g transform="matrix(4.16667,0,0,4.16667,0,0)">
            <g transform="matrix(1,0,0,1,317.695,190.59)">
                <path d="M0,6.276C-0.174,6.488 -0.485,6.519 -0.698,6.346C-0.91,6.172 -0.941,5.859 -0.768,5.648C1.029,3.452 3.193,2.009 5.327,1.123C8.132,-0.042 10.896,-0.243 12.702,0.074C12.973,0.121 13.153,0.378 13.105,0.649C13.059,0.918 12.802,1.098 12.532,1.051C10.875,0.76 8.322,0.952 5.707,2.038C3.71,2.867 1.684,4.219 0,6.276" style="fill:rgb(93,112,110);"/>
            </g>
        </g>
        <g transform="matrix(4.16667,0,0,4.16667,0,0)">
            <g transform="matrix(1,0,0,1,435.699,185.222)">
                <path d="M0,5.631C0.174,5.843 0.142,6.156 -0.07,6.329C-0.282,6.503 -0.594,6.472 -0.768,6.26C-2.703,3.895 -5.255,2.346 -7.721,1.432C-11.063,0.193 -14.193,0.107 -15.385,0.737C-15.627,0.865 -15.926,0.773 -16.054,0.53C-16.181,0.289 -16.088,-0.011 -15.846,-0.138C-14.459,-0.872 -10.981,-0.834 -7.381,0.501C-4.767,1.469 -2.06,3.114 0,5.631" style="fill:rgb(93,112,110);"/>
            </g>
        </g>
        <g transform="matrix(4.16667,0,0,4.16667,0,0)">
            <g transform="matrix(1,0,0,1,433.073,191.218)">
                <path d="M0,5.019C0.174,5.231 0.142,5.544 -0.07,5.717C-0.282,5.89 -0.595,5.859 -0.768,5.647C-2.451,3.59 -4.479,2.239 -6.476,1.41C-9.09,0.323 -11.644,0.132 -13.3,0.422C-13.569,0.47 -13.827,0.289 -13.874,0.02C-13.921,-0.251 -13.74,-0.507 -13.471,-0.555C-11.664,-0.871 -8.9,-0.671 -6.095,0.495C-3.961,1.381 -1.797,2.824 0,5.019" style="fill:rgb(93,112,110);"/>
            </g>
        </g>
        <g transform="matrix(4.16667,0,0,4.16667,0,0)">
            <g transform="matrix(1,0,0,1,323.237,232.427)">
                <path d="M0,-20.55C0.003,-20.959 0.338,-21.289 0.747,-21.286C1.157,-21.283 1.486,-20.948 1.482,-20.539L1.301,0.001C1.297,0.41 0.963,0.739 0.553,0.736C0.144,0.733 -0.187,0.398 -0.183,-0.011L0,-20.55Z" style="fill:rgb(93,112,110);"/>
            </g>
        </g>
        <g transform="matrix(4.16667,0,0,4.16667,0,0)">
            <g transform="matrix(1,0,0,1,425.463,232.427)">
                <path d="M0,-20.55C0.003,-20.959 0.338,-21.289 0.747,-21.286C1.157,-21.283 1.486,-20.948 1.483,-20.539L1.301,0.001C1.298,0.41 0.963,0.739 0.554,0.736C0.144,0.733 -0.187,0.398 -0.182,-0.011L0,-20.55Z" style="fill:rgb(93,112,110);"/>
            </g>
        </g>
        <g transform="matrix(4.16667,0,0,4.16667,0,0)">
            <g transform="matrix(1,0,0,1,346.084,55.864)">
                <path d="M0,37.346C0.003,37.618 -0.217,37.843 -0.488,37.845C-0.762,37.848 -0.985,37.63 -0.989,37.357C-1.102,28.426 -0.812,21.183 1.117,15.083C3.063,8.936 6.658,3.969 13.15,-0.352C13.378,-0.502 13.686,-0.44 13.837,-0.212C13.987,0.016 13.925,0.324 13.696,0.474C7.416,4.655 3.938,9.451 2.063,15.382C0.171,21.363 -0.112,28.514 0,37.346" style="fill:rgb(94,66,46);"/>
            </g>
        </g>
        <g transform="matrix(4.16667,0,0,4.16667,0,0)">
            <g transform="matrix(1,0,0,1,361.591,53.7804)">
                <path d="M0,37.33C0.003,37.603 -0.217,37.827 -0.489,37.828C-0.763,37.83 -0.986,37.61 -0.988,37.338C-1.064,28.422 -0.869,21.192 0.436,15.113C1.752,8.978 4.191,4.016 8.6,-0.309C8.793,-0.5 9.107,-0.497 9.299,-0.303C9.49,-0.108 9.488,0.205 9.293,0.397C5.038,4.572 2.681,9.373 1.405,15.318C0.118,21.318 -0.075,28.485 0,37.33" style="fill:rgb(94,66,46);"/>
            </g>
        </g>
        <g transform="matrix(4.16667,0,0,4.16667,0,0)">
            <g transform="matrix(1,0,0,1,404.907,55.8537)">
                <path d="M0,37.367C-0.003,37.64 -0.227,37.859 -0.501,37.855C-0.772,37.853 -0.991,37.628 -0.989,37.356C-0.877,28.525 -1.16,21.373 -3.052,15.392C-4.928,9.461 -8.404,4.665 -14.686,0.485C-14.914,0.334 -14.977,0.027 -14.825,-0.202C-14.675,-0.429 -14.367,-0.492 -14.14,-0.341C-7.646,3.979 -4.051,8.946 -2.106,15.094C-0.177,21.193 0.113,28.436 0,37.367" style="fill:rgb(94,66,46);"/>
            </g>
        </g>
        <g transform="matrix(4.16667,0,0,4.16667,0,0)">
            <g transform="matrix(1,0,0,1,389.399,53.7727)">
                <path d="M0,37.346C-0.002,37.618 -0.226,37.838 -0.499,37.836C-0.771,37.834 -0.991,37.611 -0.988,37.338C-0.913,28.492 -1.105,21.325 -2.393,15.326C-3.668,9.382 -6.025,4.58 -10.281,0.405C-10.477,0.213 -10.479,-0.1 -10.287,-0.296C-10.096,-0.489 -9.781,-0.492 -9.588,-0.301C-5.18,4.024 -2.74,8.986 -1.424,15.12C-0.119,21.2 0.076,28.429 0,37.346" style="fill:rgb(94,66,46);"/>
            </g>
        </g>
    </g>
</svg>
