<?xml version="1.0" encoding="UTF-8" standalone="no"?>
<!DOCTYPE svg PUBLIC "-//W3C//DTD SVG 1.1//EN" "http://www.w3.org/Graphics/SVG/1.1/DTD/svg11.dtd">
<svg width="100%" height="100%" viewBox="0 0 786 853" version="1.1" xmlns="http://www.w3.org/2000/svg" xmlns:xlink="http://www.w3.org/1999/xlink" xml:space="preserve" xmlns:serif="http://www.serif.com/" style="fill-rule:evenodd;clip-rule:evenodd;stroke-linejoin:round;stroke-miterlimit:2;">
    <g transform="matrix(1,0,0,1,-2044.4,-118.896)">
        <g transform="matrix(4.16667,0,0,4.16667,0,0)">
            <g transform="matrix(1,0,0,1,602.778,223.479)">
                <path d="M0,-173.883L69.116,-104.767C78.921,-94.963 78.921,-78.919 69.116,-69.115L0,0.001C-9.805,9.805 -25.848,9.805 -35.652,0.001L-104.769,-69.115C-114.572,-78.919 -114.572,-94.963 -104.769,-104.767L-35.652,-173.883C-25.848,-183.688 -9.805,-183.688 0,-173.883" style="fill:rgb(153,118,174);"/>
            </g>
        </g>
        <g transform="matrix(4.16667,0,0,4.16667,0,0)">
            <g transform="matrix(1,0,0,1,584.427,143.926)">
                <path d="M70.984,88.496L-70.983,88.496C-71.805,52.198 -43.878,31.126 -19.898,23.264C-17.953,13.136 -18.45,0 -18.45,0L18.449,0C18.449,0 17.952,13.136 19.898,23.264C43.878,31.126 71.806,52.198 70.984,88.496Z" style="fill:rgb(228,174,124);"/>
            </g>
        </g>
        <g transform="matrix(4.16667,0,0,4.16667,0,0)">
            <g transform="matrix(1,0,0,1,602.048,232.355)">
                <path d="M0,-58.052C-9.88,-44.29 -25.368,-44.565 -35.069,-58.119L-38.646,-56.723L-46.01,-38.461L-46.01,0.067L11.818,0.067L11.818,-38.461L3.404,-56.723L0,-58.052Z" style="fill:rgb(208,206,210);"/>
            </g>
        </g>
        <g transform="matrix(4.16667,0,0,4.16667,0,0)">
            <g transform="matrix(-0.999812,0.0194133,0.0194133,0.999812,541.525,129.171)">
                <path d="M-4.106,-14.278C-3.969,-16.179 3.749,-18.571 6.456,-12.413C9.163,-6.254 4.676,2.633 -4.106,3.493C-12.889,4.354 -10.331,2.751 -10.331,2.751L-4.106,-14.278Z" style="fill:rgb(228,174,124);"/>
            </g>
        </g>
        <g transform="matrix(4.16667,0,0,4.16667,0,0)">
            <g transform="matrix(-0.99981,-0.0194695,-0.0194695,0.99981,627.515,129.171)">
                <path d="M4.105,-14.278C3.97,-16.179 -3.748,-18.572 -6.454,-12.413C-9.163,-6.255 -4.678,2.632 4.105,3.493C12.887,4.354 10.331,2.751 10.331,2.751L4.105,-14.278Z" style="fill:rgb(228,174,124);"/>
            </g>
        </g>
        <g transform="matrix(4.16667,0,0,4.16667,0,0)">
            <g transform="matrix(0.218449,-0.975848,-0.975848,-0.218449,584.308,142.056)">
                <path d="M-10.43,-21.596C-27.085,-17.139 -33.134,2.589 -19.171,14.767C-15.872,15.267 -12.795,15.879 -10.43,16.394L-2.393,-19.508C-4.613,-20.018 -7.439,-20.72 -10.43,-21.596" style="fill:rgb(214,127,84);"/>
            </g>
        </g>
        <g transform="matrix(4.16667,0,0,4.16667,0,0)">
            <g transform="matrix(1,0,0,1,584.427,45.9656)">
                <path d="M0,110.677C-45.773,111.777 -68.884,-1.1 0,1.792C68.884,-1.1 45.773,111.777 0,110.677" style="fill:rgb(228,174,124);"/>
            </g>
        </g>
        <g transform="matrix(4.16667,0,0,4.16667,0,0)">
            <g transform="matrix(-0.809868,-0.586612,-0.586612,0.809868,562.746,108.849)">
                <path d="M-2.406,-7.422C-4.672,-7.425 -6.509,-5.593 -6.509,-3.328C-6.509,-1.064 -4.67,0.775 -2.405,0.78C-0.139,0.783 1.698,-1.049 1.696,-3.313C1.697,-5.578 -0.141,-7.417 -2.406,-7.422" style="fill:rgb(32,32,30);"/>
            </g>
        </g>
        <g transform="matrix(4.16667,0,0,4.16667,0,0)">
            <g transform="matrix(-0.80981,0.586692,0.586692,0.80981,606.363,108.849)">
                <path d="M2.406,-7.422C4.673,-7.426 6.509,-5.593 6.51,-3.329C6.51,-1.065 4.672,0.775 2.406,0.78C0.14,0.783 -1.697,-1.049 -1.696,-3.313C-1.697,-5.578 0.14,-7.417 2.406,-7.422" style="fill:rgb(32,32,30);"/>
            </g>
        </g>
        <g transform="matrix(4.16667,0,0,4.16667,0,0)">
            <g transform="matrix(-0.547613,-0.836732,-0.836732,0.547613,555.606,119.836)">
                <path d="M-4.003,-7.402C-6.782,-8.375 -9.037,-7.021 -9.036,-4.381C-9.037,-1.739 -6.783,1.191 -4.003,2.165C-1.223,3.137 1.031,1.784 1.03,-0.858C1.031,-3.5 -1.223,-6.429 -4.003,-7.402" style="fill:rgb(218,144,119);"/>
            </g>
        </g>
        <g transform="matrix(4.16667,0,0,4.16667,0,0)">
            <g transform="matrix(-0.547613,0.836732,0.836732,0.547613,613.502,119.836)">
                <path d="M4.003,-7.402C6.782,-8.375 9.037,-7.021 9.036,-4.381C9.036,-1.738 6.782,1.192 4.003,2.165C1.223,3.137 -1.031,1.784 -1.03,-0.858C-1.031,-3.5 1.223,-6.429 4.003,-7.402" style="fill:rgb(218,144,119);"/>
            </g>
        </g>
        <g transform="matrix(4.16667,0,0,4.16667,0,0)">
            <g transform="matrix(1,0,0,1,570.841,97.0462)">
                <path d="M0,-3.928C-0.152,-3.995 -0.305,-4.057 -0.461,-4.116C-2.25,-4.762 -3.767,-4.937 -5.699,-4.797C-7.591,-4.597 -9.004,-4.169 -10.591,-3.264C-11.33,-2.787 -14.221,-0.447 -13.401,0.415C-13.067,0.508 -10.188,-0.963 -9.343,-1.238C-8.027,-1.626 -6.961,-1.774 -5.566,-1.746C-4.268,-1.686 -3.29,-1.497 -2.106,-1.041C-2.073,-1.035 -1.86,-0.938 -1.814,-0.918C0.601,0.255 0.382,1.009 2.028,-0.12C4.563,-1.469 1.954,-2.913 0,-3.928" style="fill:rgb(63,39,22);"/>
            </g>
        </g>
        <g transform="matrix(4.16667,0,0,4.16667,0,0)">
            <g transform="matrix(1,0,0,1,598.014,97.0462)">
                <path d="M0,-3.928C0.151,-3.995 0.305,-4.057 0.461,-4.116C2.25,-4.762 3.767,-4.937 5.699,-4.797C7.591,-4.597 9.004,-4.169 10.59,-3.264C11.33,-2.787 14.22,-0.447 13.4,0.415C13.067,0.508 10.188,-0.963 9.343,-1.238C8.027,-1.626 6.96,-1.774 5.566,-1.746C4.267,-1.686 3.289,-1.497 2.105,-1.041C2.073,-1.035 1.86,-0.938 1.813,-0.918C-0.601,0.255 -0.382,1.009 -2.028,-0.12C-4.564,-1.469 -1.955,-2.913 0,-3.928" style="fill:rgb(63,39,22);"/>
            </g>
        </g>
        <g transform="matrix(4.16667,0,0,4.16667,0,0)">
            <g transform="matrix(1,0,0,1,596.345,135.42)">
                <path d="M0,-5.375C0.137,-5.611 0.44,-5.692 0.677,-5.555C0.914,-5.418 0.994,-5.115 0.857,-4.879C-0.16,-3.13 -1.802,-1.884 -3.75,-1.054C-5.975,-0.106 -8.602,0.302 -11.145,0.302L-11.189,0.3C-13.618,0.318 -16.273,-0.07 -18.548,-1.039C-20.487,-1.863 -22.154,-3.108 -23.187,-4.876C-23.325,-5.113 -23.244,-5.417 -23.008,-5.555C-22.772,-5.693 -22.468,-5.614 -22.33,-5.377C-21.414,-3.808 -19.914,-2.695 -18.16,-1.949C-16.015,-1.036 -13.496,-0.67 -11.188,-0.688L-11.145,-0.69C-8.721,-0.69 -6.229,-1.073 -4.138,-1.964C-2.376,-2.715 -0.9,-3.827 0,-5.375" style="fill:rgb(78,44,11);"/>
            </g>
        </g>
        <g transform="matrix(4.16667,0,0,4.16667,0,0)">
            <g transform="matrix(1,0,0,1,582.275,141.386)">
                <path d="M0,0.25C-0.235,0.113 -0.314,-0.19 -0.177,-0.426C-0.038,-0.662 0.265,-0.74 0.5,-0.602C1.183,-0.203 2.052,-0.003 2.923,-0.003C3.79,-0.003 4.645,-0.201 5.299,-0.599C5.532,-0.74 5.836,-0.665 5.978,-0.432C6.119,-0.199 6.044,0.105 5.811,0.247C4.994,0.743 3.958,0.99 2.923,0.99C1.889,0.99 0.841,0.744 0,0.25" style="fill:rgb(214,127,84);"/>
            </g>
        </g>
        <g transform="matrix(4.16667,0,0,4.16667,0,0)">
            <g transform="matrix(1,0,0,1,584.053,110.741)">
                <path d="M0,12.937C-0.273,12.937 -0.496,12.714 -0.496,12.44C-0.496,12.167 -0.273,11.944 0,11.944C1.191,11.944 2.614,11.933 3.714,11.747C4.617,11.594 5.282,11.349 5.282,10.937C5.282,9.509 3.835,0.634 3.831,0.609C3.789,0.339 3.972,0.085 4.242,0.043C4.513,0 4.766,0.184 4.809,0.454C4.812,0.479 6.274,9.448 6.274,10.937C6.274,11.983 5.258,12.49 3.876,12.724C2.691,12.924 1.225,12.937 0,12.937" style="fill:rgb(214,127,84);"/>
            </g>
        </g>
        <g transform="matrix(4.16667,0,0,4.16667,0,0)">
            <g transform="matrix(1,0,0,1,631.395,124.272)">
                <path d="M0,-2.485C0,-2.211 -0.222,-1.989 -0.496,-1.989C-0.77,-1.989 -0.991,-2.211 -0.991,-2.485C-0.991,-3.992 -1.253,-4.94 -1.671,-5.456C-1.924,-5.765 -2.241,-5.907 -2.595,-5.915C-3.001,-5.924 -3.465,-5.773 -3.945,-5.5C-5.248,-4.762 -6.597,-3.197 -7.341,-1.493C-7.7,-0.673 -8.01,0.171 -8.188,0.809C-7.426,0.278 -6.585,0.067 -5.876,0.139C-5.473,0.179 -5.104,0.309 -4.806,0.524C-4.491,0.751 -4.258,1.064 -4.14,1.46C-3.937,2.14 -4.094,3.055 -4.824,4.145C-4.977,4.372 -5.283,4.433 -5.511,4.282C-5.737,4.129 -5.799,3.822 -5.646,3.595C-5.1,2.78 -4.965,2.16 -5.089,1.743C-5.142,1.566 -5.245,1.427 -5.384,1.327C-5.539,1.216 -5.741,1.146 -5.973,1.123C-6.61,1.059 -7.417,1.337 -8.089,2.013C-8.269,2.194 -8.438,2.297 -8.593,2.329C-8.991,2.415 -9.223,2.24 -9.309,1.85L-9.314,1.824C-9.344,1.677 -9.338,1.479 -9.301,1.245C-9.188,0.539 -8.765,-0.71 -8.249,-1.889C-7.421,-3.779 -5.908,-5.527 -4.435,-6.361C-3.803,-6.718 -3.167,-6.918 -2.575,-6.904C-1.932,-6.889 -1.355,-6.634 -0.904,-6.079C-0.346,-5.394 0,-4.237 0,-2.485" style="fill:rgb(214,127,84);"/>
            </g>
        </g>
        <g transform="matrix(4.16667,0,0,4.16667,0,0)">
            <g transform="matrix(1,0,0,1,538.45,124.272)">
                <path d="M0,-2.485C0,-2.211 -0.222,-1.989 -0.497,-1.989C-0.771,-1.989 -0.992,-2.211 -0.992,-2.485C-0.992,-4.237 -0.646,-5.394 -0.088,-6.079C0.363,-6.634 0.939,-6.889 1.584,-6.904C2.175,-6.918 2.811,-6.718 3.443,-6.361C4.915,-5.527 6.43,-3.779 7.257,-1.889C7.772,-0.71 8.196,0.539 8.309,1.245C8.346,1.479 8.353,1.677 8.322,1.824L8.317,1.85C8.23,2.239 8,2.415 7.601,2.329C7.445,2.297 7.276,2.194 7.097,2.013C6.425,1.337 5.618,1.059 4.98,1.123C4.75,1.146 4.548,1.216 4.393,1.327C4.254,1.427 4.15,1.566 4.098,1.743C3.973,2.16 4.108,2.78 4.654,3.595C4.806,3.822 4.746,4.129 4.519,4.282C4.292,4.433 3.984,4.372 3.832,4.145C3.102,3.055 2.944,2.14 3.147,1.46C3.266,1.064 3.5,0.751 3.814,0.524C4.112,0.309 4.48,0.179 4.884,0.139C5.593,0.067 6.434,0.278 7.195,0.809C7.018,0.171 6.709,-0.673 6.35,-1.493C5.604,-3.197 4.257,-4.762 2.954,-5.5C2.473,-5.773 2.009,-5.924 1.603,-5.915C1.25,-5.907 0.932,-5.765 0.68,-5.456C0.261,-4.94 0,-3.992 0,-2.485" style="fill:rgb(214,127,84);"/>
            </g>
        </g>
        <g transform="matrix(4.16667,0,0,4.16667,0,0)">
            <g transform="matrix(1,0,0,1,541.417,52.7989)">
                <path d="M0,58.517C-4.971,24.053 1.181,-10.848 43.01,-10.848C84.84,-10.848 90.991,24.052 86.021,58.517C82.733,68.465 81.934,49.442 81.926,47.269C81.905,41.197 76.522,42.417 76.304,28.841C76.056,13.491 9.964,13.517 9.716,28.841C9.497,42.417 4.093,41.197 4.093,47.269C4.093,49.065 2.932,69.365 0,58.517" style="fill:rgb(98,58,28);"/>
            </g>
        </g>
        <g transform="matrix(4.16667,0,0,4.16667,0,0)">
            <g transform="matrix(1,0,0,1,575.385,32.3362)">
                <path d="M0,41.136C-2.188,48.119 -17.1,49.449 -19.81,45.003C-21.069,48.831 -31.317,50.17 -32.8,47.997C-35.871,51.993 -40.256,48.849 -37.403,45.056C-42.089,40.166 -40.962,33.799 -37.405,30.352C-39.521,20.497 -30.745,13.179 -25.823,15.648C-26.147,2.217 -11.048,2.808 -8.179,7.915C3.914,-10.857 25.719,-4.206 25.505,7.915C32.651,3.482 45.629,3.998 43.149,15.648C51.684,15.029 60.453,18.097 54.731,30.352C59.304,35.266 60.448,41.734 54.678,45.056C57.319,48.692 53.302,51.782 50.126,47.997C48.628,50.194 38.399,48.841 37.136,45.003C34.431,49.442 19.95,49.509 17.326,41.136C14.625,47.629 2.701,47.629 0,41.136" style="fill:rgb(35,34,33);"/>
            </g>
        </g>
        <g transform="matrix(4.16667,0,0,4.16667,0,0)">
            <g transform="matrix(1,0,0,1,572.671,164.894)">
                <path d="M0,67.528C0.045,55.522 0.086,34.646 -0.051,29.787C-0.125,27.165 -7.563,23.386 -8.884,19.198C-10.79,13.154 -6.415,5.613 -7.748,0C-7.867,0.777 -7.997,1.545 -8.143,2.296C-32.122,10.158 -60.049,31.23 -59.228,67.528L0,67.528Z" style="fill:rgb(41,39,63);"/>
            </g>
        </g>
        <g transform="matrix(4.16667,0,0,4.16667,0,0)">
            <g transform="matrix(1,0,0,1,565.392,195.323)">
                <path d="M0,-33.03C1.509,-17.066 3.342,-10.012 7.141,-1.613C-7.442,0 -11.834,-28.354 0,-33.03" style="fill:rgb(65,57,98);"/>
            </g>
        </g>
        <g transform="matrix(4.16667,0,0,4.16667,0,0)">
            <g transform="matrix(1,0,0,1,596.184,164.894)">
                <path d="M0,67.528C-0.046,55.522 -0.087,34.646 0.05,29.787C0.124,27.165 7.563,23.386 8.883,19.198C10.788,13.154 6.414,5.613 7.748,0C7.867,0.777 7.997,1.545 8.142,2.296C32.121,10.158 60.049,31.23 59.228,67.528L0,67.528Z" style="fill:rgb(41,39,63);"/>
            </g>
        </g>
        <g transform="matrix(4.16667,0,0,4.16667,0,0)">
            <g transform="matrix(1,0,0,1,603.462,195.323)">
                <path d="M0,-33.03C-1.508,-17.066 -3.342,-10.012 -7.141,-1.613C7.442,0 11.834,-28.354 0,-33.03" style="fill:rgb(65,57,98);"/>
            </g>
        </g>
        <g transform="matrix(4.16667,0,0,4.16667,0,0)">
            <g transform="matrix(1,0,0,1,533.189,232.427)">
                <path d="M0,-20.55C0.004,-20.959 0.338,-21.289 0.748,-21.286C1.157,-21.283 1.486,-20.948 1.483,-20.539L1.301,0.001C1.298,0.41 0.963,0.739 0.554,0.736C0.145,0.733 -0.185,0.398 -0.182,-0.011L0,-20.55Z" style="fill:rgb(20,22,50);"/>
            </g>
        </g>
        <g transform="matrix(4.16667,0,0,4.16667,0,0)">
            <g transform="matrix(1,0,0,1,635.415,232.427)">
                <path d="M0,-20.55C0.003,-20.959 0.338,-21.289 0.747,-21.286C1.157,-21.283 1.485,-20.948 1.483,-20.539L1.301,0.001C1.297,0.41 0.963,0.739 0.553,0.736C0.144,0.733 -0.186,0.398 -0.183,-0.011L0,-20.55Z" style="fill:rgb(20,22,50);"/>
            </g>
        </g>
        <g transform="matrix(4.16667,0,0,4.16667,0,0)">
            <g transform="matrix(1,0,0,1,573.187,35.3469)">
                <path d="M0,9.366C-0.142,9.6 -0.446,9.676 -0.682,9.534C-0.915,9.393 -0.99,9.088 -0.85,8.854C0.755,6.204 3.645,3.702 6.84,2.053C9.857,0.495 13.163,-0.31 15.947,0.22C21.83,1.34 22.126,4.85 22.126,4.86C22.153,5.132 21.954,5.373 21.683,5.401C21.41,5.427 21.168,5.228 21.142,4.956C21.141,4.949 20.912,2.173 15.766,1.193C13.209,0.707 10.129,1.469 7.294,2.933C4.252,4.502 1.511,6.869 0,9.366" style="fill:rgb(61,61,60);"/>
            </g>
        </g>
        <g transform="matrix(4.16667,0,0,4.16667,0,0)">
            <g transform="matrix(1,0,0,1,557.153,43.167)">
                <path d="M0,6.021C-0.074,6.284 -0.349,6.437 -0.612,6.362C-0.875,6.288 -1.028,6.013 -0.953,5.75C-0.381,3.744 0.698,2.219 2.044,1.196C3,0.469 4.089,-0.001 5.223,-0.208C6.357,-0.416 7.537,-0.361 8.673,-0.037C10.3,0.426 11.842,1.441 13.047,3.026C13.213,3.243 13.17,3.554 12.953,3.718C12.735,3.883 12.425,3.841 12.261,3.624C11.194,2.222 9.834,1.324 8.401,0.917C7.409,0.633 6.384,0.585 5.4,0.765C4.415,0.945 3.471,1.353 2.642,1.983C1.462,2.879 0.511,4.23 0,6.021" style="fill:rgb(61,61,60);"/>
            </g>
        </g>
        <g transform="matrix(4.16667,0,0,4.16667,0,0)">
            <g transform="matrix(1,0,0,1,599.678,43.9394)">
                <path d="M0,4.17C-0.204,4.352 -0.517,4.332 -0.697,4.127C-0.879,3.923 -0.859,3.61 -0.655,3.43C2.317,0.795 5.444,-0.684 8.052,-1.077C9.442,-1.287 10.698,-1.188 11.723,-0.794C12.79,-0.384 13.602,0.342 14.055,1.373C14.478,2.337 14.577,3.557 14.265,5.019C14.208,5.286 13.945,5.457 13.678,5.4C13.41,5.344 13.239,5.081 13.296,4.814C13.563,3.563 13.489,2.546 13.146,1.768C12.807,0.992 12.188,0.442 11.37,0.128C10.51,-0.203 9.425,-0.28 8.2,-0.097C5.763,0.272 2.82,1.67 0,4.17" style="fill:rgb(61,61,60);"/>
            </g>
        </g>
        <g transform="matrix(4.16667,0,0,4.16667,0,0)">
            <g transform="matrix(1,0,0,1,576.324,68.7693)">
                <path d="M0,-2.905C-0.125,-3.148 -0.029,-3.447 0.214,-3.572C0.456,-3.697 0.756,-3.602 0.881,-3.359C1.837,-1.501 3.248,-0.272 4.822,0.358C5.789,0.745 6.82,0.908 7.846,0.851C8.873,0.795 9.896,0.519 10.843,0.032C12.498,-0.82 13.929,-2.32 14.774,-4.432C14.876,-4.686 15.164,-4.809 15.418,-4.707C15.671,-4.606 15.794,-4.317 15.693,-4.064C14.753,-1.716 13.152,-0.043 11.297,0.911C10.224,1.464 9.065,1.776 7.899,1.84C6.732,1.904 5.558,1.719 4.454,1.278C2.668,0.563 1.073,-0.821 0,-2.905" style="fill:rgb(61,61,60);"/>
            </g>
        </g>
        <g transform="matrix(4.16667,0,0,4.16667,0,0)">
            <g transform="matrix(1,0,0,1,609.587,70.667)">
                <path d="M0,-3.812C0.125,-4.056 0.424,-4.15 0.668,-4.025C0.91,-3.9 1.006,-3.602 0.881,-3.358C-0.191,-1.274 -1.787,0.109 -3.573,0.824C-4.677,1.265 -5.851,1.45 -7.019,1.386C-8.185,1.322 -9.343,1.011 -10.415,0.458C-12.271,-0.497 -13.873,-2.169 -14.813,-4.518C-14.914,-4.77 -14.79,-5.06 -14.537,-5.161C-14.283,-5.262 -13.994,-5.139 -13.894,-4.886C-13.048,-2.773 -11.617,-1.273 -9.962,-0.422C-9.014,0.065 -7.991,0.342 -6.964,0.398C-5.939,0.454 -4.908,0.292 -3.941,-0.095C-2.367,-0.725 -0.956,-1.954 0,-3.812" style="fill:rgb(61,61,60);"/>
            </g>
        </g>
    </g>
</svg>
