<?xml version="1.0" encoding="UTF-8" standalone="no"?>
<!DOCTYPE svg PUBLIC "-//W3C//DTD SVG 1.1//EN" "http://www.w3.org/Graphics/SVG/1.1/DTD/svg11.dtd">
<svg width="100%" height="100%" viewBox="0 0 786 834" version="1.1" xmlns="http://www.w3.org/2000/svg" xmlns:xlink="http://www.w3.org/1999/xlink" xml:space="preserve" xmlns:serif="http://www.serif.com/" style="fill-rule:evenodd;clip-rule:evenodd;stroke-linejoin:round;stroke-miterlimit:2;">
    <g transform="matrix(1,0,0,1,-294.804,-1122.89)">
        <g transform="matrix(4.16667,0,0,4.16667,0,0)">
            <g transform="matrix(1,0,0,1,182.875,462.244)">
                <path d="M0,-173.883L69.115,-104.767C78.92,-94.962 78.92,-78.919 69.115,-69.114L0,0.002C-9.805,9.805 -25.848,9.805 -35.653,0.002L-104.769,-69.114C-114.573,-78.919 -114.573,-94.962 -104.769,-104.767L-35.653,-173.883C-25.848,-183.688 -9.805,-183.688 0,-173.883" style="fill:rgb(225,162,31);"/>
            </g>
        </g>
        <g transform="matrix(4.16667,0,0,4.16667,0,0)">
            <g transform="matrix(1,0,0,1,159.216,228.868)">
                <path d="M0,177.651C37.181,178.908 47.25,156.684 46.679,159.595C45.954,163.288 43.965,166.021 42.565,168.063C42.462,168.213 41.735,168.683 43.087,168.216C66.369,160.173 67.058,141.144 67.101,141.271C68.161,144.359 65.187,153.057 66.374,152.982C87.208,125.348 22.802,-1.257 -7.968,56.882C-23.985,58.484 -30.111,60.086 -37.159,75.783C-50.546,105.599 -36.106,117.826 -66.472,146.097C-65.468,147.748 -61.182,150.426 -56.976,151.729C-52.383,153.152 -47.883,153.138 -47.851,153.396C-47.729,154.337 -53.924,156.537 -57.025,156.892C-43.615,168.688 -24.396,168.38 -19.041,168.748C-18.045,168.816 -28.772,171.342 -30.253,172.288C-24.2,177.474 -9.582,177.881 0,177.651" style="fill:rgb(71,44,83);"/>
            </g>
        </g>
        <g transform="matrix(4.16667,0,0,4.16667,0,0)">
            <g transform="matrix(1,0,0,1,166.351,380.362)">
                <path d="M70.984,88.495L-70.984,88.495C-71.805,52.198 -43.878,31.126 -19.898,23.263C-17.953,13.136 -18.45,0 -18.45,0L18.449,0C18.449,0 17.952,13.136 19.898,23.263C43.878,31.126 71.806,52.198 70.984,88.495Z" style="fill:rgb(228,174,124);"/>
            </g>
        </g>
        <g transform="matrix(4.16667,0,0,4.16667,0,0)">
            <g transform="matrix(-0.999812,0.0194133,0.0194133,0.999812,123.448,365.605)">
                <path d="M-4.106,-14.276C-3.97,-16.177 3.748,-18.57 6.456,-12.412C9.163,-6.253 4.676,2.634 -4.106,3.495C-12.889,4.355 -10.331,2.753 -10.331,2.753L-4.106,-14.276Z" style="fill:rgb(228,174,124);"/>
            </g>
        </g>
        <g transform="matrix(4.16667,0,0,4.16667,0,0)">
            <g transform="matrix(-0.99981,-0.0194695,-0.0194695,0.99981,209.439,365.605)">
                <path d="M4.105,-14.276C3.97,-16.177 -3.748,-18.571 -6.454,-12.412C-9.163,-6.254 -4.678,2.633 4.105,3.495C12.887,4.355 10.331,2.753 10.331,2.753L4.105,-14.276Z" style="fill:rgb(228,174,124);"/>
            </g>
        </g>
        <g transform="matrix(4.16667,0,0,4.16667,0,0)">
            <g transform="matrix(0.218424,-0.975854,-0.975854,-0.218424,166.231,378.493)">
                <path d="M-10.429,-21.597C-27.084,-17.139 -33.133,2.588 -19.171,14.766C-15.87,15.267 -12.794,15.878 -10.429,16.394L-2.393,-19.509C-4.613,-20.018 -7.438,-20.72 -10.429,-21.597" style="fill:rgb(214,127,84);"/>
            </g>
        </g>
        <g transform="matrix(4.16667,0,0,4.16667,0,0)">
            <g transform="matrix(1,0,0,1,166.351,282.402)">
                <path d="M0,110.676C-45.773,111.776 -68.884,-1.1 0,1.791C68.884,-1.1 45.773,111.776 0,110.676" style="fill:rgb(228,174,124);"/>
            </g>
        </g>
        <g transform="matrix(4.16667,0,0,4.16667,0,0)">
            <g transform="matrix(-0.809868,-0.586612,-0.586612,0.809868,144.669,345.286)">
                <path d="M-2.406,-7.422C-4.673,-7.426 -6.509,-5.593 -6.509,-3.33C-6.509,-1.065 -4.671,0.775 -2.406,0.779C-0.139,0.783 1.697,-1.049 1.697,-3.314C1.697,-5.578 -0.141,-7.417 -2.406,-7.422" style="fill:rgb(32,32,30);"/>
            </g>
        </g>
        <g transform="matrix(4.16667,0,0,4.16667,0,0)">
            <g transform="matrix(-0.809868,0.586612,0.586612,0.809868,188.287,345.286)">
                <path d="M2.406,-7.422C4.673,-7.426 6.509,-5.593 6.509,-3.33C6.509,-1.065 4.671,0.775 2.406,0.779C0.14,0.782 -1.697,-1.049 -1.697,-3.314C-1.696,-5.579 0.141,-7.417 2.406,-7.422" style="fill:rgb(32,32,30);"/>
            </g>
        </g>
        <g transform="matrix(4.16667,0,0,4.16667,0,0)">
            <g transform="matrix(-0.547539,-0.83678,-0.83678,0.547539,137.53,356.273)">
                <path d="M-4.002,-7.403C-6.782,-8.375 -9.036,-7.022 -9.036,-4.381C-9.036,-1.74 -6.783,1.19 -4.002,2.163C-1.223,3.136 1.031,1.783 1.031,-0.858C1.031,-3.499 -1.223,-6.43 -4.002,-7.403" style="fill:rgb(218,144,119);"/>
            </g>
        </g>
        <g transform="matrix(4.16667,0,0,4.16667,0,0)">
            <g transform="matrix(-0.547539,0.83678,0.83678,0.547539,195.427,356.272)">
                <path d="M4.004,-7.404C6.784,-8.376 9.037,-7.022 9.037,-4.381C9.037,-1.74 6.784,1.19 4.004,2.163C1.224,3.136 -1.03,1.783 -1.03,-0.858C-1.03,-3.499 1.224,-6.43 4.004,-7.404" style="fill:rgb(218,144,119);"/>
            </g>
        </g>
        <g transform="matrix(4.16667,0,0,4.16667,0,0)">
            <g transform="matrix(1,0,0,1,152.764,333.483)">
                <path d="M0,-3.928C-0.152,-3.995 -0.305,-4.057 -0.461,-4.117C-2.25,-4.762 -3.767,-4.937 -5.699,-4.797C-7.591,-4.597 -9.004,-4.169 -10.59,-3.264C-11.33,-2.787 -14.22,-0.448 -13.401,0.416C-13.067,0.508 -10.188,-0.963 -9.343,-1.238C-8.027,-1.626 -6.96,-1.775 -5.566,-1.745C-4.267,-1.687 -3.29,-1.498 -2.106,-1.041C-2.073,-1.035 -1.86,-0.939 -1.814,-0.919C0.601,0.255 0.382,1.009 2.028,-0.12C4.563,-1.469 1.955,-2.913 0,-3.928" style="fill:rgb(63,39,22);"/>
            </g>
        </g>
        <g transform="matrix(4.16667,0,0,4.16667,0,0)">
            <g transform="matrix(1,0,0,1,179.937,333.483)">
                <path d="M0,-3.928C0.152,-3.995 0.305,-4.057 0.461,-4.117C2.25,-4.762 3.767,-4.937 5.699,-4.797C7.591,-4.597 9.004,-4.169 10.59,-3.264C11.33,-2.787 14.22,-0.448 13.401,0.416C13.067,0.508 10.188,-0.963 9.343,-1.238C8.027,-1.626 6.96,-1.775 5.566,-1.745C4.267,-1.687 3.29,-1.498 2.105,-1.041C2.073,-1.035 1.86,-0.939 1.814,-0.919C-0.601,0.255 -0.382,1.009 -2.028,-0.12C-4.564,-1.469 -1.955,-2.913 0,-3.928" style="fill:rgb(63,39,22);"/>
            </g>
        </g>
        <g transform="matrix(4.16667,0,0,4.16667,0,0)">
            <g transform="matrix(1,0,0,1,164.199,377.821)">
                <path d="M0,0.251C-0.236,0.113 -0.314,-0.189 -0.177,-0.425C-0.039,-0.66 0.265,-0.739 0.5,-0.602C1.182,-0.202 2.052,-0.002 2.922,-0.002C3.79,-0.002 4.644,-0.201 5.298,-0.598C5.532,-0.739 5.836,-0.664 5.978,-0.431C6.119,-0.198 6.043,0.106 5.811,0.248C4.994,0.743 3.958,0.99 2.922,0.99C1.888,0.99 0.84,0.744 0,0.251" style="fill:rgb(214,127,84);"/>
            </g>
        </g>
        <g transform="matrix(4.16667,0,0,4.16667,0,0)">
            <g transform="matrix(1,0,0,1,165.977,347.177)">
                <path d="M0,12.936C-0.273,12.936 -0.497,12.714 -0.497,12.44C-0.497,12.166 -0.273,11.944 0,11.944C1.191,11.944 2.614,11.933 3.713,11.747C4.617,11.593 5.281,11.348 5.281,10.937C5.281,9.509 3.835,0.634 3.831,0.609C3.789,0.339 3.972,0.085 4.242,0.042C4.512,0 4.765,0.183 4.808,0.454C4.812,0.48 6.274,9.448 6.274,10.937C6.274,11.982 5.257,12.489 3.876,12.723C2.691,12.924 1.225,12.936 0,12.936" style="fill:rgb(214,127,84);"/>
            </g>
        </g>
        <g transform="matrix(4.16667,0,0,4.16667,0,0)">
            <g transform="matrix(1,0,0,1,213.319,360.708)">
                <path d="M0,-2.484C0,-2.211 -0.222,-1.988 -0.496,-1.988C-0.771,-1.988 -0.992,-2.211 -0.992,-2.484C-0.992,-3.992 -1.253,-4.939 -1.672,-5.455C-1.924,-5.764 -2.242,-5.907 -2.595,-5.915C-3.001,-5.924 -3.465,-5.772 -3.946,-5.499C-5.249,-4.761 -6.597,-3.197 -7.342,-1.493C-7.7,-0.672 -8.01,0.171 -8.188,0.809C-7.426,0.279 -6.585,0.068 -5.876,0.139C-5.473,0.18 -5.105,0.31 -4.807,0.525C-4.492,0.751 -4.257,1.066 -4.141,1.46C-3.938,2.141 -4.094,3.055 -4.824,4.146C-4.977,4.372 -5.283,4.434 -5.511,4.282C-5.737,4.13 -5.799,3.823 -5.646,3.595C-5.101,2.781 -4.965,2.161 -5.09,1.744C-5.143,1.567 -5.245,1.427 -5.384,1.328C-5.539,1.216 -5.742,1.147 -5.973,1.123C-6.61,1.059 -7.417,1.338 -8.089,2.014C-8.269,2.195 -8.438,2.297 -8.593,2.33C-8.991,2.416 -9.223,2.242 -9.309,1.851L-9.315,1.825C-9.345,1.678 -9.338,1.48 -9.301,1.245C-9.188,0.539 -8.765,-0.709 -8.249,-1.888C-7.422,-3.779 -5.908,-5.526 -4.435,-6.36C-3.803,-6.717 -3.167,-6.918 -2.575,-6.904C-1.932,-6.888 -1.355,-6.634 -0.904,-6.079C-0.346,-5.393 0,-4.237 0,-2.484" style="fill:rgb(214,127,84);"/>
            </g>
        </g>
        <g transform="matrix(4.16667,0,0,4.16667,0,0)">
            <g transform="matrix(1,0,0,1,120.373,360.708)">
                <path d="M0,-2.484C0,-2.211 -0.222,-1.988 -0.497,-1.988C-0.77,-1.988 -0.992,-2.211 -0.992,-2.484C-0.992,-4.237 -0.646,-5.393 -0.087,-6.079C0.363,-6.634 0.939,-6.888 1.584,-6.904C2.175,-6.918 2.811,-6.717 3.443,-6.36C4.916,-5.526 6.43,-3.779 7.257,-1.888C7.773,-0.709 8.197,0.539 8.309,1.245C8.346,1.48 8.353,1.678 8.323,1.825L8.317,1.851C8.231,2.241 8,2.416 7.601,2.33C7.446,2.297 7.276,2.195 7.097,2.014C6.425,1.338 5.618,1.059 4.98,1.123C4.75,1.147 4.548,1.216 4.393,1.328C4.253,1.427 4.15,1.567 4.098,1.744C3.973,2.161 4.109,2.781 4.654,3.595C4.806,3.823 4.746,4.13 4.519,4.282C4.292,4.434 3.984,4.372 3.833,4.146C3.102,3.055 2.945,2.141 3.148,1.46C3.266,1.066 3.5,0.751 3.814,0.525C4.113,0.31 4.481,0.18 4.884,0.139C5.593,0.068 6.434,0.279 7.196,0.809C7.019,0.171 6.708,-0.672 6.35,-1.493C5.605,-3.197 4.257,-4.761 2.954,-5.499C2.473,-5.772 2.009,-5.924 1.603,-5.915C1.25,-5.907 0.932,-5.764 0.68,-5.455C0.261,-4.939 0,-3.992 0,-2.484" style="fill:rgb(214,127,84);"/>
            </g>
        </g>
        <g transform="matrix(4.16667,0,0,4.16667,0,0)">
            <g transform="matrix(1,0,0,1,156.155,354.485)">
                <path d="M0,-17.235C-2.205,-19.441 -5.252,-20.805 -8.619,-20.805C-11.984,-20.805 -15.031,-19.441 -17.237,-17.235C-19.441,-15.03 -20.807,-11.982 -20.807,-8.617C-20.807,-5.252 -19.441,-2.205 -17.237,0.001C-15.031,2.206 -11.984,3.571 -8.619,3.571C-5.252,3.571 -2.205,2.206 0,0.001C2.206,-2.205 3.569,-5.252 3.569,-8.617C3.569,-11.982 2.206,-15.03 0,-17.235M-8.619,-23.287C-4.567,-23.287 -0.9,-21.644 1.754,-18.989C4.409,-16.336 6.051,-12.668 6.051,-8.617C6.051,-4.567 4.409,-0.899 1.754,1.755C-0.9,4.41 -4.567,6.052 -8.619,6.052C-12.668,6.052 -16.337,4.41 -18.991,1.755C-21.646,-0.899 -23.288,-4.567 -23.288,-8.617C-23.288,-12.668 -21.646,-16.336 -18.991,-18.989C-16.337,-21.644 -12.668,-23.287 -8.619,-23.287" style="fill:rgb(46,30,17);"/>
            </g>
        </g>
        <g transform="matrix(4.16667,0,0,4.16667,0,0)">
            <g transform="matrix(1,0,0,1,193.783,354.485)">
                <path d="M0,-17.235C-2.207,-19.441 -5.253,-20.805 -8.618,-20.805C-11.984,-20.805 -15.032,-19.441 -17.237,-17.235C-19.442,-15.03 -20.807,-11.982 -20.807,-8.617C-20.807,-5.252 -19.442,-2.205 -17.237,0.001C-15.032,2.206 -11.984,3.571 -8.618,3.571C-5.253,3.571 -2.207,2.206 0,0.001C2.205,-2.205 3.57,-5.252 3.57,-8.617C3.57,-11.982 2.205,-15.03 0,-17.235M-8.618,-23.287C-4.568,-23.287 -0.901,-21.644 1.754,-18.989C4.408,-16.336 6.05,-12.668 6.05,-8.617C6.05,-4.567 4.408,-0.899 1.754,1.755C-0.901,4.41 -4.568,6.052 -8.618,6.052C-12.669,6.052 -16.336,4.41 -18.991,1.755C-21.646,-0.899 -23.288,-4.567 -23.288,-8.617C-23.288,-12.668 -21.646,-16.336 -18.991,-18.989C-16.336,-21.644 -12.669,-23.287 -8.618,-23.287" style="fill:rgb(46,30,17);"/>
            </g>
        </g>
        <g transform="matrix(4.16667,0,0,4.16667,0,0)">
            <g transform="matrix(1,0,0,1,133.67,349.675)">
                <path d="M0,-5.007C0.514,-5.192 1.08,-4.924 1.264,-4.409C1.448,-3.897 1.181,-3.33 0.667,-3.146L-8.07,0.002C-8.584,0.185 -9.15,-0.082 -9.334,-0.597C-9.519,-1.11 -9.25,-1.676 -8.737,-1.861L0,-5.007Z" style="fill:rgb(46,30,17);"/>
            </g>
        </g>
        <g transform="matrix(4.16667,0,0,4.16667,0,0)">
            <g transform="matrix(1,0,0,1,198.402,347.814)">
                <path d="M0,-1.285C-0.514,-1.47 -0.782,-2.036 -0.598,-2.549C-0.413,-3.063 0.152,-3.331 0.666,-3.146L9.403,-0C9.917,0.185 10.185,0.751 10.001,1.264C9.816,1.778 9.25,2.046 8.736,1.862L0,-1.285Z" style="fill:rgb(46,30,17);"/>
            </g>
        </g>
        <g transform="matrix(4.16667,0,0,4.16667,0,0)">
            <g transform="matrix(1,0,0,1,161.181,341.454)">
                <path d="M0,3.273C-0.285,3.74 -0.895,3.887 -1.361,3.602C-1.828,3.317 -1.976,2.709 -1.69,2.242C-1.686,2.234 -0.008,-0.614 5.169,-0.614C10.346,-0.614 12.024,2.234 12.029,2.242C12.314,2.709 12.166,3.317 11.7,3.602C11.233,3.887 10.623,3.74 10.339,3.273C10.336,3.267 9.224,1.372 5.169,1.372C1.114,1.372 0.003,3.267 0,3.273" style="fill:rgb(46,30,17);"/>
            </g>
        </g>
        <g transform="matrix(4.16667,0,0,4.16667,0,0)">
            <g transform="matrix(1,0,0,1,181.876,376.93)">
                <path d="M0,-12.117C-6.233,-9.804 -25.172,-9.85 -31.052,-11.838C-27.803,0 -3.16,-0.187 0,-12.117" style="fill:white;"/>
            </g>
        </g>
        <g transform="matrix(4.16667,0,0,4.16667,0,0)">
            <g transform="matrix(1,0,0,1,153.369,369.197)">
                <path d="M0,-85.058C-30.443,-85.058 -32.824,-64.668 -36.591,-37.653C-35.852,-35.71 -22.324,0 -22.159,-6.476C-21.898,-16.635 -21.42,-35.189 -20.346,-38.461C-19.816,-40.076 -19.092,-39.749 -17.397,-40.402C-2.57,-46.105 10.222,-57.539 0,-85.058" style="fill:rgb(71,44,83);"/>
            </g>
        </g>
        <g transform="matrix(4.16667,0,0,4.16667,0,0)">
            <g transform="matrix(1,0,0,1,214.755,319.408)">
                <path d="M0,-5.714C-10.116,-28.479 -26.532,-47.192 -41.973,-49.672C-52.003,-51.284 -65.417,-44.83 -63.484,-32.323C-62.301,-24.664 -55.495,-12.231 -53.977,-9.916C-45.12,3.584 -31.165,1.449 -17.641,11.401C-12.668,15.06 -12.835,36.758 -14.215,43.099C-14.751,45.57 -8.803,34.086 -4.297,23.232C0.261,12.253 3.361,1.846 0,-5.714" style="fill:rgb(71,44,83);"/>
            </g>
        </g>
        <g transform="matrix(4.16667,0,0,4.16667,0,0)">
            <g transform="matrix(1,0,0,1,166.313,433.527)">
                <path d="M0,-20.283C-7.317,-20.058 -14.583,-23.516 -19.903,-31.221C-29.085,-17.934 -12.933,10.938 -1.559,-15.57C0.263,-19.815 -0.217,-19.692 1.59,-15.499C12.963,10.885 29.077,-17.947 19.903,-31.221C14.583,-23.516 7.317,-20.058 0,-20.283" style="fill:rgb(209,114,120);"/>
            </g>
        </g>
        <g transform="matrix(4.16667,0,0,4.16667,0,0)">
            <g transform="matrix(1,0,0,1,164.754,454.837)">
                <path d="M0,-36.88C-10.385,-12.677 -24.753,-34.644 -20.184,-48.76C-19.949,-49.486 -19.663,-50.192 -19.324,-50.869C-20.788,-50.368 -22.266,-49.818 -23.748,-49.22C-46.308,-40.103 -70.147,-19.556 -69.387,14.02L72.581,14.02C73.392,-21.807 46.192,-42.801 22.427,-50.9C29.377,-37.077 14.075,-11.461 3.149,-36.809C1.342,-41.002 1.822,-41.125 0,-36.88" style="fill:rgb(126,162,213);"/>
            </g>
        </g>
        <g transform="matrix(4.16667,0,0,4.16667,0,0)">
            <g transform="matrix(1,0,0,1,114.587,468.863)">
                <path d="M0,-20.55C0.003,-20.96 0.338,-21.289 0.748,-21.286C1.156,-21.282 1.486,-20.948 1.483,-20.538L1.3,0C1.297,0.41 0.962,0.739 0.553,0.736C0.144,0.733 -0.186,0.398 -0.183,-0.011L0,-20.55Z" style="fill:rgb(102,133,170);"/>
            </g>
        </g>
        <g transform="matrix(4.16667,0,0,4.16667,0,0)">
            <g transform="matrix(1,0,0,1,216.813,468.863)">
                <path d="M0,-20.55C0.003,-20.96 0.338,-21.289 0.747,-21.286C1.156,-21.282 1.485,-20.948 1.483,-20.538L1.301,0C1.297,0.41 0.963,0.739 0.553,0.736C0.144,0.733 -0.186,0.398 -0.183,-0.011L0,-20.55Z" style="fill:rgb(102,133,170);"/>
            </g>
        </g>
        <g transform="matrix(4.16667,0,0,4.16667,0,0)">
            <g transform="matrix(1,0,0,1,164.556,357.782)">
                <path d="M0,-68.545C-0.025,-68.816 0.174,-69.058 0.446,-69.084C0.717,-69.109 0.959,-68.91 0.985,-68.638C1.531,-63.01 2.193,-57.987 4.717,-53.297C7.241,-48.609 11.646,-44.212 19.692,-39.799C21.425,-38.849 23.057,-37.965 24.614,-37.121C38.003,-29.868 46.093,-25.485 50.625,-15.941C55.64,-5.387 56.7,-0.088 56.703,-0.073C56.757,0.194 56.584,0.456 56.317,0.51C56.049,0.564 55.788,0.392 55.733,0.124C55.73,0.109 54.695,-5.066 49.73,-15.519C45.337,-24.769 37.356,-29.093 24.145,-36.248C22.567,-37.104 20.916,-37.998 19.214,-38.931C10.979,-43.446 6.456,-47.979 3.845,-52.829C1.236,-57.677 0.557,-62.805 0,-68.545" style="fill:rgb(89,59,115);"/>
            </g>
        </g>
        <g transform="matrix(4.16667,0,0,4.16667,0,0)">
            <g transform="matrix(1,0,0,1,168.46,352.96)">
                <path d="M0,-69.879C-0.208,-70.055 -0.235,-70.367 -0.06,-70.575C0.115,-70.784 0.427,-70.811 0.636,-70.635C3.027,-68.624 5.902,-66.398 9.023,-63.981C20.867,-54.806 36.243,-42.898 43.565,-28.464C52.782,-10.291 55.413,0.23 55.42,0.262C55.488,0.526 55.328,0.797 55.062,0.864C54.796,0.932 54.526,0.77 54.458,0.506C54.452,0.475 51.845,-9.95 42.681,-28.018C35.459,-42.253 20.185,-54.083 8.418,-63.197C5.305,-65.608 2.436,-67.83 0,-69.879" style="fill:rgb(89,59,115);"/>
            </g>
        </g>
        <g transform="matrix(4.16667,0,0,4.16667,0,0)">
            <g transform="matrix(1,0,0,1,152.527,342.091)">
                <path d="M0,-43.093C-0.007,-43.366 0.208,-43.594 0.481,-43.601C0.754,-43.609 0.981,-43.393 0.989,-43.12C1.116,-39.057 -0.617,-34.894 -3.534,-30.932C-6.796,-26.5 -11.548,-22.311 -16.826,-18.797C-26.543,-12.329 -30.535,0.078 -30.547,0.113C-30.631,0.373 -30.911,0.516 -31.171,0.431C-31.432,0.347 -31.574,0.067 -31.489,-0.193C-31.477,-0.23 -27.381,-12.961 -17.373,-19.623C-12.186,-23.075 -7.522,-27.184 -4.332,-31.518C-1.54,-35.31 0.12,-39.268 0,-43.093" style="fill:rgb(89,59,115);"/>
            </g>
        </g>
        <g transform="matrix(4.16667,0,0,4.16667,0,0)">
            <g transform="matrix(1,0,0,1,121.999,292.388)">
                <path d="M0,40.818C-0.046,41.089 -0.302,41.269 -0.573,41.223C-0.843,41.177 -1.023,40.922 -0.978,40.651C-0.186,36.037 1.133,29.79 3.479,23.489C5.832,17.17 9.216,10.803 14.133,5.98C15.85,4.297 17.345,3.003 18.644,2.015C20.178,0.847 21.435,0.11 22.457,-0.34C22.707,-0.451 23,-0.337 23.11,-0.087C23.22,0.164 23.106,0.456 22.856,0.567C21.891,0.993 20.701,1.692 19.241,2.801C17.981,3.76 16.52,5.026 14.826,6.686C10.027,11.394 6.714,17.633 4.405,23.834C2.09,30.052 0.784,36.242 0,40.818" style="fill:rgb(89,59,115);"/>
            </g>
        </g>
    </g>
</svg>
