<?xml version="1.0" encoding="UTF-8" standalone="no"?>
<!DOCTYPE svg PUBLIC "-//W3C//DTD SVG 1.1//EN" "http://www.w3.org/Graphics/SVG/1.1/DTD/svg11.dtd">
<svg width="100%" height="100%" viewBox="0 0 786 810" version="1.1" xmlns="http://www.w3.org/2000/svg" xmlns:xlink="http://www.w3.org/1999/xlink" xml:space="preserve" xmlns:serif="http://www.serif.com/" style="fill-rule:evenodd;clip-rule:evenodd;stroke-linejoin:round;stroke-miterlimit:2;">
    <g transform="matrix(1,0,0,1,-1169.6,-1147.51)">
        <g transform="matrix(4.16667,0,0,4.16667,0,0)">
            <g transform="matrix(1,0,0,1,392.826,461.504)">
                <path d="M0,-173.885L69.116,-104.768C78.921,-94.964 78.921,-78.92 69.116,-69.116L0,0C-9.804,9.804 -25.848,9.804 -35.651,0L-104.769,-69.116C-114.572,-78.92 -114.572,-94.964 -104.769,-104.768L-35.651,-173.885C-25.848,-183.689 -9.804,-183.689 0,-173.885" style="fill:rgb(126,148,147);"/>
            </g>
        </g>
        <g transform="matrix(4.16667,0,0,4.16667,0,0)">
            <g transform="matrix(1,0,0,1,341.603,392.202)">
                <path d="M0,-32.293C0.262,-33.637 1.563,-34.513 2.907,-34.251C4.251,-33.988 5.128,-32.687 4.865,-31.343C4.853,-31.276 0.434,-8.006 -18.177,1.593C-19.392,2.22 -20.885,1.742 -21.511,0.527C-22.138,-0.689 -21.66,-2.181 -20.444,-2.807C-3.99,-11.294 -0.012,-32.232 0,-32.293" style="fill:rgb(35,34,33);"/>
            </g>
        </g>
        <g transform="matrix(4.16667,0,0,4.16667,0,0)">
            <g transform="matrix(1,0,0,1,346.592,399.291)">
                <path d="M0,-32.291C0.262,-33.635 1.564,-34.512 2.908,-34.25C4.252,-33.987 5.128,-32.685 4.866,-31.342C4.853,-31.274 0.435,-8.004 -18.177,1.595C-19.392,2.221 -20.885,1.744 -21.511,0.529C-22.138,-0.687 -21.66,-2.179 -20.444,-2.806C-3.99,-11.293 -0.012,-32.23 0,-32.291" style="fill:rgb(35,34,33);"/>
            </g>
        </g>
        <g transform="matrix(4.16667,0,0,4.16667,0,0)">
            <g transform="matrix(1,0,0,1,351.005,407.351)">
                <path d="M0,-33.658C0.134,-35.017 1.345,-36.011 2.704,-35.878C4.063,-35.744 5.058,-34.532 4.924,-33.173C4.918,-33.11 2.938,-11.284 -16.706,1.604C-17.852,2.353 -19.388,2.032 -20.137,0.886C-20.887,-0.259 -20.566,-1.796 -19.421,-2.545C-1.771,-14.124 -0.006,-33.601 0,-33.658" style="fill:rgb(35,34,33);"/>
            </g>
        </g>
        <g transform="matrix(4.16667,0,0,4.16667,0,0)">
            <g transform="matrix(1,0,0,1,403.532,391.252)">
                <path d="M0,-30.393C-0.262,-31.737 0.614,-33.039 1.958,-33.301C3.302,-33.563 4.604,-32.687 4.865,-31.343C4.878,-31.283 8.856,-10.344 25.311,-1.857C26.526,-1.231 27.004,0.261 26.377,1.477C25.751,2.692 24.258,3.17 23.043,2.543C4.432,-7.056 0.014,-30.327 0,-30.393" style="fill:rgb(35,34,33);"/>
            </g>
        </g>
        <g transform="matrix(4.16667,0,0,4.16667,0,0)">
            <g transform="matrix(1,0,0,1,398.543,398.342)">
                <path d="M0,-30.393C-0.263,-31.736 0.614,-33.039 1.957,-33.301C3.302,-33.563 4.604,-32.686 4.865,-31.342C4.878,-31.282 8.856,-10.344 25.31,-1.857C26.526,-1.23 27.003,0.262 26.377,1.478C25.751,2.693 24.258,3.17 23.042,2.544C4.432,-7.055 0.013,-30.326 0,-30.393" style="fill:rgb(35,34,33);"/>
            </g>
        </g>
        <g transform="matrix(4.16667,0,0,4.16667,0,0)">
            <g transform="matrix(1,0,0,1,394.072,406.866)">
                <path d="M0,-32.687C-0.134,-34.046 0.86,-35.258 2.22,-35.392C3.579,-35.525 4.79,-34.532 4.924,-33.172C4.929,-33.116 6.694,-13.638 24.344,-2.059C25.489,-1.31 25.811,0.227 25.061,1.372C24.312,2.518 22.775,2.838 21.63,2.089C1.985,-10.798 0.006,-32.625 0,-32.687" style="fill:rgb(35,34,33);"/>
            </g>
        </g>
        <g transform="matrix(4.16667,0,0,4.16667,0,0)">
            <g transform="matrix(1,0,0,1,375,380.362)">
                <path d="M70.984,88.495L-70.983,88.495C-71.806,52.198 -43.878,31.126 -19.897,23.263C-17.952,13.136 -18.449,0 -18.449,0L18.45,0C18.45,0 17.953,13.136 19.898,23.263C43.879,31.126 71.807,52.198 70.984,88.495Z" style="fill:rgb(143,89,50);"/>
            </g>
        </g>
        <g transform="matrix(4.16667,0,0,4.16667,0,0)">
            <g transform="matrix(0.565816,-0.824531,-0.824531,-0.565816,443.328,394.222)">
                <path d="M-58.667,-46.416C-28.636,-26.825 -27.257,8.267 -34.496,33.115C-46.285,30.995 -64.928,58.251 -58.667,68.451C-79.234,84.21 -112.575,95.663 -141.734,74.633L-58.667,-46.416Z" style="fill:rgb(35,34,33);"/>
            </g>
        </g>
        <g transform="matrix(4.16667,0,0,4.16667,0,0)">
            <g transform="matrix(1,0,0,1,356.659,467.458)">
                <path d="M0,-54.541C-11.852,-50.671 -24.685,-43.328 -33.588,-32.221C-40.632,-23.435 -45.215,-12.281 -44.895,1.385L-46.377,1.414C-46.707,-12.64 -41.991,-24.112 -34.746,-33.151C-25.643,-44.508 -12.546,-52.008 -0.459,-55.955L0,-54.541ZM81.577,1.385C81.896,-12.252 77.334,-23.386 70.319,-32.163C61.46,-43.247 48.68,-50.592 36.851,-54.484L37.316,-55.897C49.373,-51.93 62.412,-44.428 71.477,-33.088C78.695,-24.058 83.388,-12.605 83.06,1.414L81.577,1.385Z" style="fill:white;"/>
            </g>
        </g>
        <g transform="matrix(4.16667,0,0,4.16667,0,0)">
            <g transform="matrix(1,0,0,1,354.839,467.477)">
                <path d="M0,-58.515C-12.496,-54.282 -25.986,-46.404 -35.703,-34.59C-43.462,-25.159 -48.818,-13.209 -49.346,1.407L-50.828,1.355C-50.289,-13.623 -44.8,-25.868 -36.85,-35.532C-26.936,-47.584 -13.196,-55.614 -0.477,-59.922L0,-58.515ZM89.668,1.407C89.144,-13.174 83.811,-25.101 76.083,-34.522C66.408,-46.315 52.979,-54.194 40.512,-58.451L40.988,-59.858C53.68,-55.525 67.359,-47.494 77.229,-35.463C85.148,-25.809 90.613,-13.587 91.151,1.355L89.668,1.407Z" style="fill:white;"/>
            </g>
        </g>
        <g transform="matrix(4.16667,0,0,4.16667,0,0)">
            <g transform="matrix(-0.999812,0.0194122,0.0194122,0.999812,332.098,362.245)">
                <path d="M-4.106,-14.278C-3.969,-16.177 3.749,-18.571 6.455,-12.413C9.163,-6.254 4.677,2.633 -4.106,3.494C-12.889,4.354 -10.332,2.751 -10.332,2.751L-4.106,-14.278Z" style="fill:rgb(143,89,50);"/>
            </g>
        </g>
        <g transform="matrix(4.16667,0,0,4.16667,0,0)">
            <g transform="matrix(-0.999812,-0.0194122,-0.0194122,0.999812,418.089,362.245)">
                <path d="M4.106,-14.278C3.969,-16.177 -3.748,-18.571 -6.455,-12.413C-9.163,-6.254 -4.676,2.633 4.106,3.494C12.889,4.354 10.331,2.751 10.331,2.751L4.106,-14.278Z" style="fill:rgb(143,89,50);"/>
            </g>
        </g>
        <g transform="matrix(4.16667,0,0,4.16667,0,0)">
            <g transform="matrix(-0.189522,-0.981877,-0.981877,0.189522,358.752,377.696)">
                <path d="M-9.194,-33.564C-9.194,-33.564 -11.732,-32.973 -15.458,-32.318C-31.417,-22.101 -29.239,-0.359 -9.194,3.994C-5.112,3.115 -2.201,2.666 -2.201,2.666L-9.194,-33.564Z" style="fill:rgb(98,58,28);"/>
            </g>
        </g>
        <g transform="matrix(4.16667,0,0,4.16667,0,0)">
            <g transform="matrix(1,0,0,1,375,279.041)">
                <path d="M0,110.676C-45.773,111.776 -68.884,-1.1 0,1.79C68.884,-1.1 45.774,111.776 0,110.676" style="fill:rgb(143,89,50);"/>
            </g>
        </g>
        <g transform="matrix(4.16667,0,0,4.16667,0,0)">
            <g transform="matrix(1,0,0,1,333.768,276.431)">
                <path d="M0,69.374C-3.211,55.8 -4.762,39.477 -0.822,27.673C4.021,13.16 23.012,0.295 41.587,0.145C59.429,0 76.859,12.006 82.46,25.457C87.42,37.368 85.883,54.928 82.465,69.374C77.452,61.75 75.328,48.162 75.769,39.947C76.438,27.448 59.128,20.895 41.232,20.338C23.337,20.895 6.028,27.448 6.697,39.947C7.138,48.162 5.014,61.75 0,69.374" style="fill:rgb(61,61,60);"/>
            </g>
        </g>
        <g transform="matrix(4.16667,0,0,4.16667,0,0)">
            <g transform="matrix(1,0,0,1,372.193,442.062)">
                <path d="M0,-17.963C0,-18.236 0.223,-18.459 0.497,-18.459C0.771,-18.459 0.993,-18.236 0.993,-17.963L0.993,-0C0.993,0.273 0.771,0.496 0.497,0.496C0.223,0.496 0,0.273 0,-0L0,-17.963Z" style="fill:rgb(23,20,17);"/>
            </g>
        </g>
        <g transform="matrix(4.16667,0,0,4.16667,0,0)">
            <g transform="matrix(1,0,0,1,376.419,426.024)">
                <path d="M0,3.448C0.994,3.448 1.804,2.674 1.804,1.724C1.804,0.774 0.994,0 0,0C-0.994,0 -1.805,0.774 -1.805,1.724C-1.805,2.674 -0.994,3.448 0,3.448" style="fill:white;"/>
            </g>
        </g>
        <g transform="matrix(4.16667,0,0,4.16667,0,0)">
            <g transform="matrix(1,0,0,1,376.419,435.967)">
                <path d="M0,3.448C0.994,3.448 1.804,2.674 1.804,1.724C1.804,0.774 0.994,0 0,0C-0.994,0 -1.805,0.774 -1.805,1.724C-1.805,2.674 -0.994,3.448 0,3.448" style="fill:white;"/>
            </g>
        </g>
        <g transform="matrix(4.16667,0,0,4.16667,0,0)">
            <g transform="matrix(-0.547587,-0.836749,-0.836749,0.547587,346.18,350.823)">
                <path d="M-4.003,-7.402C-6.782,-8.375 -9.036,-7.022 -9.037,-4.382C-9.036,-1.74 -6.783,1.191 -4.003,2.163C-1.223,3.137 1.031,1.784 1.031,-0.859C1.03,-3.499 -1.222,-6.429 -4.003,-7.402" style="fill:rgb(218,144,119);"/>
            </g>
        </g>
        <g transform="matrix(4.16667,0,0,4.16667,0,0)">
            <g transform="matrix(-0.547587,0.836749,0.836749,0.547587,404.075,350.824)">
                <path d="M4.001,-7.401C6.781,-8.374 9.035,-7.022 9.035,-4.381C9.035,-1.74 6.782,1.192 4.001,2.164C1.221,3.138 -1.032,1.784 -1.033,-0.858C-1.031,-3.499 1.221,-6.429 4.001,-7.401" style="fill:rgb(218,144,119);"/>
            </g>
        </g>
        <g transform="matrix(4.16667,0,0,4.16667,0,0)">
            <g transform="matrix(1,0,0,1,361.414,328.033)">
                <path d="M0,-3.928C-0.152,-3.994 -0.305,-4.057 -0.462,-4.116C-2.249,-4.762 -3.767,-4.937 -5.698,-4.797C-7.592,-4.596 -9.005,-4.169 -10.59,-3.264C-11.331,-2.786 -14.221,-0.448 -13.401,0.415C-13.066,0.509 -10.188,-0.962 -9.343,-1.237C-8.026,-1.625 -6.96,-1.775 -5.566,-1.745C-4.269,-1.687 -3.29,-1.497 -2.105,-1.04C-2.073,-1.034 -1.859,-0.939 -1.814,-0.918C0.6,0.256 0.382,1.009 2.027,-0.119C4.563,-1.47 1.954,-2.912 0,-3.928" style="fill:rgb(35,34,33);"/>
            </g>
        </g>
        <g transform="matrix(4.16667,0,0,4.16667,0,0)">
            <g transform="matrix(1,0,0,1,388.586,328.033)">
                <path d="M0,-3.928C0.153,-3.994 0.305,-4.057 0.462,-4.116C2.25,-4.762 3.768,-4.937 5.699,-4.797C7.593,-4.596 9.005,-4.169 10.591,-3.264C11.332,-2.786 14.221,-0.448 13.401,0.415C13.067,0.509 10.188,-0.962 9.343,-1.237C8.027,-1.625 6.961,-1.775 5.567,-1.745C4.269,-1.687 3.291,-1.497 2.106,-1.04C2.074,-1.034 1.86,-0.939 1.815,-0.918C-0.6,0.256 -0.382,1.009 -2.026,-0.119C-4.562,-1.47 -1.953,-2.912 0,-3.928" style="fill:rgb(35,34,33);"/>
            </g>
        </g>
        <g transform="matrix(4.16667,0,0,4.16667,0,0)">
            <g transform="matrix(1,0,0,1,363.127,368.599)">
                <path d="M0,-8.903C4.218,-8.956 8.421,-8.982 12.624,-8.982C16.827,-8.982 21.03,-8.956 25.248,-8.903C25.248,-2.284 18.721,0.079 12.646,0.079L12.602,0.079C6.527,0.079 0,-2.284 0,-8.903" style="fill:white;"/>
            </g>
        </g>
        <g transform="matrix(4.16667,0,0,4.16667,0,0)">
            <g transform="matrix(1,0,0,1,372.849,372.37)">
                <path d="M0,0.253C-0.235,0.114 -0.314,-0.188 -0.176,-0.425C-0.038,-0.659 0.265,-0.739 0.501,-0.601C1.183,-0.201 2.052,-0 2.922,-0C3.79,-0 4.646,-0.199 5.299,-0.597C5.533,-0.737 5.836,-0.663 5.978,-0.43C6.119,-0.196 6.044,0.107 5.811,0.249C4.994,0.744 3.958,0.992 2.922,0.992C1.889,0.992 0.841,0.745 0,0.253" style="fill:rgb(98,58,28);"/>
            </g>
        </g>
        <g transform="matrix(4.16667,0,0,4.16667,0,0)">
            <g transform="matrix(1,0,0,1,374.627,337.676)">
                <path d="M0,12.937C-0.274,12.937 -0.496,12.714 -0.496,12.441C-0.496,12.166 -0.274,11.944 0,11.944C1.191,11.944 2.614,11.933 3.714,11.747C4.616,11.594 5.281,11.349 5.281,10.937C5.281,9.509 3.835,0.634 3.83,0.61C3.787,0.339 3.972,0.085 4.241,0.043C4.511,0 4.766,0.184 4.808,0.454C4.812,0.48 6.273,9.448 6.273,10.937C6.273,11.982 5.257,12.49 3.876,12.723C2.69,12.924 1.224,12.937 0,12.937" style="fill:rgb(98,58,28);"/>
            </g>
        </g>
        <g transform="matrix(4.16667,0,0,4.16667,0,0)">
            <g transform="matrix(1,0,0,1,421.97,357.347)">
                <path d="M0,-2.486C0,-2.212 -0.223,-1.99 -0.496,-1.99C-0.771,-1.99 -0.993,-2.212 -0.993,-2.486C-0.993,-3.993 -1.254,-4.94 -1.673,-5.456C-1.925,-5.765 -2.243,-5.908 -2.596,-5.917C-3.002,-5.925 -3.466,-5.773 -3.947,-5.501C-5.249,-4.762 -6.597,-3.198 -7.342,-1.495C-7.702,-0.674 -8.011,0.17 -8.188,0.808C-7.427,0.278 -6.586,0.067 -5.876,0.137C-5.473,0.178 -5.105,0.31 -4.808,0.525C-4.492,0.75 -4.258,1.065 -4.141,1.458C-3.938,2.14 -4.094,3.053 -4.825,4.145C-4.978,4.371 -5.284,4.432 -5.512,4.281C-5.738,4.128 -5.799,3.822 -5.647,3.594C-5.102,2.78 -4.967,2.16 -5.091,1.742C-5.143,1.565 -5.247,1.426 -5.385,1.327C-5.539,1.215 -5.742,1.146 -5.973,1.122C-6.61,1.059 -7.417,1.337 -8.089,2.012C-8.27,2.194 -8.438,2.295 -8.594,2.329C-8.991,2.414 -9.223,2.24 -9.311,1.85L-9.315,1.824C-9.345,1.676 -9.338,1.479 -9.302,1.244C-9.189,0.539 -8.766,-0.71 -8.249,-1.889C-7.423,-3.78 -5.908,-5.526 -4.436,-6.361C-3.804,-6.719 -3.168,-6.918 -2.577,-6.904C-1.933,-6.89 -1.355,-6.634 -0.904,-6.081C-0.348,-5.394 0,-4.238 0,-2.486" style="fill:rgb(98,58,28);"/>
            </g>
        </g>
        <g transform="matrix(4.16667,0,0,4.16667,0,0)">
            <g transform="matrix(1,0,0,1,329.024,357.347)">
                <path d="M0,-2.486C0,-2.212 -0.224,-1.99 -0.497,-1.99C-0.771,-1.99 -0.993,-2.212 -0.993,-2.486C-0.993,-4.238 -0.646,-5.394 -0.089,-6.081C0.362,-6.634 0.939,-6.89 1.583,-6.904C2.174,-6.918 2.811,-6.719 3.442,-6.361C4.915,-5.526 6.43,-3.78 7.256,-1.889C7.771,-0.71 8.195,0.539 8.308,1.244C8.345,1.479 8.351,1.676 8.322,1.824L8.316,1.85C8.229,2.24 7.998,2.414 7.6,2.329C7.444,2.295 7.276,2.194 7.096,2.012C6.424,1.337 5.617,1.059 4.979,1.122C4.748,1.146 4.546,1.215 4.392,1.327C4.253,1.426 4.149,1.565 4.097,1.742C3.973,2.16 4.107,2.78 4.654,3.594C4.806,3.822 4.745,4.128 4.518,4.281C4.291,4.432 3.983,4.371 3.832,4.145C3.101,3.053 2.944,2.14 3.146,1.458C3.265,1.065 3.498,0.75 3.813,0.525C4.112,0.31 4.479,0.178 4.883,0.137C5.592,0.067 6.433,0.278 7.195,0.808C7.018,0.17 6.708,-0.674 6.349,-1.495C5.604,-3.198 4.256,-4.762 2.954,-5.501C2.473,-5.773 2.008,-5.925 1.603,-5.917C1.249,-5.908 0.931,-5.765 0.679,-5.456C0.26,-4.94 0,-3.993 0,-2.486" style="fill:rgb(98,58,28);"/>
            </g>
        </g>
        <g transform="matrix(4.16667,0,0,4.16667,0,0)">
            <g transform="matrix(-0.809867,-0.586613,-0.586613,0.809867,355.545,340.022)">
                <path d="M-2.24,-6.911C-4.351,-6.917 -6.062,-5.209 -6.061,-3.1C-6.06,-0.99 -4.349,0.723 -2.24,0.726C-0.128,0.73 1.582,-0.976 1.583,-3.085C1.582,-5.196 -0.13,-6.908 -2.24,-6.911" style="fill:rgb(35,34,33);"/>
            </g>
        </g>
        <g transform="matrix(4.16667,0,0,4.16667,0,0)">
            <g transform="matrix(-0.809805,0.586699,0.586699,0.809805,394.457,340.021)">
                <path d="M2.241,-6.912C4.352,-6.917 6.063,-5.21 6.062,-3.1C6.063,-0.991 4.351,0.723 2.241,0.726C0.13,0.73 -1.581,-0.976 -1.581,-3.085C-1.582,-5.195 0.13,-6.907 2.241,-6.912" style="fill:rgb(35,34,33);"/>
            </g>
        </g>
        <g transform="matrix(4.16667,0,0,4.16667,0,0)">
            <g transform="matrix(1,0,0,1,364.659,363.296)">
                <path d="M0,0.993C-0.273,0.993 -0.496,0.77 -0.496,0.497C-0.496,0.223 -0.273,0 0,0L22.185,0C22.458,0 22.681,0.223 22.681,0.497C22.681,0.77 22.458,0.993 22.185,0.993L0,0.993Z" style="fill:rgb(175,176,176);"/>
            </g>
        </g>
        <g transform="matrix(4.16667,0,0,4.16667,0,0)">
            <g transform="matrix(1,0,0,1,375,274.7)">
                <path d="M0,33.928C-4.753,33.916 -9.505,23.653 -4.469,2.753C-3.806,0 3.815,0.037 4.47,2.753C9.506,23.653 4.753,33.916 0,33.928" style="fill:rgb(35,34,33);"/>
            </g>
        </g>
        <g transform="matrix(4.16667,0,0,4.16667,0,0)">
            <g transform="matrix(-0.972856,0.231411,0.231411,0.972856,349.886,311.56)">
                <path d="M1.426,-23.295C-2.017,-27.06 -5.214,-28.356 -8.071,-27.01C-3.006,-20.634 -0.284,-12.615 1.426,-3.767C2.84,3.55 12.379,4.513 9.967,-5.126C8.344,-11.613 5.76,-18.469 1.426,-23.295" style="fill:rgb(35,34,33);"/>
            </g>
        </g>
        <g transform="matrix(4.16667,0,0,4.16667,0,0)">
            <g transform="matrix(-0.984712,0.174192,0.174192,0.984712,357.883,307.987)">
                <path d="M-0.486,-26.21C-3.115,-28.646 -5.772,-29.419 -8.362,-27.965C-3.877,-22.006 -0.853,-11.119 -0.486,-3.327C-0.151,3.793 9.089,2.9 8.735,-1.958C8.182,-9.557 4.5,-20.263 -0.486,-26.21" style="fill:rgb(35,34,33);"/>
            </g>
        </g>
        <g transform="matrix(4.16667,0,0,4.16667,0,0)">
            <g transform="matrix(1,0,0,1,369.281,306.048)">
                <path d="M0,-28.959C-2.315,-21.133 -2.887,-10.979 -1.487,-2.691C-0.192,4.977 -10.06,3.484 -10.501,-2.049C-11.211,-10.942 -9.721,-33.936 0,-28.959" style="fill:rgb(35,34,33);"/>
            </g>
        </g>
        <g transform="matrix(4.16667,0,0,4.16667,0,0)">
            <g transform="matrix(-0.972868,-0.231362,-0.231362,0.972868,399.974,311.084)">
                <path d="M-1.673,-22.865C1.769,-26.63 5.263,-28.328 8.121,-26.982C3.056,-20.606 0.038,-12.185 -1.673,-3.337C-3.087,3.98 -12.625,4.943 -10.213,-4.695C-8.591,-11.183 -6.008,-18.039 -1.673,-22.865" style="fill:rgb(35,34,33);"/>
            </g>
        </g>
        <g transform="matrix(4.16667,0,0,4.16667,0,0)">
            <g transform="matrix(-0.984712,-0.174192,-0.174192,0.984712,392.082,307.656)">
                <path d="M0.393,-25.89C3.022,-28.326 5.799,-29.411 8.39,-27.957C3.905,-21.998 0.76,-10.799 0.393,-3.008C0.058,4.113 -9.183,3.219 -8.828,-1.638C-8.275,-9.237 -4.593,-19.943 0.393,-25.89" style="fill:rgb(35,34,33);"/>
            </g>
        </g>
        <g transform="matrix(4.16667,0,0,4.16667,0,0)">
            <g transform="matrix(1,0,0,1,380.883,305.849)">
                <path d="M0,-29.022C2.315,-21.196 2.723,-10.78 1.323,-2.493C0.029,5.175 9.896,3.683 10.338,-1.85C11.048,-10.744 8.867,-34.197 0,-29.022" style="fill:rgb(35,34,33);"/>
            </g>
        </g>
        <g transform="matrix(4.16667,0,0,4.16667,0,0)">
            <g transform="matrix(1,0,0,1,374.951,397.316)">
                <path d="M0,23.553C-0.116,23.494 -0.229,23.432 -0.345,23.371L-0.345,24.959C-0.209,24.984 -0.095,24.995 0,24.99C1.968,25.075 13.04,19.64 23.164,23.87C26.952,25.453 28.625,28.633 29.021,27.473C32.018,18.672 26.385,0.479 18.579,-5.08C17.079,-0.6 14.057,16.311 0,23.553" style="fill:rgb(61,61,60);"/>
            </g>
        </g>
        <g transform="matrix(4.16667,0,0,4.16667,0,0)">
            <g transform="matrix(1,0,0,1,375.05,397.316)">
                <path d="M0,23.553C0.116,23.494 0.229,23.432 0.345,23.371L0.345,24.959C0.209,24.984 0.094,24.995 0,24.99C-1.969,25.075 -13.04,19.64 -23.164,23.87C-26.953,25.453 -28.625,28.633 -29.021,27.473C-32.019,18.672 -26.385,0.479 -18.579,-5.08C-17.079,-0.6 -14.057,16.311 0,23.553" style="fill:rgb(61,61,60);"/>
            </g>
        </g>
        <g transform="matrix(4.16667,0,0,4.16667,0,0)">
            <g transform="matrix(1,0,0,1,375,410.714)">
                <path d="M0,10.131C4.834,7.628 8.358,3.982 10.965,0.093C4.223,1.837 -4.334,1.805 -11.026,0C-8.414,3.923 -4.871,7.609 0,10.131" style="fill:white;"/>
            </g>
        </g>
        <g transform="matrix(4.16667,0,0,4.16667,0,0)">
            <g transform="matrix(1,0,0,1,323.237,468.863)">
                <path d="M0,-20.55C0.003,-20.96 0.338,-21.289 0.747,-21.286C1.157,-21.282 1.486,-20.948 1.482,-20.538L1.301,0C1.297,0.41 0.963,0.739 0.553,0.736C0.144,0.733 -0.187,0.398 -0.183,-0.011L0,-20.55Z" style="fill:rgb(23,20,17);"/>
            </g>
        </g>
        <g transform="matrix(4.16667,0,0,4.16667,0,0)">
            <g transform="matrix(1,0,0,1,425.463,468.863)">
                <path d="M0,-20.55C0.003,-20.96 0.338,-21.289 0.747,-21.286C1.157,-21.282 1.486,-20.948 1.483,-20.538L1.301,0C1.298,0.41 0.963,0.739 0.554,0.736C0.144,0.733 -0.187,0.398 -0.182,-0.011L0,-20.55Z" style="fill:rgb(23,20,17);"/>
            </g>
        </g>
    </g>
</svg>
