<?xml version="1.0" encoding="UTF-8" standalone="no"?>
<!DOCTYPE svg PUBLIC "-//W3C//DTD SVG 1.1//EN" "http://www.w3.org/Graphics/SVG/1.1/DTD/svg11.dtd">
<svg width="100%" height="100%" viewBox="0 0 786 812" version="1.1" xmlns="http://www.w3.org/2000/svg" xmlns:xlink="http://www.w3.org/1999/xlink" xml:space="preserve" xmlns:serif="http://www.serif.com/" style="fill-rule:evenodd;clip-rule:evenodd;stroke-linejoin:round;stroke-miterlimit:2;">
    <g transform="matrix(1,0,0,1,-2044.4,-1144.9)">
        <g transform="matrix(4.16667,0,0,4.16667,0,0)">
            <g transform="matrix(1,0,0,1,602.778,461.504)">
                <path d="M0,-173.885L69.116,-104.768C78.921,-94.964 78.921,-78.92 69.116,-69.116L0,0C-9.805,9.804 -25.848,9.804 -35.652,0L-104.769,-69.116C-114.572,-78.92 -114.572,-94.964 -104.769,-104.768L-35.652,-173.885C-25.848,-183.689 -9.805,-183.689 0,-173.885" style="fill:rgb(126,162,213);"/>
            </g>
        </g>
        <g transform="matrix(4.16667,0,0,4.16667,0,0)">
            <g transform="matrix(1,0,0,1,617.985,395.537)">
                <path d="M0,-23.818C0,-23.818 0.841,-13.103 5.672,-9.112C10.504,-5.121 21.849,0.341 23.319,18.41C24.79,36.477 13.025,50.552 13.025,50.552C13.025,50.552 14.295,42.257 9.033,33.745C1.892,22.191 -30.787,28.652 -40.967,-0.499C-52.613,-33.847 -17.544,-74.37 0,-23.818" style="fill:rgb(84,49,23);"/>
            </g>
        </g>
        <g transform="matrix(4.16667,0,0,4.16667,0,0)">
            <g transform="matrix(-0.999812,0.0194122,0.0194122,0.999812,542.049,362.245)">
                <path d="M-4.107,-14.278C-3.97,-16.177 3.748,-18.571 6.455,-12.413C9.163,-6.254 4.675,2.633 -4.107,3.494C-12.89,4.354 -10.332,2.751 -10.332,2.751L-4.107,-14.278Z" style="fill:rgb(228,174,124);"/>
            </g>
        </g>
        <g transform="matrix(4.16667,0,0,4.16667,0,0)">
            <g transform="matrix(-0.999812,-0.0194122,-0.0194122,0.999812,628.041,362.245)">
                <path d="M4.105,-14.278C3.969,-16.177 -3.749,-18.571 -6.455,-12.413C-9.163,-6.254 -4.677,2.633 4.105,3.494C12.888,4.354 10.331,2.751 10.331,2.751L4.105,-14.278Z" style="fill:rgb(228,174,124);"/>
            </g>
        </g>
        <g transform="matrix(4.16667,0,0,4.16667,0,0)">
            <g transform="matrix(1,0,0,1,584.952,380.362)">
                <path d="M70.984,88.495L-70.984,88.495C-71.806,52.198 -43.878,31.126 -19.898,23.263C-17.953,13.136 -18.45,0 -18.45,0L18.449,0C18.449,0 17.952,13.136 19.897,23.263C43.878,31.126 71.806,52.198 70.984,88.495Z" style="fill:rgb(228,174,124);"/>
            </g>
        </g>
        <g transform="matrix(4.16667,0,0,4.16667,0,0)">
            <g transform="matrix(-0.189522,-0.981877,-0.981877,0.189522,568.704,377.696)">
                <path d="M-9.195,-33.565C-9.195,-33.565 -11.733,-32.974 -15.459,-32.318C-31.418,-22.1 -29.24,-0.36 -9.195,3.993C-5.113,3.115 -2.201,2.667 -2.201,2.667L-9.195,-33.565Z" style="fill:rgb(214,127,84);"/>
            </g>
        </g>
        <g transform="matrix(4.16667,0,0,4.16667,0,0)">
            <g transform="matrix(1,0,0,1,658.356,403.863)">
                <path d="M0,64.994C0.839,29.148 -27.315,8.155 -51.9,0.064L-72.287,31.53L-94.711,0C-119.342,8.042 -147.649,29.052 -146.809,64.994L0,64.994Z" style="fill:rgb(233,222,213);"/>
            </g>
        </g>
        <g transform="matrix(4.16667,0,0,4.16667,0,0)">
            <g transform="matrix(1,0,0,1,584.952,279.041)">
                <path d="M0,110.676C-45.773,111.776 -68.884,-1.1 0,1.79C68.884,-1.1 45.773,111.776 0,110.676" style="fill:rgb(228,174,124);"/>
            </g>
        </g>
        <g transform="matrix(4.16667,0,0,4.16667,0,0)">
            <g transform="matrix(-0.809768,-0.58675,-0.58675,0.809768,563.272,339.835)">
                <path d="M-2.406,-7.421C-4.671,-7.426 -6.509,-5.594 -6.509,-3.329C-6.509,-1.064 -4.671,0.775 -2.406,0.78C-0.139,0.784 1.697,-1.048 1.697,-3.312C1.697,-5.577 -0.139,-7.415 -2.406,-7.421" style="fill:rgb(32,32,30);"/>
            </g>
        </g>
        <g transform="matrix(4.16667,0,0,4.16667,0,0)">
            <g transform="matrix(-0.809768,0.58675,0.58675,0.809768,606.888,339.835)">
                <path d="M2.405,-7.421C4.671,-7.426 6.509,-5.594 6.508,-3.329C6.509,-1.065 4.671,0.775 2.405,0.78C0.14,0.783 -1.698,-1.048 -1.697,-3.312C-1.697,-5.577 0.139,-7.415 2.405,-7.421" style="fill:rgb(32,32,30);"/>
            </g>
        </g>
        <g transform="matrix(4.16667,0,0,4.16667,0,0)">
            <g transform="matrix(-0.547539,-0.83678,-0.83678,0.547539,556.133,350.823)">
                <path d="M-4.002,-7.402C-6.781,-8.375 -9.035,-7.022 -9.035,-4.381C-9.036,-1.741 -6.783,1.191 -4.002,2.165C-1.222,3.138 1.031,1.784 1.032,-0.858C1.031,-3.498 -1.221,-6.429 -4.002,-7.402" style="fill:rgb(218,144,119);"/>
            </g>
        </g>
        <g transform="matrix(4.16667,0,0,4.16667,0,0)">
            <g transform="matrix(-0.547539,0.83678,0.83678,0.547539,614.027,350.823)">
                <path d="M4.003,-7.402C6.782,-8.375 9.036,-7.022 9.036,-4.381C9.036,-1.74 6.783,1.192 4.003,2.164C1.223,3.137 -1.031,1.784 -1.031,-0.858C-1.03,-3.499 1.222,-6.43 4.003,-7.402" style="fill:rgb(218,144,119);"/>
            </g>
        </g>
        <g transform="matrix(4.16667,0,0,4.16667,0,0)">
            <g transform="matrix(1,0,0,1,571.366,328.033)">
                <path d="M0,-3.928C-0.152,-3.994 -0.306,-4.057 -0.461,-4.116C-2.25,-4.762 -3.768,-4.937 -5.699,-4.797C-7.592,-4.596 -9.004,-4.169 -10.591,-3.264C-11.331,-2.786 -14.221,-0.448 -13.401,0.415C-13.067,0.509 -10.188,-0.962 -9.344,-1.237C-8.027,-1.625 -6.961,-1.775 -5.567,-1.745C-4.268,-1.687 -3.29,-1.497 -2.106,-1.04C-2.074,-1.034 -1.86,-0.939 -1.814,-0.918C0.6,0.256 0.381,1.009 2.028,-0.119C4.563,-1.47 1.954,-2.912 0,-3.928" style="fill:rgb(63,39,22);"/>
            </g>
        </g>
        <g transform="matrix(4.16667,0,0,4.16667,0,0)">
            <g transform="matrix(1,0,0,1,598.538,328.033)">
                <path d="M0,-3.928C0.152,-3.994 0.306,-4.057 0.461,-4.116C2.25,-4.762 3.768,-4.937 5.7,-4.797C7.592,-4.596 9.004,-4.169 10.591,-3.264C11.331,-2.786 14.221,-0.448 13.401,0.415C13.068,0.509 10.188,-0.962 9.344,-1.237C8.027,-1.625 6.961,-1.775 5.567,-1.745C4.268,-1.687 3.29,-1.497 2.106,-1.04C2.074,-1.034 1.86,-0.939 1.814,-0.918C-0.6,0.256 -0.381,1.009 -2.027,-0.119C-4.563,-1.47 -1.954,-2.912 0,-3.928" style="fill:rgb(63,39,22);"/>
            </g>
        </g>
        <g transform="matrix(4.16667,0,0,4.16667,0,0)">
            <g transform="matrix(1,0,0,1,573.449,368.599)">
                <path d="M0,-8.903C4.095,-8.956 8.174,-8.982 12.254,-8.982C16.333,-8.982 20.413,-8.956 24.508,-8.903C24.508,-2.284 18.171,0.079 12.275,0.079L12.232,0.079C6.336,0.079 0,-2.284 0,-8.903" style="fill:white;"/>
            </g>
        </g>
        <g transform="matrix(4.16667,0,0,4.16667,0,0)">
            <g transform="matrix(1,0,0,1,597.441,368.607)">
                <path d="M0,-5.898C-1.624,-1.557 -6.822,0.072 -11.717,0.072L-11.76,0.072C-16.654,0.072 -21.853,-1.557 -23.478,-5.898C-19.556,-5.946 -15.646,-5.97 -11.738,-5.97C-7.83,-5.97 -3.921,-5.946 0,-5.898" style="fill:rgb(136,52,42);"/>
            </g>
        </g>
        <g transform="matrix(4.16667,0,0,4.16667,0,0)">
            <g transform="matrix(1,0,0,1,582.801,372.37)">
                <path d="M0,0.253C-0.236,0.114 -0.314,-0.188 -0.177,-0.425C-0.038,-0.659 0.265,-0.739 0.5,-0.601C1.183,-0.201 2.052,-0 2.922,-0C3.79,-0 4.645,-0.199 5.299,-0.597C5.532,-0.737 5.836,-0.663 5.978,-0.43C6.118,-0.196 6.043,0.107 5.811,0.249C4.994,0.744 3.958,0.992 2.922,0.992C1.888,0.992 0.841,0.745 0,0.253" style="fill:rgb(214,127,84);"/>
            </g>
        </g>
        <g transform="matrix(4.16667,0,0,4.16667,0,0)">
            <g transform="matrix(1,0,0,1,584.578,337.676)">
                <path d="M0,12.937C-0.273,12.937 -0.496,12.714 -0.496,12.441C-0.496,12.166 -0.273,11.944 0,11.944C1.191,11.944 2.614,11.933 3.714,11.747C4.617,11.594 5.281,11.349 5.281,10.937C5.281,9.509 3.835,0.634 3.831,0.61C3.789,0.339 3.972,0.085 4.242,0.043C4.513,0 4.766,0.184 4.809,0.454C4.812,0.48 6.273,9.448 6.273,10.937C6.273,11.982 5.258,12.49 3.876,12.723C2.691,12.924 1.225,12.937 0,12.937" style="fill:rgb(214,127,84);"/>
            </g>
        </g>
        <g transform="matrix(4.16667,0,0,4.16667,0,0)">
            <g transform="matrix(1,0,0,1,631.921,357.347)">
                <path d="M0,-2.486C0,-2.212 -0.222,-1.99 -0.496,-1.99C-0.771,-1.99 -0.991,-2.212 -0.991,-2.486C-0.991,-3.993 -1.253,-4.94 -1.672,-5.456C-1.924,-5.765 -2.242,-5.908 -2.595,-5.917C-3.001,-5.925 -3.465,-5.773 -3.946,-5.501C-5.249,-4.762 -6.597,-3.198 -7.342,-1.495C-7.7,-0.674 -8.01,0.17 -8.188,0.808C-7.426,0.278 -6.585,0.067 -5.876,0.137C-5.473,0.178 -5.105,0.31 -4.807,0.525C-4.492,0.75 -4.257,1.065 -4.141,1.458C-3.937,2.14 -4.094,3.053 -4.824,4.145C-4.977,4.371 -5.283,4.432 -5.511,4.281C-5.737,4.128 -5.799,3.822 -5.646,3.594C-5.101,2.78 -4.965,2.16 -5.09,1.742C-5.142,1.565 -5.245,1.426 -5.384,1.327C-5.539,1.215 -5.742,1.146 -5.973,1.122C-6.61,1.059 -7.417,1.337 -8.089,2.012C-8.269,2.194 -8.438,2.295 -8.593,2.329C-8.991,2.414 -9.223,2.24 -9.309,1.85L-9.314,1.824C-9.345,1.676 -9.338,1.479 -9.301,1.244C-9.188,0.539 -8.765,-0.71 -8.249,-1.889C-7.422,-3.78 -5.908,-5.526 -4.435,-6.361C-3.803,-6.719 -3.167,-6.918 -2.575,-6.904C-1.932,-6.89 -1.355,-6.634 -0.904,-6.081C-0.346,-5.394 0,-4.238 0,-2.486" style="fill:rgb(214,127,84);"/>
            </g>
        </g>
        <g transform="matrix(4.16667,0,0,4.16667,0,0)">
            <g transform="matrix(1,0,0,1,538.976,357.347)">
                <path d="M0,-2.486C0,-2.212 -0.222,-1.99 -0.497,-1.99C-0.771,-1.99 -0.992,-2.212 -0.992,-2.486C-0.992,-4.238 -0.646,-5.394 -0.088,-6.081C0.363,-6.634 0.939,-6.89 1.583,-6.904C2.174,-6.918 2.811,-6.719 3.443,-6.361C4.915,-5.526 6.43,-3.78 7.257,-1.889C7.772,-0.71 8.196,0.539 8.309,1.244C8.346,1.479 8.353,1.676 8.322,1.824L8.316,1.85C8.23,2.24 7.999,2.414 7.601,2.329C7.445,2.295 7.276,2.194 7.096,2.012C6.425,1.337 5.617,1.059 4.98,1.122C4.75,1.146 4.547,1.215 4.393,1.327C4.253,1.426 4.15,1.565 4.098,1.742C3.973,2.16 4.108,2.78 4.654,3.594C4.806,3.822 4.746,4.128 4.519,4.281C4.291,4.432 3.983,4.371 3.832,4.145C3.101,3.053 2.944,2.14 3.147,1.458C3.265,1.065 3.5,0.75 3.814,0.525C4.112,0.31 4.48,0.178 4.884,0.137C5.592,0.067 6.434,0.278 7.195,0.808C7.018,0.17 6.708,-0.674 6.35,-1.495C5.604,-3.198 4.257,-4.762 2.954,-5.501C2.473,-5.773 2.009,-5.925 1.603,-5.917C1.25,-5.908 0.931,-5.765 0.68,-5.456C0.261,-4.94 0,-3.993 0,-2.486" style="fill:rgb(214,127,84);"/>
            </g>
        </g>
        <g transform="matrix(4.16667,0,0,4.16667,0,0)">
            <g transform="matrix(1,0,0,1,543.647,256.858)">
                <path d="M0,90.163C-30.923,-4.703 111.29,-7.437 82.215,89.638C79.511,97.6 73.893,61.368 73.888,61.128C73.829,58.77 69.195,47.007 63.398,45.791C54.979,44.026 37.886,34.329 27.043,37.284C14.558,40.684 8.819,57.179 8.722,61.128C8.715,61.39 6.214,74.142 3.685,82.795C1.934,88.79 0.957,93.607 0,90.163" style="fill:rgb(78,44,11);"/>
            </g>
        </g>
        <g transform="matrix(4.16667,0,0,4.16667,0,0)">
            <g transform="matrix(1,0,0,1,625.849,359.469)">
                <path d="M0,-19.858C-0.051,-19.397 1.214,-18.327 0.397,-15.059C-0.282,-12.343 -2.88,-8.044 -4.17,-3.037C-6.093,4.426 -7.961,11.556 -7.985,11.633C-10.46,5.083 -6.515,-12.931 -5.769,-20.301C-5.505,-24.332 -6.305,-30.562 -4.389,-30.419C-1.753,-31.491 0.108,-21.808 0,-19.858" style="fill:rgb(78,44,11);"/>
            </g>
        </g>
        <g transform="matrix(4.16667,0,0,4.16667,0,0)">
            <g transform="matrix(1,0,0,1,541.825,365.584)">
                <path d="M0,-21.117C0.17,-17.794 1.932,-17.761 3.913,-12.645C7.137,-4.323 11.096,7.667 11.131,7.751C13.3,2.19 8.515,-13.107 7.424,-19.367C6.973,-22.789 7.481,-28.079 5.572,-27.957C2.887,-28.868 -0.199,-22.772 0,-21.117" style="fill:rgb(78,44,11);"/>
            </g>
        </g>
        <g transform="matrix(4.16667,0,0,4.16667,0,0)">
            <g transform="matrix(1,0,0,1,533.189,468.863)">
                <path d="M0,-20.55C0.004,-20.96 0.338,-21.289 0.748,-21.286C1.157,-21.282 1.486,-20.948 1.483,-20.538L1.301,0C1.298,0.41 0.963,0.739 0.554,0.736C0.145,0.733 -0.185,0.398 -0.182,-0.011L0,-20.55Z" style="fill:rgb(203,185,168);"/>
            </g>
        </g>
        <g transform="matrix(4.16667,0,0,4.16667,0,0)">
            <g transform="matrix(1,0,0,1,635.415,468.863)">
                <path d="M0,-20.55C0.003,-20.96 0.338,-21.289 0.747,-21.286C1.157,-21.282 1.485,-20.948 1.483,-20.538L1.301,0C1.297,0.41 0.963,0.739 0.553,0.736C0.144,0.733 -0.186,0.398 -0.183,-0.011L0,-20.55Z" style="fill:rgb(203,185,168);"/>
            </g>
        </g>
        <g transform="matrix(4.16667,0,0,4.16667,0,0)">
            <g transform="matrix(1,0,0,1,582.092,331.21)">
                <path d="M0,-29.36C9.677,-30.974 28.365,-28.457 30.541,-15.48C32.716,-2.502 30.021,2.581 38.513,8.159C47.004,13.736 41.711,23.022 40.933,24.842C47.051,21.221 59.988,4.271 50.204,-6.262C40.421,-16.797 51.216,-22.339 44.017,-38.269C36.817,-54.202 -0.994,-52.097 0,-29.36" style="fill:rgb(120,73,40);"/>
            </g>
        </g>
        <g transform="matrix(4.16667,0,0,4.16667,0,0)">
            <g transform="matrix(1,0,0,1,597.746,325.826)">
                <path d="M0,-24.667C0,-24.667 -32.642,-26.623 -36.935,-12.089C-41.229,2.446 -38.855,8.636 -49.341,13.83C-59.826,19.024 -55.066,30.378 -54.43,32.568C-60.923,27.576 -73.354,6.395 -60.701,-4.287C-48.049,-14.969 -59.62,-22.808 -49.172,-40.021C-38.723,-57.235 4.301,-50.525 0,-24.667" style="fill:rgb(120,73,40);"/>
            </g>
        </g>
        <g transform="matrix(4.16667,0,0,4.16667,0,0)">
            <g transform="matrix(1,0,0,1,538.185,293.651)">
                <path d="M0,53.376C-0.011,53.649 -0.24,53.861 -0.514,53.851C-0.786,53.841 -0.999,53.61 -0.989,53.337C-0.861,50.29 0.211,47.715 1.843,45.643C3.708,43.272 6.304,41.562 9.052,40.549C11.265,39.733 12.911,37.884 14.106,35.314C15.487,32.348 16.263,28.434 16.605,24.039C16.844,21.001 17.379,18.147 18.196,15.541C19.771,10.523 22.396,6.419 25.969,3.668C29.557,0.906 34.085,-0.485 39.452,-0.066C41.519,0.095 43.707,0.525 46.014,1.249C46.274,1.329 46.42,1.606 46.339,1.868C46.258,2.13 45.979,2.275 45.719,2.194C43.485,1.493 41.37,1.077 39.379,0.922C34.268,0.523 29.967,1.84 26.574,4.452C23.166,7.074 20.655,11.01 19.142,15.836C18.347,18.371 17.826,21.15 17.595,24.113C17.243,28.618 16.439,32.647 15.006,35.73C13.701,38.535 11.875,40.565 9.393,41.48C6.807,42.433 4.367,44.038 2.622,46.255C1.11,48.175 0.117,50.558 0,53.376" style="fill:rgb(168,126,88);"/>
            </g>
        </g>
        <g transform="matrix(4.16667,0,0,4.16667,0,0)">
            <g transform="matrix(1,0,0,1,584.401,332.651)">
                <path d="M0,-45.017C0.239,-44.885 0.327,-44.584 0.196,-44.345C0.064,-44.105 -0.237,-44.017 -0.477,-44.149C-1.28,-44.593 -2.121,-44.993 -2.989,-45.347C-7.804,-47.313 -13.445,-47.877 -18.44,-46.939C-23.39,-46.01 -27.693,-43.608 -29.891,-39.634C-30.118,-39.221 -30.321,-38.8 -30.497,-38.371L-30.494,-38.37C-32.662,-33.061 -32.957,-27.182 -33.222,-21.845C-33.536,-15.557 -33.813,-9.999 -37.038,-6.77C-39.396,-4.407 -41.376,-3.249 -42.996,-2.304C-45.279,-0.97 -46.797,-0.083 -47.539,3.429C-47.595,3.696 -47.856,3.868 -48.125,3.812C-48.393,3.757 -48.563,3.495 -48.509,3.226C-47.675,-0.719 -46.006,-1.694 -43.496,-3.161C-41.924,-4.08 -39.999,-5.204 -37.739,-7.468C-34.782,-10.429 -34.515,-15.806 -34.211,-21.892C-33.94,-27.314 -33.644,-33.284 -31.414,-38.743L-31.412,-38.741C-31.215,-39.225 -30.996,-39.681 -30.759,-40.112C-28.405,-44.368 -23.848,-46.932 -18.623,-47.913C-13.445,-48.885 -7.601,-48.301 -2.617,-46.266C-1.715,-45.898 -0.84,-45.481 0,-45.017" style="fill:rgb(168,126,88);"/>
            </g>
        </g>
        <g transform="matrix(4.16667,0,0,4.16667,0,0)">
            <g transform="matrix(1,0,0,1,631.36,293.792)">
                <path d="M0,53.276C-0.033,53.547 -0.28,53.742 -0.552,53.708C-0.823,53.675 -1.018,53.427 -0.984,53.155C-0.637,50.343 -1.229,47.973 -2.414,46.069C-3.78,43.873 -5.937,42.281 -8.349,41.335C-10.71,40.408 -12.22,38.356 -13.069,35.522C-13.995,32.433 -14.133,28.4 -13.74,23.892C-13.358,19.512 -13.673,15.539 -14.671,12.167C-15.638,8.905 -17.243,6.207 -19.477,4.254C-21.702,2.305 -24.564,1.09 -28.053,0.786C-30.969,0.532 -34.319,0.914 -38.099,2.032C-38.361,2.109 -38.636,1.959 -38.713,1.697C-38.791,1.434 -38.641,1.16 -38.378,1.083C-34.473,-0.075 -31,-0.466 -27.967,-0.203C-24.263,0.121 -21.211,1.422 -18.824,3.509C-16.446,5.589 -14.74,8.447 -13.722,11.888C-12.688,15.381 -12.359,19.479 -12.752,23.978C-13.135,28.371 -13.006,32.28 -12.12,35.239C-11.357,37.781 -10.034,39.609 -7.988,40.412C-5.389,41.431 -3.06,43.156 -1.573,45.546C-0.273,47.634 0.378,50.221 0,53.276" style="fill:rgb(168,126,88);"/>
            </g>
        </g>
        <g transform="matrix(4.16667,0,0,4.16667,0,0)">
            <g transform="matrix(1,0,0,1,593.214,333.518)">
                <path d="M0,-44.331C-0.242,-44.202 -0.542,-44.294 -0.67,-44.536C-0.799,-44.778 -0.707,-45.078 -0.465,-45.206C1.24,-46.113 3.048,-46.785 4.896,-47.234C9.473,-48.347 14.287,-48.085 18.429,-46.663C22.6,-45.23 26.095,-42.619 27.998,-39.043C28.501,-38.097 28.894,-37.079 29.157,-35.994C30.426,-30.775 30.241,-25.794 30.078,-21.35C29.878,-15.951 29.709,-11.367 32.262,-8.302C33.946,-6.28 35.428,-5.168 36.647,-4.253C38.997,-2.49 40.436,-1.412 40.629,3.492C40.64,3.765 40.426,3.995 40.154,4.006C39.881,4.016 39.65,3.804 39.64,3.53C39.466,-0.903 38.171,-1.875 36.054,-3.463C34.793,-4.408 33.261,-5.559 31.502,-7.669C28.707,-11.026 28.883,-15.783 29.089,-21.384C29.25,-25.765 29.432,-30.675 28.196,-35.762C27.954,-36.756 27.59,-37.695 27.121,-38.578C25.343,-41.921 22.048,-44.37 18.106,-45.725C14.136,-47.089 9.517,-47.34 5.129,-46.272C3.366,-45.845 1.638,-45.201 0,-44.331" style="fill:rgb(168,126,88);"/>
            </g>
        </g>
        <g transform="matrix(4.16667,0,0,4.16667,0,0)">
            <g transform="matrix(1,0,0,1,549.106,447.152)">
                <path d="M0,-37.018C-0.167,-37.234 -0.128,-37.544 0.089,-37.711C0.305,-37.878 0.615,-37.838 0.782,-37.622L29.81,-0.001C29.977,0.214 29.937,0.525 29.721,0.693C29.504,0.86 29.193,0.819 29.027,0.603L0,-37.018Z" style="fill:rgb(203,185,168);"/>
            </g>
        </g>
        <g transform="matrix(4.16667,0,0,4.16667,0,0)">
            <g transform="matrix(1,0,0,1,619.915,469.132)">
                <path d="M0,-59.614C0.15,-59.843 0.458,-59.904 0.686,-59.754C0.913,-59.603 0.977,-59.296 0.825,-59.067L-38.168,0C-38.318,0.228 -38.626,0.29 -38.854,0.139C-39.082,-0.011 -39.145,-0.319 -38.994,-0.548L0,-59.614Z" style="fill:rgb(203,185,168);"/>
            </g>
        </g>
        <g transform="matrix(4.16667,0,0,4.16667,0,0)">
            <g transform="matrix(1,0,0,1,605.714,469.125)">
                <path d="M0,-64.817C0.147,-65.046 0.454,-65.114 0.684,-64.966C0.913,-64.818 0.98,-64.512 0.833,-64.282L-40.57,0C-40.718,0.231 -41.023,0.297 -41.254,0.151C-41.483,0.002 -41.551,-0.303 -41.402,-0.535L0,-64.817Z" style="fill:rgb(203,185,168);"/>
            </g>
        </g>
        <g transform="matrix(4.16667,0,0,4.16667,0,0)">
            <g transform="matrix(1,0,0,1,562.914,435.482)">
                <path d="M0,-31.225C-0.158,-31.449 -0.104,-31.758 0.119,-31.915C0.344,-32.073 0.653,-32.018 0.811,-31.795L23.237,0.001C23.396,0.224 23.341,0.533 23.118,0.691C22.894,0.848 22.585,0.794 22.427,0.57L0,-31.225Z" style="fill:rgb(203,185,168);"/>
            </g>
        </g>
        <g transform="matrix(4.16667,0,0,4.16667,0,0)">
            <g transform="matrix(1,0,0,1,548.944,379.419)">
                <path d="M0,-12.948C-0.148,-13.331 0.04,-13.761 0.422,-13.911C0.804,-14.06 1.235,-13.871 1.385,-13.49C1.754,-12.552 2.049,-11.457 2.25,-10.253C2.442,-9.097 2.549,-7.847 2.549,-6.547C2.549,-3.75 2.062,-1.201 1.275,0.658C0.408,2.71 -0.863,3.981 -2.332,3.981C-3.802,3.981 -5.072,2.71 -5.94,0.658C-6.727,-1.201 -7.213,-3.75 -7.213,-6.547C-7.213,-8.925 -6.861,-11.122 -6.274,-12.869C-5.642,-14.75 -4.71,-16.14 -3.612,-16.735C-3.251,-16.929 -2.8,-16.794 -2.605,-16.433C-2.412,-16.072 -2.547,-15.621 -2.908,-15.427C-3.666,-15.016 -4.354,-13.925 -4.867,-12.397C-5.403,-10.802 -5.724,-8.769 -5.724,-6.547C-5.724,-3.941 -5.285,-1.598 -4.573,0.082C-3.944,1.571 -3.147,2.491 -2.332,2.491C-1.518,2.491 -0.721,1.571 -0.092,0.082C0.62,-1.598 1.059,-3.941 1.059,-6.547C1.059,-7.776 0.962,-8.943 0.784,-10.009C0.601,-11.108 0.333,-12.104 0,-12.948" style="fill:rgb(220,145,24);"/>
            </g>
        </g>
        <g transform="matrix(4.16667,0,0,4.16667,0,0)">
            <g transform="matrix(1,0,0,1,619.575,379.961)">
                <path d="M0,-14.032C0.149,-14.413 0.581,-14.602 0.963,-14.453C1.345,-14.303 1.533,-13.873 1.385,-13.49C1.052,-12.646 0.784,-11.65 0.601,-10.551C0.423,-9.485 0.326,-8.318 0.326,-7.089C0.326,-4.483 0.765,-2.14 1.477,-0.46C2.105,1.029 2.902,1.949 3.717,1.949C4.532,1.949 5.329,1.029 5.958,-0.46C6.67,-2.14 7.108,-4.483 7.108,-7.089C7.108,-9.311 6.789,-11.344 6.252,-12.939C5.738,-14.467 5.051,-15.558 4.293,-15.969C3.932,-16.163 3.796,-16.614 3.991,-16.975C4.186,-17.336 4.636,-17.471 4.997,-17.277C6.095,-16.682 7.026,-15.292 7.659,-13.411C8.246,-11.664 8.598,-9.467 8.598,-7.089C8.598,-4.292 8.111,-1.743 7.325,0.116C6.458,2.168 5.187,3.439 3.717,3.439C2.248,3.439 0.977,2.168 0.109,0.116C-0.677,-1.743 -1.163,-4.292 -1.163,-7.089C-1.163,-8.389 -1.058,-9.639 -0.865,-10.795C-0.664,-11.999 -0.369,-13.095 0,-14.032" style="fill:rgb(220,145,24);"/>
            </g>
        </g>
    </g>
</svg>
